<?xml version="1.0" encoding="utf-8"?>
<!-- Generator: Adobe Illustrator 27.5.0, SVG Export Plug-In . SVG Version: 6.00 Build 0)  -->
<svg version="1.1" xmlns="http://www.w3.org/2000/svg" xmlns:xlink="http://www.w3.org/1999/xlink" x="0px" y="0px"
	 viewBox="0 0 750 500" style="enable-background:new 0 0 750 500;" xml:space="preserve">
<g id="BACKGROUND">
	<g>
		<rect y="401" style="fill:#F1A04C;" width="750" height="99"/>
		<rect style="fill:#DFE6FF;" width="750" height="401"/>
		<rect style="fill:#C5D2FF;" width="750" height="51.25"/>
	</g>
</g>
<g id="OBJECTS">
	<g>
		<path style="fill:#F0863F;" d="M680.15,458.491H409.9c-6.614,0-11.975-5.362-11.975-11.975l0,0
			c0-6.614,5.361-11.975,11.975-11.975h270.25c6.614,0,11.975,5.361,11.975,11.975l0,0
			C692.125,453.13,686.763,458.491,680.15,458.491z"/>
		<path style="fill:#F0863F;" d="M348.836,417.669h-65.892c-4.073,0-7.375-3.302-7.375-7.375l0,0c0-4.073,3.302-7.375,7.375-7.375
			h65.892c4.073,0,7.375,3.302,7.375,7.375l0,0C356.211,414.367,352.909,417.669,348.836,417.669z"/>
		<path style="fill:#F0863F;" d="M326.369,468.5H74.382c-11.657,0-21.107-9.45-21.107-21.107v0c0-11.657,9.45-21.107,21.107-21.107
			h251.986c11.657,0,21.107,9.45,21.107,21.107v0C347.476,459.05,338.026,468.5,326.369,468.5z"/>
		<g>
			<defs>
				<rect id="SVGID_1_" width="750" height="401"/>
			</defs>
			<clipPath id="SVGID_00000142875188093545153310000003107989114235484562_">
				<use xlink:href="#SVGID_1_"  style="overflow:visible;"/>
			</clipPath>
			<g style="clip-path:url(#SVGID_00000142875188093545153310000003107989114235484562_);">
				<g>
					<rect x="466.662" y="14.947" style="fill:#00389A;" width="336.062" height="298.662"/>
					<g>
						<rect x="476.686" y="24.52" style="fill:#FFFFFF;" width="91.425" height="279.515"/>
						<rect x="579.443" y="24.52" style="fill:#FFFFFF;" width="91.425" height="279.515"/>
						<g>
							<rect x="579.443" y="215.012" style="fill:#DFE6FF;" width="26.598" height="89.023"/>
							<rect x="579.443" y="222.971" style="fill:#C8D4FF;" width="21.272" height="4.724"/>
							<rect x="579.443" y="233.873" style="fill:#C8D4FF;" width="21.272" height="4.724"/>
							<rect x="579.443" y="244.775" style="fill:#C8D4FF;" width="21.272" height="4.724"/>
							<rect x="579.443" y="255.678" style="fill:#C8D4FF;" width="21.272" height="4.724"/>
							<rect x="579.443" y="266.581" style="fill:#C8D4FF;" width="21.272" height="4.724"/>
							<rect x="579.443" y="277.483" style="fill:#C8D4FF;" width="21.272" height="4.724"/>
							<rect x="579.443" y="288.385" style="fill:#C8D4FF;" width="21.272" height="4.724"/>
							<rect x="579.443" y="299.288" style="fill:#C8D4FF;" width="21.272" height="4.724"/>
						</g>
						<rect x="541.513" y="215.012" style="fill:#DFE6FF;" width="26.598" height="89.023"/>
						<g>
							
								<rect x="644.41" y="188.198" transform="matrix(-1 -1.224647e-16 1.224647e-16 -1 1315.2786 492.2331)" style="fill:#DFE6FF;" width="26.458" height="115.837"/>
							
								<rect x="652.533" y="198.015" transform="matrix(-1 -1.224647e-16 1.224647e-16 -1 1323.4016 404.4969)" style="fill:#C8D4FF;" width="18.335" height="8.468"/>
							
								<rect x="652.533" y="215.623" transform="matrix(-1 -1.224647e-16 1.224647e-16 -1 1323.4016 439.7129)" style="fill:#C8D4FF;" width="18.335" height="8.468"/>
							
								<rect x="652.533" y="233.231" transform="matrix(-1 -1.224647e-16 1.224647e-16 -1 1323.4016 474.9289)" style="fill:#C8D4FF;" width="18.335" height="8.468"/>
							
								<rect x="652.533" y="250.839" transform="matrix(-1 -1.224647e-16 1.224647e-16 -1 1323.4016 510.1447)" style="fill:#C8D4FF;" width="18.335" height="8.468"/>
							
								<rect x="652.533" y="268.447" transform="matrix(-1 -1.224647e-16 1.224647e-16 -1 1323.4016 545.3607)" style="fill:#C8D4FF;" width="18.335" height="8.468"/>
							
								<rect x="652.533" y="286.055" transform="matrix(-1 -1.224647e-16 1.224647e-16 -1 1323.4016 580.5767)" style="fill:#C8D4FF;" width="18.335" height="8.468"/>
						</g>
						<rect x="682.2" y="24.52" style="fill:#FFFFFF;" width="91.425" height="279.515"/>
						<rect x="522.708" y="257.428" style="fill:#ACBEFF;" width="18.804" height="47.086"/>
					</g>
				</g>
				<g>
					<rect x="682.2" y="188.198" style="fill:#DFE6FF;" width="41.019" height="115.837"/>
					<rect x="682.2" y="198.015" style="fill:#C8D4FF;" width="28.425" height="8.468"/>
					<rect x="682.2" y="215.622" style="fill:#C8D4FF;" width="28.425" height="8.468"/>
					<rect x="682.2" y="233.23" style="fill:#C8D4FF;" width="28.425" height="8.468"/>
					<rect x="682.2" y="250.839" style="fill:#C8D4FF;" width="28.425" height="8.468"/>
					<rect x="682.2" y="268.447" style="fill:#C8D4FF;" width="28.425" height="8.468"/>
					<rect x="682.2" y="286.055" style="fill:#C8D4FF;" width="28.425" height="8.468"/>
				</g>
				<g>
					<g>
						<path style="fill:#F1A04C;" d="M693.988,371.695c-8.41-40.042-26.831-77.941-53.122-109.291
							c4.271,16.617,2.742,34.814,10.289,50.222c5.528,11.287,15.497,19.919,26.512,25.972c1.715,0.942,3.528,1.889,4.646,3.494
							c0.784,1.127,1.154,2.483,1.501,3.811c2.475,9.472,4.471,19.07,5.977,28.744L693.988,371.695z"/>
						<path style="fill:#F1A04C;" d="M690.834,377.695c-4.766-46.327,13.588-94.464,47.988-125.857
							c-0.323,12.38-0.961,24.839-3.837,36.884c-2.876,12.046-8.125,23.756-16.668,32.722c-5.874,6.165-13.122,10.861-20.61,14.915
							c-1.289,0.698-2.658,1.447-3.363,2.731c-0.468,0.854-0.586,1.849-0.686,2.818c-1.235,12.013-0.984,24.178,0.746,36.129
							L690.834,377.695z"/>
						<path style="fill:#F1A04C;" d="M690.925,365.993c-1.693-4.898-2.738-9.992-3.747-15.075
							c-8.11-40.857-14.188-82.631-10.147-124.089c3.014,8.525,6.027,17.05,9.041,25.574c4.259,12.049,8.557,24.273,9.504,37.018
							c0.947,12.744-1.845,26.291-10.298,35.876c0.554,16.821,4.441,29.195,9.957,43.398L690.925,365.993z"/>
					</g>
					<polygon style="fill:#1B4DA5;" points="714.456,368.797 672.676,368.797 680.511,408.134 706.62,408.134 					"/>
				</g>
			</g>
		</g>
		<g>
			<path style="fill:#FFFFFF;" d="M38.454,131.912V401h144.929v-2.139V131.912H38.454z M179.105,396.722h-65.603v-39.528h65.603
				V396.722z M179.105,352.916H42.732v-40.021h136.372V352.916z M42.732,308.616v-40.021h66.492v40.021H42.732z M179.105,308.616
				h-65.603v-40.021h65.603V308.616z M179.105,264.317h-65.603v-0.07h-4.278v0.07H42.732v-40.021h136.372V264.317z M42.732,220.018
				v-40.021h66.492v40.021H42.732z M179.105,220.018h-65.603v-40.021h65.603V220.018z M179.105,136.191v39.528H42.732v-39.528
				H179.105z M42.732,357.194h66.492v39.528H42.732V357.194z"/>
			<g>
				<rect x="49.026" y="147.135" style="fill:#FFFFFF;" width="8.5" height="28.583"/>
				<rect x="66.667" y="147.135" style="fill:#FFFFFF;" width="4.25" height="28.583"/>
				<rect x="70.917" y="155.954" style="fill:#C8D4FF;" width="4.25" height="19.764"/>
				<rect x="58.167" y="141.287" style="fill:#ACBEFF;" width="8.5" height="34.431"/>
				<rect x="75.167" y="147.135" style="fill:#F0863F;" width="10.609" height="28.583"/>
				<rect x="92.151" y="147.135" style="fill:#F0863F;" width="5.304" height="28.583"/>
				<rect x="85.776" y="143" style="fill:#F1A04C;" width="6.375" height="32.718"/>
			</g>
			<g>
				<rect x="130.676" y="191.435" style="fill:#FFFFFF;" width="8.5" height="28.583"/>
				<rect x="148.317" y="191.435" style="fill:#FFFFFF;" width="4.25" height="28.583"/>
				<rect x="152.567" y="200.254" style="fill:#C8D4FF;" width="4.25" height="19.764"/>
				<rect x="139.817" y="185.587" style="fill:#ACBEFF;" width="8.5" height="34.431"/>
				<rect x="156.817" y="191.435" style="fill:#F1A04C;" width="10.608" height="28.583"/>
				<rect x="173.801" y="191.435" style="fill:#F0863F;" width="5.304" height="28.583"/>
				<rect x="167.426" y="187.3" style="fill:#ACBEFF;" width="6.375" height="32.718"/>
			</g>
			<g>
				<rect x="42.732" y="280.033" style="fill:#FFFFFF;" width="8.5" height="28.583"/>
				<rect x="60.374" y="280.033" style="fill:#FFFFFF;" width="4.25" height="28.583"/>
				<rect x="64.624" y="288.852" style="fill:#C8D4FF;" width="4.25" height="19.764"/>
				<rect x="51.874" y="274.185" style="fill:#ACBEFF;" width="8.5" height="34.431"/>
				<rect x="68.874" y="280.033" style="fill:#F1A04C;" width="10.609" height="28.583"/>
				<rect x="85.857" y="280.033" style="fill:#F0863F;" width="5.304" height="28.583"/>
				<rect x="79.482" y="275.898" style="fill:#ACBEFF;" width="6.375" height="32.718"/>
			</g>
			<g>
				<rect x="56.944" y="324.08" style="fill:#FFFFFF;" width="8.5" height="28.583"/>
				<rect x="74.586" y="324.08" style="fill:#FFFFFF;" width="4.25" height="28.583"/>
				<rect x="78.836" y="332.9" style="fill:#C8D4FF;" width="4.25" height="19.764"/>
				<rect x="66.086" y="318.232" style="fill:#ACBEFF;" width="8.5" height="34.431"/>
				<rect x="83.086" y="324.08" style="fill:#F0863F;" width="10.608" height="28.583"/>
				<rect x="100.069" y="324.08" style="fill:#F0863F;" width="5.304" height="28.583"/>
				<rect x="93.694" y="319.945" style="fill:#ACBEFF;" width="6.375" height="32.718"/>
			</g>
			<g>
				<rect x="64.748" y="235.664" style="fill:#FFFFFF;" width="8.5" height="28.583"/>
				<rect x="82.39" y="235.664" style="fill:#FFFFFF;" width="4.25" height="28.583"/>
				<rect x="86.64" y="244.483" style="fill:#C8D4FF;" width="4.25" height="19.764"/>
				<rect x="73.89" y="229.816" style="fill:#ACBEFF;" width="8.5" height="34.431"/>
				<rect x="90.89" y="235.664" style="fill:#F1A04C;" width="10.608" height="28.583"/>
				<rect x="107.873" y="235.664" style="fill:#F0863F;" width="5.304" height="28.583"/>
				<rect x="101.498" y="231.529" style="fill:#ACBEFF;" width="6.375" height="32.718"/>
			</g>
			<g>
				<rect x="113.178" y="235.664" style="fill:#FFFFFF;" width="8.5" height="28.583"/>
				<rect x="130.819" y="235.664" style="fill:#FFFFFF;" width="4.25" height="28.583"/>
				<rect x="135.069" y="244.483" style="fill:#C8D4FF;" width="4.25" height="19.764"/>
				<rect x="122.319" y="229.816" style="fill:#ACBEFF;" width="8.5" height="34.431"/>
				<rect x="139.319" y="235.664" style="fill:#F1A04C;" width="10.608" height="28.583"/>
				<rect x="156.303" y="235.664" style="fill:#F0863F;" width="5.304" height="28.583"/>
				<rect x="149.928" y="231.529" style="fill:#F1A04C;" width="6.375" height="32.718"/>
			</g>
		</g>
		<g>
			<circle style="fill:#F0863F;" cx="547.149" cy="168.019" r="6.888"/>
			<polygon style="fill:#00389A;" points="547.149,147.135 528.244,164.345 566.054,164.345 			"/>
			<polyline style="fill:#00389A;" points="548.004,155.74 548.004,0 546.295,0 546.295,155.74 			"/>
		</g>
		<g>
			<circle style="fill:#F1A04C;" cx="334.795" cy="76.519" r="6.888"/>
			<polygon style="fill:#00389A;" points="334.795,55.635 315.89,72.845 353.701,72.845 			"/>
			<polyline style="fill:#00389A;" points="335.65,64.241 335.65,0 333.941,0 333.941,64.241 			"/>
		</g>
		<g>
			<circle style="fill:#F1A04C;" cx="142.128" cy="76.519" r="6.888"/>
			<polygon style="fill:#00389A;" points="142.128,55.635 123.223,72.845 161.033,72.845 			"/>
			<polyline style="fill:#00389A;" points="142.982,64.241 142.982,0 141.273,0 141.273,64.241 			"/>
		</g>
		<g>
			<path style="fill:#FF9A51;" d="M315.943,436.812c-8.503-0.502-27.486-1.66-30.142-2.149l2.232,4.018
				C296.801,441.71,307.497,441.408,315.943,436.812z"/>
			<path style="fill:#FF9A51;" d="M315.943,436.812c-8.447,4.596-19.142,4.898-27.91,1.868l5.445,9.802c0,0,4.885-4.69,11.685-3.142
				c6.8,1.547,14.889-8.289,14.889-8.289S318.447,436.959,315.943,436.812z"/>
			<path style="fill:#00298B;" d="M251.337,358.199c-15.055,0.737-66.248,9.245-71.44,9.714c0,0-30.432,21.573-6.155,24.998
				c24.278,3.426,38.88-4.67,74.346-11.496c1.962,16.282,26.135,46.97,39.93,58.08c0.26,0.209,0.516,0.377,0.773,0.551
				c2.81-0.775,5.417-2.073,7.636-4.174C288.921,422.362,261.401,357.706,251.337,358.199z"/>
			<path style="fill:#00298B;" d="M144.454,278.436c0.194,0.063,4.298-2.803,5.014-3.045c1.998-0.676,3.737-0.903,5.621,0.054
				c3.4,1.726,6.043,4.652,6.894,8.441c0.674,3.002,0.113,6.247-1.44,8.894c-1.309,2.231-3.928,3.688-5.766,5.518
				c0.39-4.125,0.328-11.22-0.738-15.224c-0.196-0.736,1.668-0.94,1.136-1.485c-0.533-0.545-1.448-0.791-2.07-0.351
				C153.104,281.238,144.454,278.436,144.454,278.436z"/>
			<path style="fill:#315EC6;" d="M261.035,460.29H116.31c-10.88,0-20.026-8.683-25.345-17.806c-0.462-0.786-0.89-1.596-1.295-2.405
				c-0.844-1.619-1.596-3.261-2.324-4.926c-12.753-29.102-10.036-63.616,1.861-92.741c7.388-18.118,22.315-26.755,38.572-27.125
				c21.541-0.497,45.428,13.551,57.152,39.277c20.558,45.151,57.742,39.219,71.998,53.649c0.694,0.705,1.411,1.445,2.128,2.22
				c3.769,4.024,7.92,9.03,11.007,14.476C276.633,436.507,278.321,450.069,261.035,460.29z"/>
			<path style="fill:#0E43BD;" d="M261.035,460.29H116.31c-10.88,0-20.026-8.683-25.345-17.806c-0.462-0.786-0.89-1.596-1.295-2.405
				c20.882,8.44,44.191,9.666,66.842,10.186c16.384,0.37,32.767,0.439,49.163,0.52c13.089,0.058,26.2,0.116,39.277-0.613
				c7.041-0.393,14.846-1.41,19.367-6.822c4.186-4.995,4.151-12.059,5.746-18.442C276.633,436.507,278.321,450.069,261.035,460.29z"
				/>
			<path style="fill:#0E43BD;" d="M259.7,409.83c2.932,3.158,4.603,6.998,4.084,11.766c-0.589,5.411-4.476,10.327-9.605,12.148
				c-6.932,2.461-14.452-0.55-21.425-2.892c-14.492-4.867-30.016-6.916-45.2-5.142c-20.405,2.385-39.278,12.288-59.847,13.556
				c1.459-4.468,4.934-8.235,9.27-10.049c-15.281-7.317-24.649-21.997-29.445-37.794c-4.234-13.946-5.738-29.051-1.871-43.103
				c2.556-9.29,7.641-18.026,14.826-24.493c7.781-7.004,13.984-9.208,23.951-6.142c18.144,5.582,32.703,19.785,40.492,36.885
				c8.793,19.31,23.423,32.604,43.034,40.259C236.402,398.122,252.189,401.739,259.7,409.83z"/>
			<path style="fill:#00298B;" d="M158.109,322.995c-5.607-8.141-13.304-10.365-22.723-10.434
				c-12.031-0.088-11.533,15.838-13.061,24.406c-2.159,12.104-1.085,24.795,3.229,36.318c4.896,13.077,12.936,30.232,26.661,35.883
				c5.824,2.398,12.345,2.201,18.639,1.965c7.747-0.29,15.522-0.702,23.233-0.504c5.377,0.138,20.457-1.169,24.554,2.929
				c-1.86-4.148-6.397-6.938-10.938-6.727c9.346-1.741,19.097-3.467,28.237-0.852c-2.983-0.854-6.332-4.458-9.343-5.84
				c-3.666-1.682-7.359-2.263-11.172-3.328c-7.527-2.103-15.169-7.104-21.604-11.587c-9.548-6.651-18.137-15.605-21.214-26.827
				c-1.017-3.711-1.409-7.585-2.65-11.228c-0.937-2.751-2.339-5.315-3.611-7.928C163.688,333.773,161.558,328.002,158.109,322.995z"
				/>
			<path style="fill:#00389A;" d="M247.858,363.723c-16.048-0.474-74.935,4.521-88.29,8.209c-2.659,0.729-2.879,9.215,0.509,17.517
				c4.047,9.932,13.25,19.621,29.599,15.459c30.016-7.631,59.858-21.934,59.858-21.934s-2.879,7.654,0.809,21.806
				c2.636,10.105,19.125,32.059,29.954,43.522c2.965-1.721,5.931-3.341,8.896-4.716C280.755,419.17,260.343,364.097,247.858,363.723
				z"/>
			<path style="fill:#00298B;" d="M273.816,427.593c-4.07-5.064-7.203-10.788-10.279-16.511
				c-5.955-11.077-11.921-23.356-9.493-35.693c-22.026,2.659-42.711,12.742-64.807,14.8c-8.637,0.809-17.76,0.266-25.263-4.081
				l-3.896,3.341c4.047,9.932,13.25,19.621,29.599,15.459c30.016-7.631,59.858-21.934,59.858-21.934s-2.879,7.654,0.809,21.806
				c2.636,10.105,19.125,32.059,29.954,43.522c2.804-1.627,5.607-3.164,8.411-4.49C284.111,438.241,278.341,433.231,273.816,427.593
				z"/>
			<path style="fill:#F0863F;" d="M153.78,320.271c-0.444-0.867-0.91-1.729-1.391-2.62c-1.355-2.44-2.098-5.06-3.533-7.454
				c-0.068-0.114-0.135-0.267-0.05-0.37c0.048-0.058,0.128-0.075,0.202-0.089c3.539-0.637,7.235-0.353,10.642,0.792
				c3.336,1.121,5.173,3.871,7.02,6.737c5.6,8.691,9.665,18.327,14.602,27.461c4.29-0.904,12.383,6.756,20.8,12.186
				c2.941-1.45,5.814-3.272,9.521-2.634c1.833,0.316,5.954,3.278,6.054,3.255c-14.606,3.437-3.033,1.562-17.846,3.954
				c-10.915-3.954-27.965-6.671-31.279-12.829c-3.271-6.08-6.531-12.167-9.718-18.291c-1.204-2.314-2.564-4.626-3.579-7.031
				C154.777,322.276,154.292,321.271,153.78,320.271z"/>
			<path style="fill:#FF9A51;" d="M194.383,371.574c-0.463-0.555-1.503-0.358-2.243-0.046c-6.209,2.602-12.337,5.585-17.54,9.863
				c-5.191,4.266-9.435,9.967-10.961,16.511c-0.809-2.313-1.688-4.579-2.648-6.822c-7.643-17.933-19.587-33.889-26.732-52.157
				c-2.347-6.001-10.452-19.563-4.29-25.483c1.526-1.457,3.295-2.162,5.168-2.613c1.573-0.393,3.214-0.613,4.856-0.925
				c3.873-0.763,7.747-0.971,11.701-0.879c0.162,0,0.335,0.012,0.497,0.012c1.492,0.035,3.214,0.694,4.486,1.48
				c1.607,0.994,2.347,2.81,3.342,4.336c0.925,1.422,2.185,2.509,3.307,3.758c2.659,2.914,6.533,4.717,8.302,8.417
				c1.746,3.654,0.856,7.631,0.983,11.585c0.081,2.867,0.382,6.567,2.324,8.845c2.081,2.428,3.908,5.053,5.92,7.585
				c3.457,4.336,8.787,8.429,11.47,13.239C192.949,369.4,193.631,370.498,194.383,371.574z"/>
			<path style="fill:#FFCE89;" d="M156.054,317.474c-0.116-1.029-0.59-1.977-1.087-2.879c-1.018-1.896-2.104-3.758-3.272-5.573
				c-3.135-0.073-6.219,0.056-9.293,0.487c2.079,5.873,6.095,10.252,11.548,11.158c0.378-0.081,0.742-0.206,1.052-0.43
				C155.846,319.636,156.169,318.503,156.054,317.474z"/>
			<path style="fill:#FFAE65;" d="M142.402,309.509c-0.803,0.113-1.606,0.233-2.408,0.391c-1.642,0.312-3.284,0.532-4.856,0.925
				c1.434,1.85,3.076,3.538,4.868,5.03c3.677,3.052,8.313,5.307,13.077,4.937c0.288-0.025,0.582-0.064,0.867-0.125
				C148.497,319.761,144.481,315.382,142.402,309.509z"/>
			<path style="fill:#FFCE89;" d="M150.777,307.379l-3.701-5.213c-1.074,4.895-0.514,10.091,1.679,14.111
				c1.045,0.265,2.101,0.484,3.168,0.633C150.402,314.014,149.986,310.554,150.777,307.379z"/>
			<path style="fill:#FFAE65;" d="M147.076,302.166l-1.661-2.34c-3.017-0.961-6.305-1.054-9.371-0.265
				c-0.14,0.036-0.293,0.084-0.367,0.208c-0.066,0.111-0.048,0.251-0.028,0.379c0.492,3.12,0.983,6.241,1.475,9.362
				c0.055,0.346,0.113,0.702,0.293,1.001c0.171,0.284,0.439,0.495,0.705,0.695c3.159,2.377,6.801,4.099,10.633,5.07
				C146.562,312.257,146.002,307.061,147.076,302.166z"/>
			<path style="fill:#F0863F;" d="M191.674,368.278c0.624,1.122,1.307,2.22,2.058,3.295c-0.462-0.555-1.503-0.358-2.243-0.046
				c-6.209,2.602-12.337,5.585-17.54,9.863c-5.191,4.266-9.435,9.967-10.961,16.511c-0.809-2.313-1.688-4.579-2.648-6.822
				c-8.653-20.225-23.39-38.188-29.638-59.282c-0.818-2.763-1.643-5.564-1.719-8.445c-0.075-2.88,0.686-5.898,2.669-7.988
				c6.518-6.867,8.979,5.72,10.631,9.71c2.475,5.977,10.089,10.64,10.697,16.532c0.788,7.636,1.652,14.578,5.372,21.482
				c1.526,2.832,3.931,5.445,5.815,8.047c6.036-1.156,12.129-1.977,18.234-2.625C185.442,368.186,188.633,367.943,191.674,368.278z"
				/>
			<path style="fill:#00389A;" d="M251.524,327.822l-8.799,31.577l-49.047,8.128l-2.232,0.37c0.567-3.295,6.128-25.53,7.92-32.455
				c0.347-1.353,1.445-2.359,2.81-2.602l47.428-7.134c0.867-0.15,1.63,0.382,1.885,1.122
				C251.593,327.128,251.616,327.475,251.524,327.822z"/>
			<path style="fill:#00298B;" d="M251.524,327.822l-8.799,31.577l-49.047,8.128l-0.023-0.289c0-0.636,6.602-25.853,8.082-31.53
				c0.185-0.694,0.752-1.202,1.468-1.318l48.284-7.562C251.593,327.128,251.616,327.475,251.524,327.822z"/>
			<path style="fill:#C8D4FF;" d="M226.825,344.264c-0.52,2.138-2.648,4.384-4.753,5.016c-2.105,0.633-3.389-0.587-2.869-2.725
				c0.52-2.138,2.648-4.384,4.753-5.016C226.061,340.906,227.345,342.126,226.825,344.264z"/>
			<path style="fill:#315EC6;" d="M192.498,363.047c-1.201,0.438-34.928,5.478-34.928,5.478s-0.364,2.591,4.743,2.823
				c5.107,0.232,29.137-3.449,29.137-3.449L192.498,363.047z"/>
			<path style="fill:#FF9A51;" d="M171.57,362.185c-0.116,0.624-0.162,1.249-0.162,1.873c0,0.59,0.058,1.179,0.15,1.781
				c-0.023-0.139-18.026,1.457-19.505,1.561c-7.284,0.52-14.233,0.601-21.136-2.208c-0.335-0.139-0.682-0.289-0.913-0.578
				c-0.266-0.324-0.335-0.763-0.382-1.168c-1.052-9.342-0.798-18.985-0.948-28.397c-0.058-3.885-0.127-7.77-0.127-11.655
				c0-1.145-0.486-3.827,0.127-4.879c0.197-0.347,0.405-0.671,0.624-0.971c0.983-1.445,2.047-2.417,3.145-2.983
				c6.024-3.087,9.03,2.763,10.233,7.793c1.399,5.862,0.844,11.955,0.231,17.875c-0.162,1.457-0.532,15.401-0.347,15.412
				c2.844,0.208,29.079,6.07,29.287,5.296C171.732,361.364,171.628,361.769,171.57,362.185z"/>
			<path style="fill:#F0863F;" d="M171.559,365.839c-0.023-0.139-18.026,1.457-19.505,1.561c-7.284,0.52-14.233,0.601-21.136-2.208
				c-0.335-0.139-0.682-0.289-0.913-0.578c-0.266-0.324-0.335-0.763-0.382-1.168c-1.052-9.342-0.798-18.985-0.948-28.397
				c-0.058-3.885-0.127-7.77-0.127-11.655c0-1.145-0.486-3.827,0.127-4.879c0.197-0.347,0.405-0.671,0.624-0.971l8.718,11.065
				c1.376,1.434,1.792,3.7,1.029,5.527c-1.908-1.272-3.055-1.909-5.321-2.245c-0.845,8.802-0.437,19.784,0.488,29.763
				c12.314,1.746,24.755,2.128,37.196,2.405C171.409,364.648,171.466,365.237,171.559,365.839z"/>
			<path style="fill:#FFCE89;" d="M191.873,362.379c0,0-4.974-4.335-8.849-4.803s-9.903,3.216-10.894,3.368
				c-0.05,0.008-0.152,0.003-0.282-0.008c-0.47,1.678-0.558,3.267-0.288,4.905c2.878-0.261,4.978-0.476,5.792-0.6
				C181.811,364.558,191.873,362.379,191.873,362.379z"/>
			<path style="fill:#FF9A51;" d="M309.554,458.491c1.415-0.358,2.249-0.637,2.115-0.685c-13.547-4.774-22.653-13.259-22.961-13.993
				l-2.907,1.552C290.317,454.125,299.621,457.114,309.554,458.491z"/>
			<path style="fill:#FF9A51;" d="M285.802,445.365l-5.504,2.938c0,0,1.086,8.663,1.012,9.455c-0.074,0.792,4.197-0.643,9.844,1.811
				c4.258,1.85,14.065,0.018,18.4-1.078C299.621,457.114,290.317,454.125,285.802,445.365z"/>
			<path style="fill:#FFCE89;" d="M153.614,309.137c-0.173,0.358-0.37,0.728-0.705,0.937c-0.312,0.196-0.694,0.231-1.064,0.243
				c-2.07,0.069-4.741-0.162-7.157-0.902c-1.919-0.566-3.677-1.457-4.856-2.752c-2.81-3.133-5.943-6.047-8.313-9.574
				c-4.29-6.371-7.724-14.534,3.538-21.691c9.204-5.862,16.025-1.619,18.569,0.913c0.567,0.567,0.914,1.041,1.041,1.307
				C156.99,287.99,158.378,299.275,153.614,309.137z"/>
			<path style="fill:#FFAE65;" d="M139.535,297.169c0.188,2.238,0.869,4.436,2.015,6.369c2.117,3.569,5.789,6.178,9.855,7.003
				c-3.882,0.544-8.914-0.913-11.574-3.879c-2.81-3.133-5.943-6.047-8.313-9.574c-4.29-6.371-7.724-14.534,3.538-21.691
				c9.204-5.862,16.025-1.619,18.569,0.913l1.179,3.573c-2.925,4.59-8.105,7.666-13.54,8.013c-0.488,0.031-1.115,3.375-1.213,3.836
				c-0.283,1.339-0.557,2.628-0.571,4.007C139.477,296.217,139.495,296.694,139.535,297.169z"/>
			<path style="fill:#00389A;" d="M156.1,280.266c-2.636,4.625-10.614,5.989-15.112,4.001c-0.671,1.885-1.33,3.769-2,5.654
				c-0.59,1.665-1.179,3.353-1.388,5.111s0.012,3.619,0.937,5.122c0.728,1.168,1.827,2.047,2.752,3.064
				c0.913,1.029,1.7,2.336,1.515,3.7c-0.127,1.064-0.821,1.966-1.572,2.717c-1.422,1.399-3.503,1.919-4.556,3.7
				c-0.636,1.087-0.671,2.706-0.22,3.862c0.347,0.879,0.902,1.653,1.41,2.44c0.775,1.226,2.035,3.341,1.26,4.787
				c-0.231,0.451-0.624,0.809-0.751,1.295c-0.173,0.636,0.162,1.307,0.59,1.792c0.439,0.486,0.994,0.879,1.399,1.388
				c1.411,1.746,1.168,4.347-0.809,5.457c0.439-0.405,0.497-0.983,0.382-1.538c-0.197-0.867-0.717-1.619-1.33-2.278v-0.012
				c-0.104-0.116-0.22-0.22-0.324-0.324c-1.896-1.838-4.509-2.856-6.822-4.058c-3.191-1.676-6.232-3.63-9.088-5.827
				c-1.26-0.96-2.509-2.047-3.469-3.295c0,0,0,0,0-0.012c-0.752-0.971-1.295-2.035-1.515-3.249
				c-0.937-5.076,4.093-8.972,7.943-12.406c0.659-0.59,1.341-1.272,1.48-2.151c0.197-1.33-0.902-2.451-1.781-3.469
				c-3.018-3.503-3.873-8.487-2.81-12.915c0.532-2.22,1.549-4.324,3.041-6.059c0.613-0.717,1.249-1.168,1.908-1.492
				c1.388-0.671,3.18-0.983,4.694-1.156c0.277-0.023,0.544-0.046,0.798-0.139c0.058-0.023,0.116-0.046,0.173-0.069
				c0.347-0.173,0.59-0.486,0.832-0.786c0.798-0.971,1.7-1.85,2.683-2.625c3.446-2.729,7.885-4.22,12.279-4.012
				c2.243,0.104,4.544,0.671,6.255,2.116C158.112,271.352,158.204,276.578,156.1,280.266z"/>
			<path style="fill:#F0863F;" d="M123.044,302.003l0.185,0.335C123.032,302.315,122.789,302.014,123.044,302.003z"/>
			<g>
				<path style="fill:#00298B;" d="M155.692,293.951c-0.012,0.701,0.272,1.986-0.758,1.882c-0.511-0.051-0.671-0.477-0.776-0.915
					c-0.09-0.373-0.139-0.82-0.074-1.199c0.049-0.284,0.186-0.563,0.422-0.728C155.242,292.475,155.702,293.324,155.692,293.951z"/>
				<path style="fill:#FFFFFF;" d="M155.402,294.985c-0.092,0.288-0.405,0.188-0.512-0.039c-0.102-0.217,0.105-0.902,0.432-0.61
					c0.068,0.061,0.082,0.16,0.092,0.251C155.428,294.72,155.442,294.857,155.402,294.985z"/>
			</g>
			<g>
				<path style="fill:#00298B;" d="M148.358,294.548c-0.013,0.786,0.305,2.227-0.85,2.111c-0.573-0.058-0.752-0.535-0.871-1.026
					c-0.101-0.418-0.156-0.92-0.083-1.344c0.055-0.318,0.208-0.631,0.473-0.817C147.854,292.893,148.37,293.844,148.358,294.548z"/>
				<path style="fill:#FFFFFF;" d="M148.033,295.707c-0.103,0.323-0.454,0.211-0.574-0.044c-0.114-0.243,0.118-1.011,0.484-0.684
					c0.076,0.068,0.092,0.18,0.103,0.282C148.063,295.41,148.078,295.564,148.033,295.707z"/>
			</g>
			<path style="fill:#FFAE65;" d="M151.642,296.471c0.142,1.306,0.453,2.595,0.923,3.822c0.119,0.312,0.25,0.623,0.298,0.954
				c0.008,0.057,0.014,0.119-0.01,0.172c-0.047,0.106-0.183,0.132-0.299,0.14c-0.517,0.035-1.04-0.024-1.536-0.175L151.642,296.471z
				"/>
			<path style="fill:#FFAE65;" d="M153.316,304.036c0.277-0.026,0.554-0.053,0.831-0.079c-0.708,0.695-1.688,1.077-2.673,1.119
				c-1.019,0.043-2.029-0.539-2.838-1.125C150.226,304.138,151.718,304.188,153.316,304.036z"/>
			<path style="fill:#FFAE65;" d="M152.627,306.374c-0.618,0.573-1.157,0.454-1.823,0.021c-0.019-0.012-0.039-0.025-0.052-0.044
				c-0.051-0.066,0.001-0.17,0.077-0.204c0.076-0.035,0.164-0.023,0.247-0.016c0.397,0.034,0.886-0.035,1.28-0.101
				c0.148-0.025,0.357-0.02,0.382,0.128C152.751,306.241,152.689,306.316,152.627,306.374z"/>
			<path style="fill:#00298B;" d="M148.623,291.308c-0.348-0.783-1.296-1.27-2.117-1.027c-0.652,0.193-1.251,0.892-1.453,1.53
				c-0.126,0.398-0.14,0.821-0.152,1.238C144.949,291.481,147.488,290.488,148.623,291.308z"/>
			<path style="fill:#00298B;" d="M156.263,291.294c0.019-0.729-0.436-1.532-1.199-1.566c-0.321-0.014-0.816,0.211-1.025,0.442
				c-0.192,0.213-0.166,0.782-0.284,0.893C154.513,290.352,155.746,290.37,156.263,291.294z"/>
			<path style="fill:#00298B;" d="M148.908,279.202c-0.593,0.343-10.173,3.622-10.096,1.395c-0.145,4.255-1.723,8.448-4.419,11.742
				c0.068-2.996-0.003-5.996-0.211-8.986c-1.275,3.344-2.282,6.92-1.812,10.468c0.475,3.585,3.11,6.774,4.514,10.073
				c0.73,1.715,1.011,3.922-0.284,5.263c-0.724,0.75-1.784,1.054-2.667,1.61c-1.406,0.885-2.346,2.471-2.448,4.129
				c-0.603-1.164-1.216-2.355-1.408-3.651c-0.192-1.297,0.111-2.742,1.094-3.609c-1.801,1.572-3.728,3.552-3.507,5.932
				c0.209,2.254,2.255,3.825,4.122,5.105c1.468,1.006,5.255,3.101,3.433,5.53c-0.289,0.393-0.775,0.728-0.775,1.214
				c-0.012,0.474,0.428,0.821,0.809,1.099c1.434,1.098,2.59,2.544,3.353,4.174c-0.104-0.116-0.22-0.22-0.324-0.324
				c-1.896-1.838-4.509-2.856-6.822-4.058c-3.191-1.676-6.232-3.63-9.088-5.827c-1.26-0.96-2.509-2.047-3.469-3.307
				c-0.231-1.191-0.266-2.417-0.104-3.619c0.577-4.287,3.841-7.686,7.535-9.688c0.699-0.379,1.455-0.715,1.965-1.326
				c0.628-0.752,0.776-1.814,0.618-2.781c-0.778-4.76-4.664-8.227-5.366-13.111c-0.624-4.417,1.711-9.643,6.105-10.487
				c0.856-0.162,1.943-0.046,2.301,0.752l0.705-2.775l0.081-0.335c1.041-1.214,2.266-2.278,3.608-3.145
				c2.15-1.387,4.625-2.289,7.169-2.567c1.792-0.197,3.654-0.092,5.296,0.636c1.642,0.729,3.041,2.139,3.457,3.885
				C152.874,275.19,151.198,277.884,148.908,279.202z"/>
		</g>
		<g>
			<g>
				<rect x="210.067" y="131.912" style="fill:#00389A;" width="239.557" height="134.599"/>
				<rect x="215.317" y="137.162" style="fill:#FFFFFF;" width="229.058" height="124.099"/>
				<rect x="215.317" y="137.162" style="fill:#C8D4FF;" width="229.058" height="4.125"/>
				<path style="fill:#F0863F;" d="M428.399,197.419c0,17.826-14.449,32.275-32.275,32.275c-10.602,0-20.021-5.12-25.899-13.022
					c-4.01-5.373-6.375-12.038-6.375-19.253c0-1.111,0.054-2.212,0.171-3.287c0.551-5.436,2.447-10.476,5.346-14.774
					c5.815-8.57,15.632-14.214,26.757-14.214C413.951,165.144,428.399,179.601,428.399,197.419z"/>
				<path style="fill:#00389A;" d="M396.124,165.144v32.275l-32.104-3.287c0.551-5.436,2.447-10.476,5.346-14.774
					C375.182,170.788,384.999,165.144,396.124,165.144z"/>
				<path style="fill:#C8D4FF;" d="M396.115,197.419c-1.092,0-17.447,12.661-25.89,19.253c-4.01-5.373-6.375-12.038-6.375-19.253
					c0-6.683,2.041-12.905,5.518-18.061L396.115,197.419z"/>
				<path style="fill:#00389A;" d="M384.38,198.193c-7.191,0.046-14.399,0.749-21.508,1.812c-0.493,0.074-0.284,0.825,0.207,0.751
					c7.065-1.077,14.164-1.621,21.301-1.916C384.794,198.822,384.798,198.19,384.38,198.193z"/>
				<path style="fill:#00389A;" d="M366.489,197.113c-0.757,0.408-1.486,0.857-2.19,1.352c-0.326,0.229-0.646,0.466-0.961,0.709
					c-0.299,0.231-0.688,0.462-0.888,0.792c-0.506,0.832,0.552,1.255,1.123,1.542c0.824,0.415,1.641,0.885,2.504,1.212
					c0.386,0.146,0.593-0.437,0.271-0.643c-0.641-0.41-1.35-0.719-2.029-1.059c-0.346-0.173-0.699-0.337-1.039-0.522l-0.191-0.119
					l0.237-0.24c1.089-0.917,2.274-1.724,3.492-2.461C367.178,197.458,366.859,196.913,366.489,197.113z"/>
				<path style="fill:#00389A;" d="M402.909,208.806c1.033-0.24,1.918,0.539,2.602,1.213c0.609,0.602,1.194,1.23,1.762,1.871
					c1.209,1.362,2.328,2.801,3.358,4.303c1.997,2.914,3.65,6.068,4.892,9.376c0.714,1.9,1.238,3.842,1.749,5.803
					c0.112,0.429,0.738,0.245,0.657-0.181c-0.707-3.705-2.152-7.347-3.882-10.687c-1.749-3.374-3.934-6.521-6.488-9.335
					c-1.171-1.29-2.823-3.507-4.824-2.995C402.325,208.277,402.498,208.901,402.909,208.806z"/>
				<path style="fill:#00389A;" d="M412.551,228.2c0.796,0.616,1.6,1.223,2.403,1.83c0.405,0.306,0.811,0.612,1.216,0.918
					c0.323,0.245,0.656,0.516,1.063,0.602c0.376,0.079,0.765-0.025,0.991-0.351c0.25-0.359,0.272-0.872,0.351-1.29
					c0.19-1.002,0.421-2.006,0.54-3.018c0.046-0.399-0.593-0.469-0.691-0.094c-0.219,0.84-0.344,1.71-0.502,2.563
					c-0.076,0.407-0.125,0.83-0.232,1.229c-0.101,0.374-0.391,0.241-0.652,0.083c-0.701-0.422-1.343-0.99-1.998-1.481
					c-0.688-0.515-1.375-1.029-2.068-1.536C412.657,227.426,412.239,227.96,412.551,228.2z"/>
				<path style="fill:#00389A;" d="M388.82,176.846c-1.558-6.055,1.745-11.937,4.723-16.98c0.228-0.387-0.374-0.738-0.602-0.352
					c-3.061,5.177-6.449,11.299-4.754,17.506C388.298,177.428,388.926,177.256,388.82,176.846z"/>
				<path style="fill:#00389A;" d="M389.078,161.74c1.509-1.36,3.388-2.281,5.415-2.519c-0.105-0.184-0.211-0.367-0.316-0.551
					c-0.767,1.329-1.177,2.832-1.192,4.366c-0.004,0.479,0.74,0.479,0.744,0c0.011-1.406,0.381-2.776,1.081-3.997
					c0.125-0.218-0.029-0.585-0.316-0.551c-2.199,0.263-4.313,1.206-5.892,2.773C388.291,161.57,388.757,162.029,389.078,161.74z"/>
				<path style="fill:#00389A;" d="M398.249,153.248c4.312,0.068,8.625,0.037,12.938,0.039c4.31,0.002,8.628,0.081,12.938-0.023
					c0.452-0.011,0.453-0.692,0-0.703c-4.309-0.104-8.627-0.026-12.938-0.023c-4.312,0.002-8.626-0.029-12.938,0.039
					C397.817,152.583,397.816,153.241,398.249,153.248z"/>
				<path style="fill:#00389A;" d="M398.624,160.743c4.865,0.182,9.757,0.05,14.625,0.052c4.875,0.002,9.75,0.034,14.625-0.027
					c0.458-0.006,0.459-0.707,0-0.713c-4.875-0.061-9.75-0.029-14.625-0.027c-4.868,0.002-9.76-0.13-14.625,0.052
					C398.198,160.097,398.198,160.728,398.624,160.743z"/>
				<path style="fill:#00389A;" d="M403.124,236.114c4.746,0.139,9.503,0.059,14.25,0.063c4.75,0.004,9.5,0.013,14.25-0.032
					c0.46-0.004,0.461-0.711,0-0.716c-4.75-0.044-9.5-0.036-14.25-0.032c-4.747,0.004-9.504-0.076-14.25,0.063
					C402.704,235.473,402.703,236.102,403.124,236.114z"/>
				<path style="fill:#00389A;" d="M402.374,241.911c2.311-0.188,4.649-0.108,6.968-0.11c2.24-0.001,4.479-0.002,6.719-0.003
					c4.563-0.002,9.125,0.008,13.688-0.04c0.444-0.004,0.445-0.686,0-0.69c-4.563-0.048-9.125-0.038-13.688-0.04
					c-2.24-0.001-4.479-0.002-6.719-0.003c-2.319-0.002-4.658,0.079-6.968-0.11C401.733,240.861,401.732,241.963,402.374,241.911z"
					/>
				<path style="fill:#00389A;" d="M402.374,248.872c4.31,0.104,8.626,0.053,12.938,0.053c4.313-0.001,8.625,0.02,12.938-0.026
					c0.464-0.005,0.465-0.717,0-0.722c-4.312-0.046-8.625-0.026-12.938-0.026c-4.311-0.001-8.628-0.051-12.938,0.053
					C401.944,248.213,401.943,248.861,402.374,248.872z"/>
				<path style="fill:#00389A;" d="M228.749,154.031c3.697,0.174,7.41,0.111,11.111,0.118c3.704,0.007,7.407,0.016,11.111,0.019
					c7.324,0.007,14.648,0.006,21.972,0.003c4.161-0.001,8.323-0.017,12.484-0.056c0.583-0.005,0.584-0.912,0-0.906
					c-1.018,0.009-2.036,0.021-3.054,0.039c-0.533,0.01-0.534,0.818,0,0.828c1.018,0.019,2.036,0.03,3.054,0.039
					c0.583,0.006,0.584-0.901,0-0.906c-14.73-0.138-29.464-0.064-44.194-0.036c-4.158,0.008-8.331-0.075-12.484,0.121
					C228.275,153.316,228.274,154.008,228.749,154.031z"/>
				<path style="fill:#00389A;" d="M231.374,170.661c2.064-0.145,4.159-0.081,6.228-0.081c1.993,0.001,3.986,0.001,5.979,0.002
					c4.069,0.001,8.138,0.003,12.208,0.004c8.138,0.003,16.276,0.003,24.415,0.002c4.567-0.001,9.134-0.021,13.702-0.055
					c0.478-0.003,0.479-0.746,0-0.742c-0.593,0.004-1.187,0.009-1.781,0.013c-0.46,0.003-0.461,0.712,0,0.716
					c0.594,0.004,1.188,0.009,1.781,0.013c0.478,0.003,0.479-0.739,0-0.742c-16.275-0.122-32.553-0.056-48.829-0.049
					c-2.242,0.001-4.484,0.001-6.727,0.002c-2.317,0.001-4.664,0.083-6.976-0.081C230.733,169.619,230.732,170.706,231.374,170.661z
					"/>
				<path style="fill:#00389A;" d="M230.249,181.4c4.327,0.162,8.671,0.083,13,0.089c4.333,0.006,8.667,0.013,13,0.012
					c8.667-0.001,17.333-0.003,26-0.004c4.917,0,9.833-0.036,14.75-0.087c0.478-0.005,0.479-0.739,0-0.744
					c-8.667-0.091-17.333-0.088-26-0.089c-8.667-0.001-17.333-0.004-26,0.007c-4.912,0.006-9.841-0.092-14.75,0.092
					C229.783,180.692,229.782,181.383,230.249,181.4z"/>
				<path style="fill:#00389A;" d="M230.249,191.88c2.406,0.131,4.829,0.085,7.238,0.098c2.454,0.013,4.909,0.026,7.363,0.034
					c4.825,0.016,9.65,0.014,14.476,0.015c9.692,0.001,19.384,0.007,29.077-0.014c5.491-0.012,10.981-0.038,16.472-0.086
					c0.5-0.004,0.501-0.774,0-0.778c-9.692-0.085-19.384-0.091-29.076-0.095c-9.692-0.004-19.384-0.028-29.077,0.003
					c-2.745,0.009-5.491,0.02-8.236,0.035c-2.741,0.015-5.5-0.045-8.236,0.104C229.809,191.219,229.808,191.856,230.249,191.88z"/>
				<path style="fill:#00389A;" d="M232.124,216.633c3.321,0.111,6.653,0.05,9.976,0.059c3.367,0.008,6.734,0.016,10.101,0.018
					c6.692,0.005,13.384,0.009,20.076,0.008c3.741-0.001,7.481-0.017,11.223-0.058c0.478-0.005,0.479-0.739,0-0.744
					c-13.382-0.146-26.77-0.068-40.152-0.035c-3.737,0.009-7.487-0.063-11.223,0.062
					C231.68,215.957,231.679,216.618,232.124,216.633z"/>
				<path style="fill:#00389A;" d="M230.999,228.23c1.82,0.127,3.663,0.074,5.488,0.083c1.829,0.009,3.658,0.018,5.488,0.021
					c3.617,0.004,7.234,0.013,10.851,0.014c7.275,0.001,14.551,0.003,21.826,0.005c4.074,0.001,8.149,0.027,12.223-0.041
					c0.513-0.009,0.514-0.788,0-0.797c-7.273-0.122-14.552-0.04-21.826-0.038c-7.275,0.001-14.551,0.005-21.826,0.015
					c-1.996,0.003-3.991,0.008-5.987,0.018c-2.072,0.011-4.168-0.058-6.236,0.087C230.592,227.624,230.591,228.201,230.999,228.23z"
					/>
				<path style="fill:#00389A;" d="M233.624,242.661c1.887-0.227,3.852-0.074,5.75-0.06c1.833,0.013,3.667,0.011,5.5,0.016
					c3.667,0.009,7.333,0.011,11,0.012c7.417,0.002,14.833,0.014,22.25,0.001c4.167-0.007,8.333-0.066,12.5-0.099
					c0.475-0.003,0.475-0.734,0-0.737c-14.833-0.114-29.667-0.124-44.5-0.088c-2.083,0.005-4.167,0.004-6.25,0.015
					c-2.062,0.01-4.201,0.191-6.25-0.056C232.984,241.587,232.983,242.738,233.624,242.661z"/>
				<path style="fill:#00389A;" d="M324.374,188.125c4.372,0.104,8.751,0.056,13.125,0.061c4.374,0.005,8.751,0.04,13.125-0.04
					c0.46-0.009,0.461-0.707,0-0.716c-4.374-0.081-8.751-0.046-13.125-0.041c-4.374,0.005-8.753-0.043-13.125,0.061
					C323.94,187.46,323.939,188.114,324.374,188.125z"/>
				<path style="fill:#00389A;" d="M323.249,180.98c2.558,0.18,5.156,0.073,7.719,0.077c2.614,0.003,5.229,0.004,7.843,0.006
					c5.188,0.004,10.375,0.032,15.563-0.024c0.484-0.005,0.485-0.748,0-0.753c-5.187-0.056-10.375-0.028-15.563-0.024
					c-2.573,0.002-5.146,0.004-7.719,0.006c-2.604,0.002-5.245-0.106-7.843,0.077C322.842,180.374,322.841,180.951,323.249,180.98z"
					/>
				<path style="fill:#00389A;" d="M322.87,195.544c10.36,0.3,20.777-0.114,31.113-0.829c0.521-0.036,0.524-0.853,0-0.815
					c-10.366,0.744-20.724,0.928-31.113,0.966C322.433,194.867,322.434,195.531,322.87,195.544z"/>
				<path style="fill:#00389A;" d="M360.001,236.196c5.499-0.149,10.998-0.303,16.497-0.461c0.496-0.014,0.497-0.787,0-0.772
					c-5.499,0.163-10.998,0.329-16.497,0.501C359.531,235.479,359.529,236.209,360.001,236.196z"/>
				<path style="fill:#00389A;" d="M361.942,240.396c-0.626-0.207-1.238-0.05-1.71,0.403c-0.223,0.214-0.048,0.585,0.245,0.592
					c5.329,0.135,10.715-0.256,16.009-0.834c0.494-0.054,0.5-0.835,0-0.781c-5.331,0.582-10.653,0.777-16.009,0.921
					c0.082,0.197,0.163,0.395,0.245,0.592c0.294-0.311,0.644-0.411,1.055-0.297C362.164,241.099,362.318,240.52,361.942,240.396z"/>
				<path style="fill:#00389A;" d="M335.999,158.892c2.748,0.065,5.501,0.026,8.25,0.031c1.333,0.003,2.667,0.005,4,0.007
					c1.395,0.002,2.864,0.133,4.25-0.033c0.461-0.055,0.462-0.664,0-0.719c-1.346-0.161-2.771-0.036-4.125-0.033
					c-1.375,0.002-2.75,0.005-4.125,0.007c-2.749,0.005-5.502-0.035-8.25,0.031C335.543,158.193,335.542,158.881,335.999,158.892z"
					/>
				<path style="fill:#00389A;" d="M337.874,163.048c5.374,0.06,10.75,0.029,16.125,0.031c0.537,0.001,0.538-0.835,0-0.834
					c-5.375,0.002-10.751-0.028-16.125,0.031C337.378,162.282,337.377,163.043,337.874,163.048z"/>
			</g>
			<g>
				<g>
					<path style="fill:#F1A04C;" d="M341.424,203.422c0,0.114-0.011,0.228-0.044,0.354l-4.623,19.145
						c-0.229,0.987-1.003,1.67-1.886,1.67h-11.449c-0.632,0-1.112-0.607-1.112-1.291c0-0.114,0.011-0.228,0.044-0.354l4.623-19.145
						c0.229-0.987,1.003-1.67,1.886-1.67h11.449C340.944,202.132,341.424,202.739,341.424,203.422z"/>
					<path style="fill:#0000B3;" d="M340.312,200.866h-11.449c-1.363,0-2.573,1.063-2.944,2.594l-4.612,19.145
						c-0.065,0.228-0.087,0.468-0.087,0.696c0,1.367,0.96,2.556,2.202,2.556h11.449c1.363,0,2.573-1.063,2.944-2.594l4.612-19.145
						c0.065-0.228,0.087-0.468,0.087-0.696C342.514,202.056,341.555,200.866,340.312,200.866z M341.38,203.776l-4.623,19.145
						c-0.229,0.987-1.003,1.67-1.886,1.67h-11.449c-0.632,0-1.112-0.607-1.112-1.291c0-0.114,0.011-0.228,0.044-0.354l4.623-19.145
						c0.229-0.987,1.003-1.67,1.886-1.67h11.449c0.632,0,1.112,0.607,1.112,1.291C341.424,203.536,341.413,203.65,341.38,203.776z"
						/>
					<path style="fill:#00389A;" d="M334.389,314.594c-1.05,18.45-6.556,83.108-6.556,83.108l-5.885-0.326l-3.176-0.176
						c0,0-4.032-44.823-3.529-49.861c0.503-5.038,3.027-10.579,3.027-10.579l-3.459-25.676l-0.071-0.512
						c0,0-2.012,7.05-7.553,26.691c-5.541,19.641-11.585,58.429-11.585,59.938c0,0.468-0.935,0.697-2.232,0.785
						c-2.823,0.194-7.332-0.282-7.332-0.282s1.006-33.238,1.509-43.817c0.503-10.579,6.547-14.612,6.547-14.612
						c0.009-0.459,0.026-0.909,0.035-1.368c0.106-4.421,0.45-18.688,0.697-29.02c0.15-6.291,0.265-11.126,0.273-11.4
						c0.079-3.194-2.285-5.956-2.065-9.715c0.018-0.273,0.035-0.538,0.053-0.812c0.379-4.588,1.588-9.123,3.52-13.297
						c0.432-0.926,0.891-1.835,1.394-2.717c0.044-0.079,0.38-0.132,0.935-0.176c3.574-0.256,16.253,0.247,18.097,0.203
						c5.109-0.132,10.226-0.132,15.335-0.194C332.369,270.777,335.898,287.903,334.389,314.594z"/>
					<path style="fill:#00298B;" d="M325.195,395.046c-1.032,0.847-2.118,1.624-3.247,2.329l-3.176-0.176
						c0,0-4.032-44.823-3.529-49.861c0.503-5.038,3.027-10.579,3.027-10.579l-3.459-25.676c0.035-0.194,0.062-0.397,0.097-0.591
						c-2.559,0.079-5.126,0.159-7.694,0.229c-3.106,10.756-5.612,21.688-7.509,32.717c-5.329,4.138-6.803,11.506-7.35,18.229
						c-0.988,12.097-0.247,24.247,1.015,36.317c-2.823,0.194-7.332-0.282-7.332-0.282s1.006-33.238,1.509-43.817
						c0.503-10.579,6.547-14.612,6.547-14.612c0.009-0.459,0.026-0.909,0.035-1.368c0.256-9.662,0.706-19.35,0.697-29.02
						c0.15-6.291,0.265-11.126,0.273-11.4c0.079-3.194-2.285-5.956-2.065-9.715c0.018-0.273,0.035-0.538,0.053-0.812
						c0.379-4.588,1.588-9.123,3.52-13.297c0.432-0.926,0.891-1.835,1.394-2.717c0.044-0.079,0.38-0.132,0.935-0.176
						c6.238,2.312,12.529,3.626,19.411,4.544c3.618,0.38,7.412,0.521,10.773-0.873c-7.006,9.785-8.523,21.714-8.179,33.414
						c0.106,3.697,0.6,7.359,1.085,11.02c0.671,5.012,1.35,10.015,2.021,15.026c0.132,0.988,0.265,1.976,0.229,2.974
						c-0.062,1.562-0.529,3.07-0.953,4.57C318.366,358.923,319.028,377.955,325.195,395.046z"/>
					<path style="fill:#ACBEFF;" d="M318.772,397.199l-1.007,13.095h10.383c-1.489-4.248-2.449-8.496-3.06-12.744L318.772,397.199z"
						/>
					<path style="fill:#C8D4FF;" d="M327.838,397.703l-2.751-0.153c0.611,4.248,1.571,8.496,3.06,12.744h10.771L327.838,397.703z"/>
					<path style="fill:#FFCE89;" d="M317.695,183.293l-1.262,2.488l-0.494,8.603l-2.1,0.644l-1.041,0.318v10.218l-10.597,1.385
						c0,0-0.353-3.044-0.724-5.903c-0.282-2.223-0.582-4.341-0.741-4.844c-0.353-1.156-8.956-10.094-8.956-16.217
						c0-4.359,7.5-12.088,14.082-13.632c2.647-0.626,5.135-0.256,6.935,1.729l2.471,7.773v2.647L317.695,183.293z"/>
					<path style="fill:#FFAE65;" d="M313.816,195.004c-0.968,0.488-2.105,0.8-3.152,1.16c-0.246,0.084-0.501,0.175-0.682,0.362
						c-0.138,0.142-0.22,0.327-0.297,0.51c-0.873,2.067-1.444,4.262-1.688,6.493c0.048-0.533-5.848-1.806-6.378-2.382
						c-0.864-0.94-0.474-3.651-0.882-4.945c-0.353-1.156-8.956-10.094-8.956-16.217c0-4.359,7.5-12.088,14.082-13.632l7.2,4.077
						c0.926,2.559,0.035,5.665-2.109,7.35c0.671,3.697,1.094,7.438,1.253,11.188c0.062,1.269,0.088,2.555,0.431,3.771
						C312.873,193.57,313.243,194.35,313.816,195.004z"/>
					<path style="fill:#00389A;" d="M314.863,169.608c-0.926,2.815-3.856,4.015-4.87,6.282c-0.027,0.071-0.062,0.141-0.088,0.221
						c-0.644,1.676-0.018,4.712-0.018,6.538c0,0,0-0.759-1.756-1.518c-0.565-0.238-1.05-0.273-1.421-0.097
						c-0.803,0.353-1.112,1.65-0.6,3.882c0.759,3.273,3.274,1.509,3.274,1.509l0.503,9.565c0,0-4.526,3.785-7.8,2.02
						c-3.273-1.765-13.35-17.885-13.35-17.885s3.997-7.985,4.032-8.056c0.053-0.106-0.335-1.085-0.344-1.271
						c-0.018-0.256,0-0.503,0.044-0.732c0.009-0.009,0.009-0.009,0.009-0.009c0.168-0.988,0.812-1.8,1.562-2.488
						c3.688-3.388,10.65-3.009,15.273-4.015c2.029-0.441,4.006-1.121,5.876-2.029C315.648,164.217,315.719,167.022,314.863,169.608z
						"/>
					<path style="fill:#C8D4FF;" d="M335.042,275.63c-0.079,0.035-0.168,0.071-0.247,0.097c-9.397,3.82-19.782,4.579-29.92,4.085
						c-2.947-0.141-6.009-0.432-8.815-1.315c-1.879-0.6-3.653-1.465-5.188-2.735c2.276-3.035,3.944-6.529,4.879-10.209
						c-0.979-0.644-1.968-1.288-2.956-1.932c0.379-1.324,1.959-2.109,2.1-3.477c0.053-0.494-0.088-0.979-0.238-1.447
						c-1.368-4.421-2.991-8.832-4.165-13.306c-1.191-4.526-1.756-9.318-2.559-13.923c-1.023-5.806-2.753-12.168-2.568-18.106
						c0.106-3.115,1.05-5.806,3.221-7.915c2.727-2.638,7.394-4.359,14.744-4.844c13.191-0.882,24.185,2.638,26.717,7.474
						c1.121,2.144,0.971,5.4,1.147,7.729c0.697,9.132,0.838,18.317,0.997,27.476c0.079,4.826,0.265,9.679,0.177,14.506
						C332.254,263.674,334.425,269.701,335.042,275.63z"/>
					<path style="fill:#ACBEFF;" d="M319.618,209.547c-0.307,0.317-0.318,0.809-0.305,1.25c0.211,7.286,1.81,14.451,3.402,21.564
						c0.543,2.425,1.085,4.85,1.628,7.275c1.963-2.487,3.948-5.011,5.201-7.92c1.254-2.909,1.712-6.299,0.546-9.245
						c-0.483-1.219-1.222-2.318-1.955-3.405c-0.721-1.07-1.442-2.139-2.163-3.209c-0.358-0.531-0.877-1.132-1.502-0.994
						L319.618,209.547z"/>
					<path style="fill:#ACBEFF;" d="M286.034,397.703l-3.022,10.073h12.684c-1.653-3.277-2.816-6.796-3.571-10.394L286.034,397.703z
						"/>
					<path style="fill:#C8D4FF;" d="M295.603,397.199l-3.478,0.183c0.754,3.598,1.917,7.117,3.571,10.394h10.484L295.603,397.199z"
						/>
					<g>
						<polygon style="fill:#0000B3;" points="363.012,202.152 345.808,206.76 345.464,205.474 362.667,200.866 364.285,201.122 
													"/>
					</g>
					<path style="fill:#FFCE89;" d="M362.308,206.411c-0.619,1.186-0.882,2.413-1.344,3.65c-0.037,0.098-0.075,0.197-0.114,0.295
						c-0.529,1.32-1.239,2.567-2.108,3.692c-0.037,0.048-0.078,0.098-0.136,0.118c-0.06,0.02-0.125,0.002-0.185-0.015
						c-0.763-0.223-1.283-0.101-2.056-0.144c-0.272-0.016-2.007-0.294-2.041-0.632c-0.163-1.624-0.375-3.243-0.636-4.854
						c-0.284-1.754-0.937-3.624-0.468-5.393c0.149-0.562,0.386-1.097,0.634-1.623c0.272-0.576,0.558-1.144,0.859-1.705
						c0.229-0.428,0.523-0.894,0.999-0.992c0.511-0.105,1,0.271,1.304,0.695c0.304,0.424,0.515,0.924,0.905,1.27
						c0.396-0.2,0.659-0.789,1.085-0.666c0.106,0.031,0.193,0.105,0.275,0.18c0.526,0.484,0.952,1.075,1.245,1.727
						c0.609-0.151,1.236,0.31,1.491,0.884C362.453,203.883,362.82,205.43,362.308,206.411z"/>
					<path style="fill:#C8D4FF;" d="M358.963,215.842c-0.079,2.232-0.988,4.65-1.438,6.653c-0.909,4.085-2.038,8.876-3.185,13.103
						c-0.018,0.053-0.035,0.115-0.044,0.168c-0.997,3.653-2.003,6.874-2.903,8.832c-0.053,0.123-0.115,0.247-0.176,0.371
						c-0.053,0.124-0.123,0.247-0.185,0.37c-3.309,6.141-6.609,5.197-6.609,5.197s-11.338-13.226-19.367-24.088
						c-2.621-3.538-4.862-7.597-5.744-11.215c-1.359-5.541,0.477-10.041,9.053-10.041c2.356,0,15.088,23.276,15.088,23.276
						c1.368-2.162,2.735-4.332,4.103-6.494c1.156-1.835,2.444-3.635,3.494-5.532c1.032-1.879,1.712-4.094,2.577-6.088
						c0.053-0.115,0.106-0.229,0.212-0.291c0.106-0.053,0.221-0.053,0.335-0.035c1.403,0.168,2.726,0.882,3.626,1.959
						c0.15,0.176,0.282,0.362,0.397,0.556c0.15,0.229,0.273,0.477,0.379,0.732C358.901,214.078,358.998,214.942,358.963,215.842z"/>
					<path style="fill:#ACBEFF;" d="M334.795,275.727c-9.397,3.82-19.782,4.579-29.92,4.085c-2.947-0.141-6.009-0.432-8.815-1.315
						c-1.879-0.6-3.653-1.465-5.188-2.735c2.276-3.035,3.944-6.529,4.879-10.209c-0.979-0.644-1.968-1.288-2.956-1.932
						c0.379-1.324,1.959-2.109,2.1-3.477c0.053-0.494-0.088-0.979-0.238-1.447c-1.368-4.421-2.991-8.832-4.165-13.306
						c-1.191-4.526-1.756-9.318-2.559-13.923c-1.023-5.806-2.753-12.168-2.568-18.106c0.106-3.115,1.05-5.806,3.221-7.915
						c1.2,6.026,2.903,11.947,5.082,17.682c0.335,0.891,0.688,1.791,1.279,2.532c0.847,1.059,2.1,1.694,3.3,2.303
						c2.276,1.138,4.544,2.285,6.812,3.423c0.662,0.335,1.332,0.679,1.844,1.209c0.565,0.609,0.882,1.403,1.156,2.188
						c0.697,1.968,1.235,3.979,1.606,6.026c1.191,6.494,0.882,13.606,4.544,19.094c-5.047,1.129-10.094,2.25-15.141,3.371
						c7.8,4.103,17.47-0.794,26.091,1.041c-6.785,3.141-14.065,5.241-21.485,6.203C313.522,274.306,324.296,274.368,334.795,275.727
						z"/>
					<path style="fill:#ACBEFF;" d="M358.963,215.842c-0.027,0.159-0.062,0.318-0.097,0.476c-0.45,1.95-0.953,4.138-1.429,6.159
						c-0.803,3.371-1.509,6.282-1.659,6.856c-0.521,2.038-0.962,4.156-1.438,6.265c-0.018,0.053-0.035,0.115-0.044,0.168
						c-0.706,3.044-1.526,6.07-2.903,8.832c-0.053,0.123-0.115,0.247-0.176,0.371c-0.053,0.124-0.123,0.247-0.185,0.37
						c-3.309,6.141-6.609,5.197-6.609,5.197s-11.338-13.226-19.367-24.088c-2.621-3.538-4.862-7.597-5.744-11.215
						c1.262,1.544,2.647,2.991,4.138,4.315c1.862,1.65,4.156,2.762,5.991,4.438c1.747,1.588,2.921,3.741,4.412,5.585
						c3.556,4.403,7.447,8.541,11.612,12.37c4.8-9.547,9.053-19.367,12.732-29.4c0.15,0.229,0.273,0.477,0.379,0.732
						C358.901,214.078,358.998,214.942,358.963,215.842z"/>
					<path style="fill:#00389A;" d="M315.329,179.944c0,0.62-0.16,1.124-0.358,1.124c-0.198,0-0.358-0.503-0.358-1.124
						c0-0.621,0.16-1.124,0.358-1.124C315.168,178.821,315.329,179.324,315.329,179.944z"/>
				</g>
				<path style="fill:#C8D4FF;" d="M298.789,202.719c-0.045-1.691-0.004-3.384,0.122-5.071c0.016-0.216,0.045-0.455,0.208-0.598
					c0.124-0.109,0.299-0.136,0.463-0.158c5.478-0.717,11.378-0.368,16.01,2.643c0.171,0.111,0.344,0.23,0.451,0.404
					c0.14,0.228,0.142,0.513,0.138,0.781c-0.012,0.942-0.035,1.883-0.068,2.824c-0.206,0.001-0.412,0.002-0.619,0.003
					L298.789,202.719z"/>
				<path style="fill:#00298B;" d="M309.887,195.99c0,0-4.526,3.785-7.8,2.02c-3.273-1.765-13.35-17.885-13.35-17.885
					s3.997-7.985,4.032-8.056c0.053-0.106-0.335-1.085-0.344-1.271c-0.018-0.256,0-0.503,0.053-0.741
					c0.132-0.141,0.274-0.265,0.424-0.371c0.9-0.618,2.047-0.706,3.141-0.803c3.997-0.362,7.959-1.173,11.779-2.409
					c-2.144,1.403-4.297,2.815-6.45,4.218c2.788-0.238,5.523-1.006,8.029-2.25c-1.138,1.863-4.839,6.7-7.435,6.46
					c1.701,0.157,3.439-0.108,5.016-0.764c-0.648,1.247-1.459,2.409-2.405,3.448c0.837,1.053,1.434,2.292,2.176,3.369
					c-1.264,0.845-0.937,2.695-0.643,3.96c0.759,3.273,3.273,1.509,3.273,1.509L309.887,195.99z"/>
			</g>
		</g>
		<path style="fill:#00298B;" d="M536.485,306.228h63.979v0.001c0,1.74-1.41,3.15-3.15,3.15h-60.829V306.228z"/>
		<g>
			<g>
				<path style="fill:#C8D4FF;" d="M525.67,435.707c0,0-2.479-2.623-8.289,0c-8.287,3.741-20.698,13.133-19.691,13.133
					c1.713,0,29.693-1.142,29.693-1.142L525.67,435.707z"/>
				<path style="fill:#C8D4FF;" d="M560.082,435.707l-13.284,13.13l11.964,0.026c1.194-4.413,2.75-8.751,4.754-12.998
					L560.082,435.707z"/>
				<path style="fill:#ACBEFF;" d="M568.709,436.106l-5.194-0.24c-2.004,4.247-3.56,8.585-4.754,12.998l12.199,0.027
					L568.709,436.106z"/>
				<g>
					<path style="fill:#00298B;" d="M526.42,288.402c-5.164,0.871-9.478,6.498-8.728,8.186c2.251,2.626,8.253-2.813,8.253-2.813
						L526.42,288.402z"/>
					<path style="fill:#FFCE89;" d="M524.992,289.973c-0.465-4.755-0.934-9.276-2.057-15.667c-0.616-0.066-1.4-0.041-1.649,0.526
						c-0.117,0.266-0.067,0.57-0.021,0.857c0.372,2.307,0.417,4.666,0.134,6.985c-2.125-2.127-4.07-4.434-5.807-6.888
						c-1.425-2.012-2.691-4.347-4.053-6.453c-0.396,0.11-0.792,0.219-1.188,0.329c1.006,3.634,2.565,7.114,4.609,10.283
						c-2.251-2.999-5.268-6.696-7.927-9.34c-0.502-0.279-1.144,0.242-1.209,0.812c-0.065,0.57,0.241,1.11,0.536,1.602
						c1.449,2.416,3.457,5.706,5.284,7.85c-2.244-2.332-4.488-4.664-6.732-6.996c-0.554,0.336-0.739,1.084-0.606,1.718
						c0.133,0.634,0.516,1.182,0.89,1.711c1.738,2.454,3.477,4.907,5.215,7.361c-1.79-0.851-3.435-1.622-4.948-2.9
						c-0.282-0.238-0.578-0.483-0.938-0.564c-0.36-0.08-0.799,0.065-0.924,0.412c-0.134,0.371,0.132,0.757,0.382,1.063
						c2.311,2.825,5.102,4.284,8.144,6.248c1.757,1.134,3.567,2.877,5.689,3.079c1.041,2.184,3.031,4.681,4.071,6.865
						c1.273-2.485,2.355-5.256,4.057-7.488L524.992,289.973z"/>
					<path style="fill:#00298B;" d="M575.434,305.328c-7.8,10.08-31.6,24.74-31.6,24.74s-7.23-0.19-7.99-1.14
						c-4.22-5.27-16.23-28.86-18.15-32.34c1.91,0.02,4.56-1.52,6.44-3.66c1.2-1.35,2.09-2.94,2.29-4.53l18.18,26.82l23.17-31.2
						c1.71-0.23,3.84,0.76,5.74,2.53C577.744,290.498,580.824,298.358,575.434,305.328z"/>
					<path style="fill:#00389A;" d="M573.514,286.548c-0.83,1.94-1.99,4.09-3.36,5.32c-2.93,2.63-25.75,29-25.75,29v3.72l-2.28-2.51
						l-17.99-29.15c1.2-1.35,2.09-2.94,2.29-4.53l18.18,26.82l23.17-31.2C569.484,283.788,571.614,284.777,573.514,286.548z"/>
				</g>
				<g>
					<polygon style="fill:#00298B;" points="620.834,375.784 632.554,448.286 629.876,448.784 618.156,376.282 					"/>
					<polygon style="fill:#00298B;" points="576.075,375.784 587.795,448.286 585.118,448.784 573.398,376.282 					"/>
					<polygon style="fill:#00298B;" points="548.923,375.784 551.601,376.282 539.881,448.784 537.203,448.286 					"/>
					<polygon style="fill:#00298B;" points="593.682,375.784 596.36,376.282 584.64,448.784 581.962,448.286 					"/>
					<path style="fill:#F0863F;" d="M640.864,326.478c-0.29,35.57-6.35,49.81-17.63,54.84c-1.39,0.62-2.86,1.1-4.41,1.46
						c-32.72,7.64-78.74-2.43-77.11-12.51c1.62-10.08,19.44-2.78,27.54-6.26c8.1-3.47,5.51-40.66,17.49-56.99
						c4.13-5.62,11.86-9.8,20.21-11.23C622.874,293.038,641.074,300.267,640.864,326.478z"/>
					<path style="fill:#F1A04C;" d="M640.864,326.478c-0.29,35.57-6.35,49.81-17.63,54.84c3.29-3.84,7.32-9.6,9.32-16.49
						c3.71-12.77,5.15-44.08,0-54.83c-3.74-7.81-13.35-12.56-25.6-14.21C622.874,293.038,641.074,300.267,640.864,326.478z"/>
				</g>
				<path style="fill:#00389A;" d="M600.875,353.213c-0.33,0.75-0.7,1.48-1.11,2.181c-3.561,6.262-9.883,10.764-16.656,13.395
					c-7.372,2.861-15.765,4.161-23.598,4.832c-1.14,0.1-15.065-0.17-15.555-1.28c0.1,0.33,1.701,5.782,1.701,8.553
					c0,2.851-18.846,57.099-18.846,57.099l-6.972-0.16l-6.682-0.15c0,0,9.083-79.067,18.796-81.348
					c9.863-2.321,19.697-4.732,29.55-7.122c7.733-1.871,15.025-3.831,22.448-4.011c4.902-0.12,9.863,0.54,15.045,2.521
					c0.74,0.29,1.521,0.62,2.011,1.26C601.906,350.162,601.476,351.852,600.875,353.213z"/>
				<path style="fill:#00298B;" d="M599.765,355.393c-3.561,6.262-9.883,10.764-16.656,13.395
					c-7.372,2.861-15.765,4.161-23.598,4.832c-1.14,0.1-15.065-0.17-15.555-1.28c0.1,0.33,1.701,5.782,1.701,8.553
					c0,2.851-18.846,57.099-18.846,57.099l-6.972-0.16l17.366-72.615c0,0,8.623-1.48,15.625-1.981
					C559.071,362.786,591.722,357.184,599.765,355.393z"/>
				<path style="fill:#00389A;" d="M609.408,374.24c-14.045,1.811-27.449,3.321-27.449,3.321s2.401,6.102,1.941,11.684
					c-0.93,11.224-13.685,47.266-13.685,47.266l-4.622-0.09l-6.802-0.14c0,0,5.712-63.962,5.712-65.672
					c0-1.711,33.461-25.819,59.91-23.188c1.24,2.481,1.961,4.892,2.221,7.192C627.854,364.857,620.132,372.859,609.408,374.24z"/>
				<path style="fill:#00298B;" d="M609.408,374.24c-14.045,1.811-27.449,3.321-27.449,3.321s2.401,6.102,1.941,11.684
					c-0.93,11.224-13.685,47.266-13.685,47.266l-4.622-0.09c1.27-5.082,3.461-14.245,5.362-24.138
					c2.881-14.975,3.881-39.793,3.881-39.793s47.066-16.416,51.797-17.876C627.854,364.857,620.132,372.859,609.408,374.24z"/>
				<path style="fill:#00298B;" d="M622.312,354.934c1.565,0.034,3.125-0.082,4.68-0.424c-1.845-9.416-3.933-18.628-5.218-28.174
					c-1.171-8.696-2.655-17.294-5.532-25.629c-1.667-4.83-3.834-11.187-7.475-14.847c-7.102-7.137-18.515-6.888-27.741-5.439
					c-3.848,0.604-10.084,1.028-13.23,3.489c-3.53,2.762-3.032,8.31-3.029,12.252c0.005,6.408,1.75,10.624,4.422,16.329
					c2.112,4.509,5.021,8.474,6.874,13.171c2.485,6.301,4.581,12.908,6.057,19.519c-0.037-0.164,3.587,1.626,3.968,1.913
					c1.582,1.191,3.03,2.645,4.527,3.944c1.017,0.882,2.067,1.783,3.338,2.224c1.72,0.596,2.519-0.293,4.038-0.642
					c2.225-0.511,4.692-0.509,6.957-0.351C610.775,352.673,616.573,354.81,622.312,354.934z"/>
				<path style="fill:#FFCE89;" d="M567.543,326.024c0.069,0.256-7.077-1.101-7.32-1.148c-0.809-0.159-1.627-0.32-2.45-0.281
					c-0.875,0.04-1.724,0.304-2.552,0.59c-4.207,1.452-8.19,3.551-11.767,6.198c0.764,1.382,2.55,1.764,4.121,1.924
					c3.504,0.355,7.034,0.325,10.556,0.293c3.473-0.031,7.285,0.639,10.699,0.262C569.279,331.325,568.196,328.46,567.543,326.024z"
					/>
				<path style="fill:#00389A;" d="M602.304,334.258c-0.88,0-24.17-0.23-33.42-0.33c0.13-1.77-0.22-3.59-0.65-5.33
					c-0.22-0.89-0.47-1.75-0.69-2.58l26.49-5.23c0.76-4.3,0.6-25.09,2.89-31.96c0.64-1.91,1.56-3.86,3.25-4.95
					c1.4-0.91,3.2-1.09,4.82-0.62c0.35,0.09,0.7,0.22,1.03,0.38c0.78,0.37,1.47,0.89,2.07,1.51c0.81,0.85,1.45,1.88,1.86,2.98
					c0.33,0.87,0.53,1.77,0.73,2.68C613.254,302.488,606.294,334.258,602.304,334.258z"/>
				<path style="fill:#FFCE89;" d="M574.837,279.332l3.475,13.521c0,0,3.027,1.359,6.528-1.392c0.44-0.345,0.87-0.77,1.287-1.248
					c-2.871-4.201-5.545-8.5-7.598-13.11L574.837,279.332z"/>
				<path style="fill:#FFAE65;" d="M587.795,271.51l-9.267,5.594c2.053,4.61,4.727,8.909,7.598,13.11
					c2.903-3.328,5.139-9.256,5.139-9.256S588.974,280.428,587.795,271.51z"/>
				<g>
					<path style="fill:#FFCE89;" d="M590.904,266.202c0,3.732-0.94,7.474-2.761,10.666c-1.721,3.012-4.212,5.523-7.444,7.044
						c-1.561,0.73-3.302,1.311-5.213,1.691c-1.631,0.32-3.542,0.38-4.733-0.78c-0.52-0.52-0.83-1.221-1.13-1.901
						c-0.56-1.261-1.111-2.531-1.671-3.802c-0.607-1.387-0.817-2.847-1.208-4.307c-0.589-2.198,0.286-4.635-0.507-6.768
						c-0.41-1.103-0.964-1.833-1.009-3.003c-0.043-1.122-0.126-2.254-0.187-3.383c-0.201-3.715,2.362-5.671,5.408-7.412
						C580.926,248.258,590.904,253.888,590.904,266.202z"/>
					<path style="fill:#00298B;" d="M592.192,266.283c0.07,2.851-0.35,5.682-1.35,8.263c-0.33,0.87-0.77,1.781-1.6,2.191
						c-1.581,0.8-5.122-2.941-4.892-3.061c1.28-0.68,1.921-2.231,1.931-3.691c0-1.12-0.26-4.261-1.911-4.261
						c-1.811-0.01-1.341,2.581-2.291,3.571c-0.14-2.811-0.54-5.622-1.21-8.353c-4.241-0.38-8.533-0.2-12.734,0.51
						c-0.94,0.16-1.881,0.35-2.811,0.56l-0.28-0.35c-1.821-2.281,1.641-6.702,3.181-8.053c2.541-2.221,6.022-3.251,9.333-3.541
						c2.131-0.18,4.341-0.09,6.342,0.68c1.07,0.42,2.051,1.02,2.921,1.771c1.671,1.42,2.941,3.341,3.721,5.392
						C591.542,260.531,592.122,263.412,592.192,266.283z"/>
				</g>
				<path style="fill:#00298B;" d="M550.924,333.69l-3.712-27.495c-0.238-1.766-1.746-3.083-3.528-3.083h-42.308
					c-1.294,0-2.28,1.158-2.075,2.435l4.609,28.68L550.924,333.69z"/>
				<path style="fill:#FFAE65;" d="M583.898,267.453c0.055-0.058,0.115-0.111,0.181-0.16c0.128-0.095,0.281-0.168,0.44-0.164
					c0.216,0.006,0.406,0.157,0.517,0.342c0.11,0.185,0.154,0.402,0.191,0.614c0.07,0.403,0.122,0.809,0.155,1.216
					c0.071,0.866-0.073,3.268-1.491,2.977c-0.185-0.038-0.362-0.176-0.385-0.363c-0.017-0.142,0.055-0.278,0.125-0.403
					c0.117-0.209,0.235-0.418,0.352-0.627c0.075-0.132,0.151-0.287,0.1-0.43c-0.055-0.153-0.228-0.221-0.358-0.318
					c-0.346-0.258-0.403-0.751-0.376-1.181C583.384,268.415,583.53,267.839,583.898,267.453z"/>
				<g>
					<path style="fill:#00298B;" d="M568.688,270.662c-0.021,0.333-0.115,0.664-0.408,0.783c-0.529,0.214-0.877-0.24-0.967-0.682
						c-0.091-0.448-0.166-0.974-0.07-1.43c0.097-0.459,0.539-0.8,1.003-0.605c0.607,0.256,0.426,1.127,0.445,1.647
						C568.693,270.467,568.694,270.565,568.688,270.662z"/>
					<path style="fill:#FFFFFF;" d="M568.512,269.39c0,0.215-0.153,0.39-0.341,0.39s-0.341-0.175-0.341-0.39
						c0-0.215,0.153-0.39,0.341-0.39S568.512,269.175,568.512,269.39z"/>
				</g>
				<g>
					<path style="fill:#00298B;" d="M574.836,270.207c-0.023,0.366-0.126,0.729-0.448,0.86c-0.581,0.235-0.963-0.264-1.062-0.749
						c-0.1-0.492-0.182-1.07-0.076-1.57c0.107-0.504,0.592-0.879,1.101-0.664c0.667,0.281,0.468,1.238,0.488,1.809
						C574.842,269.994,574.842,270.101,574.836,270.207z"/>
					<path style="fill:#FFFFFF;" d="M574.543,268.803c0,0.216-0.153,0.39-0.341,0.39c-0.188,0-0.341-0.175-0.341-0.39
						c0-0.215,0.153-0.39,0.341-0.39C574.39,268.413,574.543,268.587,574.543,268.803z"/>
				</g>
				<path style="fill:#00298B;" d="M568.748,267.331c-0.22-0.708-1.017-0.845-1.591-0.476c-0.363,0.233-1.682,1.175-1.085,1.729
					c0.281-0.411,0.701-0.778,1.156-0.981C567.371,267.54,568.683,267.12,568.748,267.331z"/>
				<path style="fill:#00298B;" d="M575.889,267.893c0.088-0.218,0.015-0.475-0.126-0.663c-0.141-0.188-0.341-0.321-0.538-0.451
					c-0.291-0.192-0.586-0.387-0.914-0.506c-0.559-0.203-1.487-0.329-1.537,0.534c0.542-0.092,1.167,0.069,1.681,0.247
					C574.61,267.108,575.966,267.704,575.889,267.893z"/>
				<path style="fill:#FFAE65;" d="M570.362,271.39c-0.056,0.287-0.061,0.592-0.062,0.885c-0.004,1.572-0.127,3.123-0.151,4.701
					c-0.001,0.052,0,0.109,0.035,0.147c0.032,0.036,0.083,0.046,0.131,0.052c0.141,0.019,1.715-0.274,1.716-0.269
					c-0.449-2.08-0.898-4.16-1.347-6.24C570.509,270.874,570.414,271.124,570.362,271.39z"/>
				<path style="fill:#FFAE65;" d="M570.025,279.424c1.81-0.045,3.616-0.255,5.389-0.624c-0.206,0.549-0.412,1.098-0.618,1.647
					c-0.065,0.174-0.134,0.354-0.263,0.488c-0.104,0.109-0.241,0.18-0.378,0.243c-0.617,0.286-1.287,0.456-1.965,0.499
					c-0.107,0.007-0.219,0.009-0.315-0.036c-0.107-0.051-0.179-0.152-0.244-0.251c-0.318-0.478-0.597-0.981-0.835-1.503
					c-0.184-0.404-0.452-0.163-0.843-0.374c0.368,0.003,0.735,0.005,1.103,0.008"/>
				<path style="fill:#FFAE65;" d="M575.013,282.427c-0.317,0.409-0.889,1.053-1.443,1.09c-0.496,0.034-0.919-0.689-1.297-0.698
					C573.237,282.842,574.083,282.626,575.013,282.427z"/>
				<path style="fill:#00389A;" d="M586.821,252.519c-3.001-0.85-6.142-1.11-9.163-0.41c-4.591,1.06-8.743,4.762-9.523,9.343
					c-0.94,0.16-1.881,0.35-2.811,0.56l-0.28-0.35c-1.821-2.281,1.641-6.702,3.181-8.053c2.541-2.221,6.022-3.251,9.333-3.541
					c2.131-0.18,4.341-0.09,6.342,0.68C584.97,251.168,585.95,251.768,586.821,252.519z"/>
				<path style="fill:#1B4DA5;" d="M604.994,283.258c-4.19,10.56-5.23,41.56-5.23,41.56v3.74l-3.9-2.81l-27.63,2.85
					c-0.22-0.89-0.47-1.75-0.69-2.58l26.49-5.23c0.76-4.3,0.6-25.09,2.89-31.96c0.64-1.91,1.56-3.86,3.25-4.95
					C601.574,282.967,603.374,282.788,604.994,283.258z"/>
			</g>
			<g>
				<polygon style="fill:#ACBEFF;" points="422.382,448.784 428.343,448.784 449.894,340.351 443.933,340.351 				"/>
				<polygon style="fill:#ACBEFF;" points="492.301,448.784 486.34,448.784 464.789,340.351 470.75,340.351 				"/>
			</g>
			<g>
				<polygon style="fill:#ACBEFF;" points="605.528,448.784 611.489,448.784 633.04,340.351 627.079,340.351 				"/>
				<polygon style="fill:#ACBEFF;" points="675.447,448.784 669.487,448.784 647.935,340.351 653.896,340.351 				"/>
			</g>
			<rect x="420.28" y="334.557" style="fill:#C8D4FF;" width="248.576" height="6.287"/>
			<g>
				<g>
					<path style="fill:#FFCE89;" d="M470.101,284.199c-0.3,0.41-0.63,0.84-1.1,1.06c-0.1,0.04-0.19,0.08-0.29,0.1h-0.01
						c-0.3,0.08-0.62,0.1-0.93,0.11c-1.731,0.07-3.511,0.14-5.142-0.46c-1.06-0.39-2.001-1.04-2.861-1.781
						c-0.47-0.41-0.92-0.85-1.35-1.28c-2.861-2.851-7.042-6.432-8.183-10.384c-1.18-4.081-0.55-8.623,0.5-12.664
						c2.301-8.753,10.143-13.115,18.546-9.243c2.961,1.361,5.072,3.181,5.782,6.172c0.1,0.38,0.16,0.78,0.21,1.2
						C476.213,265.843,475.473,276.727,470.101,284.199z"/>
					<path style="fill:#FFAE65;" d="M473.975,255.443c-0.091,0.26-0.205,0.514-0.317,0.755c-1.882,4.032-3.246,8.424-3.218,12.91
						c0.027,4.285-0.82,8.376-1.26,12.66c-0.12,1.17-0.25,2.401-0.48,3.591c-0.3,0.08-0.62,0.1-0.93,0.11
						c-1.731,0.07-3.511,0.14-5.142-0.46c-1.06-0.39-2.001-1.04-2.861-1.781c-0.47-0.41-0.92-0.85-1.35-1.28
						c-2.861-2.851-7.042-6.432-8.183-10.384c-1.18-4.081-0.55-8.623,0.5-12.664c2.301-8.753,10.143-13.115,18.546-9.243
						c1.972,0.906,3.62,2.255,4.691,4.124C474.26,254.286,474.174,254.875,473.975,255.443z"/>
					<path style="fill:#FFAE65;" d="M453.296,273.456c0.518,4.422-1.501,9.253-0.75,9.003c0.75-0.25,12.504,1.751,12.504,1.751
						l0.25-8.753L453.296,273.456z"/>
					<g>
						<path style="fill:#00298B;" d="M491.688,334.106l11.279-27.079c0.476-1.229,1.659-2.04,2.977-2.04h42.91
							c1.328,0,2.229,1.349,1.722,2.575l-11.002,26.413L491.688,334.106z"/>
						<polygon style="fill:#F0863F;" points="494.81,332.976 505.063,306.967 547.828,306.967 537.324,332.726 						"/>
					</g>
					<path style="fill:#C8D4FF;" d="M521.822,437.682c4.047,3.807,8.33,7.335,12.505,10.762c5.551,0.217,10.355,0.396,11.034,0.396
						C546.655,448.84,530.033,441.348,521.822,437.682z"/>
					<path style="fill:#ACBEFF;" d="M517.381,435.707l-1.713,11.991c0,0,10.199,0.416,18.659,0.746
						c-4.176-3.427-8.458-6.955-12.505-10.762C519.164,436.495,517.381,435.707,517.381,435.707z"/>
					<path style="fill:#00389A;" d="M524.57,438.011l-8.333-0.02c0,0-18.846-54.248-18.846-57.099c0-2.861,1.72-8.573,1.72-8.573
						s-36.732,4.071-44.345,3.461c-3.181-0.25-6.332-3.281-8.833-7.773c-3.491-6.262-5.732-15.355-5.072-23.668
						c1.14-14.275,18.276-0.57,18.276-0.57s42.254,10.284,51.957,12.564C520.808,358.615,524.57,438.011,524.57,438.011z"/>
					<path style="fill:#00298B;" d="M521.318,438.261l-5.082-0.27c0,0-18.846-54.248-18.846-57.099c0-2.861,1.72-8.573,1.72-8.573
						s-36.732,4.071-44.345,3.461c-3.181-0.25-6.332-3.281-8.833-7.773c5.942-7.062,23.368-17.026,23.368-17.026
						c0.75,0,34.011,11.254,38.263,12.504C511.375,364.607,520.408,425.247,521.318,438.261z"/>
					<path style="fill:#C8D4FF;" d="M480.978,432.28l-0.351,0.044c1.641,5.255,4.23,10.54,5.247,16.275l9.379,0.241L480.978,432.28z
						"/>
					<path style="fill:#ACBEFF;" d="M476.409,432.852l-3.426,15.417l12.89,0.331c-1.017-5.735-3.605-11.02-5.247-16.275
						L476.409,432.852z"/>
					<path style="fill:#00389A;" d="M484.262,436.277c0,0-5.71-63.954-5.71-65.667c0-0.585-3.466-2.77-8.028-5.392
						c5.459,23.461,6.988,47.577,12.336,71.056L484.262,436.277z"/>
					<path style="fill:#00298B;" d="M470.524,365.218c-8.794-5.055-21.665-11.738-21.665-11.738s-18.273-19.986-27.409-7.994
						c-9.136,11.991-8.565,23.412,6.162,30.298c14.728,6.886,30.954-1.176,30.954-1.176s-3.997,3.997,1.713,13.704
						c5.71,9.707,15.524,47.949,15.524,47.949l7.056,0.014C477.512,412.795,475.982,388.679,470.524,365.218z"/>
					<path style="fill:#C8D4FF;" d="M418.023,353.908c-0.659-8.813,2.084-18.881,3.254-27.572
						c1.858-13.798,3.263-26.624,9.297-39.415c0.474-1.005,0.984-2.027,1.802-2.779c0.966-0.888,2.262-1.309,3.522-1.676
						c12.956-3.769,25.433-4.366,38.378-0.538c16.723,4.946-15.204,78.024-15.204,78.024S419.543,374.238,418.023,353.908z"/>
					<path style="fill:#ACBEFF;" d="M470.801,288.586c-4.502-3.376-8.253-5.252-18.256-6.127s-17.381,3.501-17.381,3.501
						l-7.378,15.505l0.375,40.639l25.259,0.625l15.505-34.887L470.801,288.586z"/>
					<path style="fill:#ACBEFF;" d="M503.202,329.685c-0.23,1.731-0.84,3.381-1.731,4.872c-5.432-0.03-9.323-0.16-9.783-0.45
						c-1.721-1.05-20.557-23.098-27.979-31.491c-4.161-4.702-1.51-11.714,2.631-16.045c3.251-3.401,7.413-5.152,9.923-2.851
						c9.143,8.403,19.987,39.363,19.987,39.363l6.612,1.741C503.322,326.474,503.422,328.114,503.202,329.685z"/>
					<path style="fill:#FFCE89;" d="M533.941,328.858c-5.139-0.525-9.707,1.574-9.707,1.574l-21.368-5.611
						c0.982,3.491,0.312,6.902-1.394,9.74c14.432,0.1,39.406,0.056,40.651,0.056C541.372,332.413,539.08,329.383,533.941,328.858z"
						/>
				</g>
				<g>
					<g>
						<polygon style="fill:#00298B;" points="427.612,375.784 415.892,448.286 418.57,448.784 430.29,376.282 						"/>
						<polygon style="fill:#00298B;" points="472.371,375.784 460.651,448.286 463.329,448.784 475.049,376.282 						"/>
						<polygon style="fill:#00298B;" points="499.523,375.784 496.845,376.282 508.565,448.784 511.243,448.286 						"/>
						<polygon style="fill:#00298B;" points="454.764,375.784 452.087,376.282 463.807,448.784 466.484,448.286 						"/>
					</g>
					<path style="fill:#F1A04C;" d="M506.754,371.109c-0.94,9.783-45.315,19.106-77.136,11.664
						c-14.105-3.291-21.707-16.326-22.038-56.299c-0.08-9.883,2.461-17.076,6.512-22.038c12.304-15.115,38.583-9.713,47.606,2.581
						c11.984,16.336,9.393,53.518,17.496,56.989c8.103,3.481,25.919-3.821,27.539,6.262
						C506.774,370.549,506.784,370.829,506.754,371.109z"/>
					<path style="fill:#F0863F;" d="M506.754,371.109c-0.94,9.783-45.315,19.106-77.136,11.664
						c-14.105-3.291-21.707-16.326-22.038-56.299c-0.08-9.883,2.461-17.076,6.512-22.038c5.482-3.411,11.854-5.352,18.296-5.232
						c9.933,0.19,19.787,5.552,24.718,14.175c2.491,4.352,3.711,9.293,4.892,14.165c2.541,10.464,5.092,20.917,7.633,31.38
						c0.54,2.251,1.12,4.562,2.451,6.462c2.851,4.071,8.423,5.222,13.385,4.932c4.962-0.28,9.883-1.65,14.835-1.24
						C502.522,369.268,504.813,369.958,506.754,371.109z"/>
				</g>
				<path style="fill:#F0863F;" d="M476.643,259.471c0.02-1.23-0.14-2.501-0.61-3.621c-1.821,3.251-5.572,5.402-4.992,9.583
					c0.07,0.57,0.21,1.16,0.04,1.721c-0.17,0.55-0.79,1.02-1.311,0.78c0.36-1.821-0.31-3.861-1.17-5.462
					c-2.921,1.861-2.081,4.551-2.761,7.342c-0.82,3.361-2.781,6.762-6.162,8.023c-1.05,0.39-2.201,0.43-3.321,0.44
					c-0.87,0-1.761-0.03-2.541-0.4c-2.621-1.26-3.821-6.392-4.331-8.943c-0.3-1.501-0.56-3.021-0.75-4.552
					c-0.41-3.261-0.52-6.562-0.01-9.813c0.23-1.451,0.48-2.971,1.36-4.151c0.88-1.18,2.591-1.881,3.861-1.15
					c0.02-0.98,0.05-1.971,0.07-2.961c4.302-1.4,8.953-2.181,13.355-1.14c3.241,0.76,7.753,3.501,9.843,6.682
					c0.34,0.5,0.61,1.02,0.81,1.541c0.06,0.17,0.12,0.35,0.17,0.52C478.714,255.88,478.184,258.141,476.643,259.471z"/>
				<path style="fill:#FFAE65;" d="M471.542,253.969c-2.391-1.821-4.992-3.371-7.743-4.601c1.871,1.811,3.151,4.231,3.581,6.802
					c-2.891-2.771-6.452-4.822-10.293-5.942c0.52,1,0.69,2.181,0.48,3.281c-0.79-1.661-3.291-1.851-4.792-0.78
					c-1.511,1.06-2.221,2.911-2.741,4.682c-0.65,2.271-1.09,4.612-1.3,6.972c-0.41-3.261-0.52-6.562-0.01-9.813
					c0.23-1.451,0.48-2.971,1.36-4.151c0.88-1.18,2.591-1.881,3.861-1.15c0.02-0.98,0.05-1.971,0.07-2.961
					c4.302-1.4,8.953-2.181,13.355-1.14c3.241,0.76,7.753,3.501,9.843,6.682c0.34,0.5,0.61,1.02,0.81,1.541
					c0.06,0.17,0.12,0.35,0.17,0.52c-3.051-1.731-6.262-3.151-9.583-4.261C469.581,251.088,470.561,252.529,471.542,253.969z"/>
				<path style="fill:#C8D4FF;" d="M503.202,329.685c-1.891-0.15-7.142-0.71-7.142-0.71v-1.751l-3.501,1.751l1.25-3.251
					c0,0-15.005-29.51-19.757-34.512c-2.271-2.401-4.531-4.431-7.002-5.252c3.251-3.401,6.702-4.542,9.213-2.241
					c9.143,8.403,19.987,39.363,19.987,39.363l6.612,1.741C503.322,326.474,503.422,328.114,503.202,329.685z"/>
			</g>
		</g>
		<path style="fill:none;stroke:#FFFFFF;stroke-width:5;stroke-miterlimit:10;" d="M152.125,131.412"/>
		<path style="fill:none;stroke:#FFFFFF;stroke-width:5;stroke-miterlimit:10;" d="M152.125,401"/>
	</g>
</g>
</svg>
