<svg xmlns="http://www.w3.org/2000/svg" version="1.1" xmlns:xlink="http://www.w3.org/1999/xlink" xmlns:svgjs="http://svgjs.dev/svgjs" width="1000" height="1000" viewBox="0 0 1000 1000"><rect width="1000" height="1000" fill="#ffffff"></rect><g transform="matrix(0.7,0,0,0.7,149.57576009684504,373.692635499204)"><svg viewBox="0 0 396 143" data-background-color="#ffffff" preserveAspectRatio="xMidYMid meet" height="361" width="1000" xmlns="http://www.w3.org/2000/svg" xmlns:xlink="http://www.w3.org/1999/xlink"><g id="tight-bounds" transform="matrix(1,0,0,1,0.24000142621520126,-0.02412645924539447)"><svg viewBox="0 0 395.52 143.04824372732614" height="143.04824372732614" width="395.52"><g><svg viewBox="0 0 522.2583807975861 188.88588224355738" height="143.04824372732614" width="395.52"><g transform="matrix(1,0,0,1,126.7383807975861,58.368479272359785)"><svg viewBox="0 0 395.52 72.1489236988378" height="72.1489236988378" width="395.52"><g id="textblocktransform"><svg viewBox="0 0 395.52 72.1489236988378" height="72.1489236988378" width="395.52" id="textblock"><g><svg viewBox="0 0 395.52 72.1489236988378" height="72.1489236988378" width="395.52"><g transform="matrix(1,0,0,1,0,0)"><svg width="395.52" viewBox="2 -35.29999923706055 197.8800048828125 36.099998474121094" height="72.1489236988378" data-palette-color="#332885"><path d="M27.2-10.55L27.75-10.5 26.5 0 2 0 2-0.4 6.1-0.8 6.1-33.7 2-34.1 2-34.5 26.55-34.5 27.25-25.1 26.75-25.05 23.95-32.05Q23.5-33.2 22.98-33.55 22.45-33.9 21.25-33.9L21.25-33.9 9.95-33.9 9.95-18.55 17.35-18.55Q18.55-18.55 19.05-18.95 19.55-19.35 19.75-20.5L19.75-20.5 20.6-24.55 21.2-24.55 21.2-11.75 20.6-11.75 19.75-15.8Q19.55-16.95 19.05-17.35 18.55-17.75 17.35-17.75L17.35-17.75 9.95-17.75 9.95-0.6 21.15-0.6Q22.35-0.6 22.9-0.98 23.45-1.35 23.9-2.45L23.9-2.45 27.2-10.55ZM36.8-33.7L36.8-0.8 32.7-0.4 32.7 0 57.2 0 58.45-10.9 57.85-11 54.45-2.45Q54-1.35 53.45-0.98 52.9-0.6 51.7-0.6L51.7-0.6 40.65-0.6 40.65-33.7 45-34.1 45-34.5 32.7-34.5 32.7-34.1 36.8-33.7ZM61.85-34.1L61.85-34.5 73.9-34.5 73.9-34.1 69.8-33.7 69.8-0.8 73.9-0.4 73.9 0 61.85 0 61.85-0.4 65.95-0.8 65.95-33.7 61.85-34.1ZM101.99-16.45L101.99-3.85Q100.74-2.05 98.59-0.93 96.44 0.2 93.94 0.2L93.94 0.2Q88.69 0.2 85.84-4.35 82.99-8.9 82.99-17.25L82.99-17.25Q82.99-25.6 85.84-30.15 88.69-34.7 93.99-34.7L93.99-34.7Q96.84-34.7 99.17-33.38 101.49-32.05 102.99-29.6L102.99-29.6Q104.49-27.1 105.19-23.25L105.19-23.25 105.89-23.45 105.39-34.7 104.74-34.7 103.54-32.3Q100.69-33.85 98.37-34.58 96.04-35.3 93.84-35.3L93.84-35.3Q89.54-35.3 85.94-32.9 82.34-30.5 80.27-26.35 78.19-22.2 78.19-17.25L78.19-17.25Q78.19-12.25 80.27-8.13 82.34-4 85.97-1.6 89.59 0.8 93.94 0.8L93.94 0.8Q96.54 0.8 99.99-0.2 103.44-1.2 105.84-3.4L105.84-3.4 105.84-16.45 109.94-16.85 109.94-17.25 98.39-17.25 98.39-16.85 101.99-16.45ZM137.94-10.55L138.49-10.5 137.24 0 112.74 0 112.74-0.4 116.84-0.8 116.84-33.7 112.74-34.1 112.74-34.5 137.29-34.5 137.99-25.1 137.49-25.05 134.69-32.05Q134.24-33.2 133.72-33.55 133.19-33.9 131.99-33.9L131.99-33.9 120.69-33.9 120.69-18.55 128.09-18.55Q129.29-18.55 129.79-18.95 130.29-19.35 130.49-20.5L130.49-20.5 131.34-24.55 131.94-24.55 131.94-11.75 131.34-11.75 130.49-15.8Q130.29-16.95 129.79-17.35 129.29-17.75 128.09-17.75L128.09-17.75 120.69-17.75 120.69-0.6 131.89-0.6Q133.09-0.6 133.64-0.98 134.19-1.35 134.64-2.45L134.64-2.45 137.94-10.55ZM173.09-0.4L173.79-0.4 173.79 0 168.64 0Q167.44 0 166.84-0.35 166.24-0.7 165.59-1.7L165.59-1.7 157.94-14.05Q157.24-15.2 156.76-15.48 156.29-15.75 155.09-15.75L155.09-15.75 151.39-15.75 151.39-0.8 155.74-0.4 155.74 0 143.44 0 143.44-0.4 147.54-0.8 147.54-33.7 143.44-34.1 143.44-34.5 156.09-34.5Q161.99-34.5 165.09-32.13 168.19-29.75 168.19-25.25L168.19-25.25Q168.19-21.75 166.29-19.5 164.39-17.25 160.79-16.4L160.79-16.4 160.84-16.4 169.99-2.1Q170.64-1.1 171.26-0.75 171.89-0.4 173.09-0.4L173.09-0.4ZM155.94-33.9L151.39-33.9 151.39-16.5 155.94-16.5Q159.94-16.5 161.86-18.63 163.79-20.75 163.79-25.15L163.79-25.15Q163.79-29.6 161.84-31.75 159.89-33.9 155.94-33.9L155.94-33.9ZM199.33-10.55L199.88-10.5 198.63 0 174.13 0 174.13-0.4 178.23-0.8 178.23-33.7 174.13-34.1 174.13-34.5 198.69-34.5 199.38-25.1 198.88-25.05 196.08-32.05Q195.63-33.2 195.11-33.55 194.58-33.9 193.38-33.9L193.38-33.9 182.08-33.9 182.08-18.55 189.48-18.55Q190.69-18.55 191.19-18.95 191.69-19.35 191.88-20.5L191.88-20.5 192.73-24.55 193.33-24.55 193.33-11.75 192.73-11.75 191.88-15.8Q191.69-16.95 191.19-17.35 190.69-17.75 189.48-17.75L189.48-17.75 182.08-17.75 182.08-0.6 193.28-0.6Q194.48-0.6 195.03-0.98 195.58-1.35 196.03-2.45L196.03-2.45 199.33-10.55Z" opacity="1" transform="matrix(1,0,0,1,0,0)" fill="#000000" class="undefined-text-0" data-fill-palette-color="primary" id="text-0"></path></svg></g></svg></g></svg></g></svg></g><g><svg viewBox="0 0 109.70575148645928 188.88588224355738" height="188.88588224355738" width="109.70575148645928"><g><svg xmlns="http://www.w3.org/2000/svg" data-name="Layer 1" viewBox="24.560001373291016 8.760000228881836 39.999996185302734 68.8699951171875" x="0" y="0" height="188.88588224355738" width="109.70575148645928" class="icon-icon-0" data-fill-palette-color="accent" id="icon-0"><path d="M51.78 41.59a1 1 0 0 1-0.66 1.25 1.06 1.06 0 0 1-0.3 0 1 1 0 1 1 1-1.3Zm-1.57-5a1 1 0 0 1-0.65 1.25 1 1 0 0 1-0.3 0.05 1 1 0 0 1-0.3-2A1 1 0 0 1 50.21 36.62Zm-3.13-9.95a1 1 0 0 1-0.65 1.26 1.09 1.09 0 0 1-0.31 0 1 1 0 1 1 1-1.3Zm-3.45-5.05a1.25 1.25 0 0 1 0.22-0.33l0.15-0.12a0.6 0.6 0 0 1 0.18-0.09l0.18-0.06a0.85 0.85 0 0 1 0.39 0 0.6 0.6 0 0 1 0.19 0.06 0.55 0.55 0 0 1 0.17 0.09 0.6 0.6 0 0 1 0.15 0.12 0.91 0.91 0 0 1 0.22 0.33 0.94 0.94 0 0 1 0 0.76 0.92 0.92 0 0 1-0.22 0.33 0.6 0.6 0 0 1-0.15 0.12 0.55 0.55 0 0 1-0.17 0.09 0.61 0.61 0 0 1-0.19 0.06l-0.19 0-0.2 0-0.18-0.06a0.6 0.6 0 0 1-0.18-0.09l-0.15-0.12a1.26 1.26 0 0 1-0.22-0.33 1.06 1.06 0 0 1 0-0.76ZM42 26.67a1 1 0 1 1 1.9 0.61A1 1 0 0 1 43 28a0.79 0.79 0 0 1-0.3 0A1 1 0 0 1 42 26.67Zm-3.17 9.94a1 1 0 1 1 1.9 0.61 1 1 0 0 1-1 0.7 1.16 1.16 0 0 1-0.31-0.05A1 1 0 0 1 38.85 36.61Zm-1.59 5a1 1 0 1 1 1 1.3 1 1 0 0 1-0.3 0A1 1 0 0 1 37.26 41.59Zm-6.18 11a1 1 0 0 1-1.09 0.22 1 1 0 0 1-0.32-0.22 1 1 0 0 1-0.3-0.71 1 1 0 0 1 0.08-0.38 0.86 0.86 0 0 1 0.22-0.32 0.65 0.65 0 0 1 0.15-0.13 0.89 0.89 0 0 1 0.17-0.09 0.68 0.68 0 0 1 0.19-0.06 1 1 0 0 1 0.9 0.28 1 1 0 0 1 0.29 0.7A1 1 0 0 1 31.08 52.54Zm4 0.29H35a1 1 0 0 1-0.38-0.07 1 1 0 0 1-0.32-0.22 0.88 0.88 0 0 1-0.22-0.32 1 1 0 0 1-0.08-0.39 1 1 0 0 1 0.3-0.7 0.88 0.88 0 0 1 0.32-0.22 1 1 0 0 1 0.37-0.07h0.07l0.12 0h0a1 1 0 0 1 0.84 1A1 1 0 0 1 35.1 52.83Zm0.58-6.27a1 1 0 0 1 1.9 0.6 1 1 0 0 1-1 0.7 0.84 0.84 0 0 1-0.31 0A1 1 0 0 1 35.68 46.56ZM37.9 57a1 1 0 0 1-0.48 0.12 1 1 0 0 1-0.87-0.51A1 1 0 1 1 37.9 57Zm2.38 4.29a1 1 0 0 1-0.48 0.12 1 1 0 0 1-0.49-1.87 1 1 0 1 1 1 1.75Zm-0.45-8.46a1 1 0 1 1 1-1A1 1 0 0 1 39.83 52.83Zm0.6-21.19a1 1 0 1 1 1 1.3 1 1 0 0 1-0.3 0A1 1 0 0 1 40.43 31.64Zm2.23 33.94a0.94 0.94 0 0 1-0.48 0.13 1 1 0 0 1-0.88-0.52 1 1 0 0 1 0.39-1.36 1 1 0 1 1 1 1.75Zm2.6 4.13a1 1 0 0 1-0.7 0.29 1 1 0 0 1-0.38-0.08 1 1 0 0 1-0.33-0.21 1 1 0 0 1-0.29-0.71 1 1 0 0 1 0.29-0.71l0.15-0.12a0.59 0.59 0 0 1 0.18-0.09l0.18-0.06a0.88 0.88 0 0 1 0.39 0 0.62 0.62 0 0 1 0.19 0.06 0.54 0.54 0 0 1 0.17 0.09 0.61 0.61 0 0 1 0.15 0.12 1 1 0 0 1 0.3 0.71A1 1 0 0 1 45.26 69.71Zm-0.7-16.88a1 1 0 1 1 1-1A1 1 0 0 1 44.56 52.83Zm3.22 12.36a1 1 0 0 1-0.87 0.52 1 1 0 1 1 0.87-0.52Zm-0.09-32.24a1 1 0 1 1 0.3 0A1.06 1.06 0 0 1 47.69 32.95ZM50.14 60.9a1 1 0 0 1-0.88 0.52 0.91 0.91 0 0 1-0.48-0.13 1 1 0 0 1-0.4-1.35 1 1 0 0 1 1.36-0.4A1 1 0 0 1 50.14 60.9Zm-0.85-8.07a1 1 0 1 1 1-1A1 1 0 0 1 49.29 52.83Zm3.2 3.77a1 1 0 0 1-0.88 0.53 0.91 0.91 0 0 1-0.48-0.13 1 1 0 0 1-0.4-1.35 1 1 0 0 1 1.76 1Zm-0.1-8.74a1 1 0 1 1 0.3 0A1 1 0 0 1 52.39 47.86Zm1.63 5H54a1 1 0 0 1-0.39-0.07 1 1 0 0 1-0.32-0.22 1 1 0 0 1-0.29-0.71 1 1 0 0 1 0.29-0.7 1 1 0 0 1 0.72-0.29h0l0.08 0h0l0.06 0 0.13 0 0.05 0a1 1 0 0 1 0.63 0.89A1 1 0 0 1 54 52.83Zm4.73 0a1 1 0 0 1-0.38-0.07 1.18 1.18 0 0 1-0.33-0.22 1 1 0 0 1 0-1.41l0.15-0.13a1.41 1.41 0 0 1 0.18-0.09 0.62 0.62 0 0 1 0.18-0.06 1 1 0 0 1 0.91 0.28 1 1 0 0 1 0.21 0.32 1 1 0 0 1-0.92 1.38Z" fill="#000000" data-fill-palette-color="accent"></path><path d="M44.56 8.76l-20 43.59 20 25.28 20-25.28ZM27.49 52L44.56 14.76 61.63 52 44.56 73.59Z" fill="#000000" data-fill-palette-color="accent"></path><path d="M53.35 46.56a1 1 0 0 0-1.26-0.65 1 1 0 0 0 0.3 1.95 1 1 0 0 0 0.3 0A1 1 0 0 0 53.35 46.56Z" fill="#000000" data-fill-palette-color="accent"></path><path d="M48.64 31.64a1 1 0 1 0-1 1.31 1.06 1.06 0 0 0 0.3 0A1 1 0 0 0 48.64 31.64Z" fill="#000000" data-fill-palette-color="accent"></path><path d="M49.87 42.19a1 1 0 0 0 0.95 0.7 1.06 1.06 0 0 0 0.3 0 1 1 0 1 0-1.25-0.65Z" fill="#000000" data-fill-palette-color="accent"></path><path d="M48.3 37.22a1 1 0 0 0 1 0.7 1 1 0 0 0 0.3-0.05A1 1 0 0 0 49 36 1 1 0 0 0 48.3 37.22Z" fill="#000000" data-fill-palette-color="accent"></path><path d="M45.17 27.27a1 1 0 0 0 1 0.7 1.09 1.09 0 0 0 0.31 0 1 1 0 0 0 0.65-1.26 1 1 0 0 0-1.91 0.6Z" fill="#000000" data-fill-palette-color="accent"></path><path d="M54.15 50.85h0l0.11 0Z" fill="#000000" data-fill-palette-color="accent"></path><path d="M53 51.83a1 1 0 0 1 1-1 1 1 0 0 0-0.72 0.29 1 1 0 0 0-0.29 0.7 1 1 0 0 0 0.29 0.71 1 1 0 0 0 0.32 0.22 1 1 0 0 0 0.39 0.07h0A1 1 0 0 1 53 51.83Z" fill="#000000" data-fill-palette-color="accent"></path><path d="M49.74 59.54a1 1 0 0 0-1.36 0.4 1 1 0 0 0 0.4 1.35 0.91 0.91 0 0 0 0.48 0.13 1 1 0 0 0 0.88-0.52A1 1 0 0 0 49.74 59.54Z" fill="#000000" data-fill-palette-color="accent"></path><path d="M47.39 63.83a1 1 0 1 0 0.39 1.36A1 1 0 0 0 47.39 63.83Z" fill="#000000" data-fill-palette-color="accent"></path><path d="M52.09 55.25a1 1 0 0 0-1.36 0.4 1 1 0 0 0 0.4 1.35 0.91 0.91 0 0 0 0.48 0.13 1 1 0 0 0 0.88-0.53A1 1 0 0 0 52.09 55.25Z" fill="#000000" data-fill-palette-color="accent"></path><path d="M43.85 22.71l0.15 0.12a0.6 0.6 0 0 0 0.18 0.09l0.18 0.06 0.2 0 0.19 0a0.61 0.61 0 0 0 0.19-0.06 0.55 0.55 0 0 0 0.17-0.09 0.6 0.6 0 0 0 0.15-0.12 0.92 0.92 0 0 0 0.22-0.33 0.94 0.94 0 0 0 0-0.76 0.91 0.91 0 0 0-0.22-0.33 0.6 0.6 0 0 0-0.15-0.12 0.55 0.55 0 0 0-0.17-0.09 0.6 0.6 0 0 0-0.19-0.06 0.85 0.85 0 0 0-0.39 0l-0.18 0.06a0.6 0.6 0 0 0-0.18 0.09l-0.15 0.12a1.25 1.25 0 0 0-0.22 0.33 1.06 1.06 0 0 0 0 0.76A1.26 1.26 0 0 0 43.85 22.71Z" fill="#000000" data-fill-palette-color="accent"></path><path d="M42.34 32.25a1 1 0 0 0-1.91-0.61 1 1 0 0 0 0.65 1.26 1 1 0 0 0 0.3 0A1 1 0 0 0 42.34 32.25Z" fill="#000000" data-fill-palette-color="accent"></path><path d="M42.67 27.92a0.79 0.79 0 0 0 0.3 0 1 1 0 0 0 1-0.69 1 1 0 1 0-1.9-0.61A1 1 0 0 0 42.67 27.92Z" fill="#000000" data-fill-palette-color="accent"></path><path d="M37.91 42.84a1 1 0 0 0 0.3 0 1 1 0 1 0-1-1.3A1 1 0 0 0 37.91 42.84Z" fill="#000000" data-fill-palette-color="accent"></path><path d="M37.58 47.16a1 1 0 1 0-1.26 0.65 0.84 0.84 0 0 0 0.31 0A1 1 0 0 0 37.58 47.16Z" fill="#000000" data-fill-palette-color="accent"></path><path d="M39.49 37.87a1.16 1.16 0 0 0 0.31 0.05 1 1 0 0 0 0.3-2 1 1 0 0 0-0.61 1.91Z" fill="#000000" data-fill-palette-color="accent"></path><path d="M34.1 51.83a1 1 0 0 1 0.93-1 1 1 0 0 0-0.37 0.07 0.88 0.88 0 0 0-0.32 0.22 1 1 0 0 0-0.3 0.7 1 1 0 0 0 0.08 0.39 0.88 0.88 0 0 0 0.22 0.32 1 1 0 0 0 0.32 0.22 1 1 0 0 0 0.38 0.07h0A1 1 0 0 1 34.1 51.83Z" fill="#000000" data-fill-palette-color="accent"></path><path d="M41.69 63.83a1 1 0 0 0-0.39 1.36 1 1 0 0 0 0.88 0.52 0.94 0.94 0 0 0 0.48-0.13 1 1 0 1 0-1-1.75Z" fill="#000000" data-fill-palette-color="accent"></path><path d="M39.31 59.54a1 1 0 0 0 0.49 1.87 1 1 0 0 0 0.48-0.12 1 1 0 1 0-1-1.75Z" fill="#000000" data-fill-palette-color="accent"></path><path d="M36.94 55.25a1 1 0 0 0-0.39 1.36 1 1 0 0 0 0.87 0.51A1 1 0 0 0 37.9 57a1 1 0 0 0-1-1.75Z" fill="#000000" data-fill-palette-color="accent"></path><path d="M45.11 68.17a0.54 0.54 0 0 0-0.17-0.09 0.62 0.62 0 0 0-0.19-0.06 0.88 0.88 0 0 0-0.39 0l-0.18 0.06a0.59 0.59 0 0 0-0.18 0.09l-0.15 0.12a1 1 0 0 0-0.29 0.71 1 1 0 0 0 0.29 0.71 1 1 0 0 0 0.33 0.21 1 1 0 0 0 0.38 0.08 1 1 0 0 0 0.7-0.29 1 1 0 0 0 0.3-0.71 1 1 0 0 0-0.3-0.71A0.61 0.61 0 0 0 45.11 68.17Z" fill="#000000" data-fill-palette-color="accent"></path><path d="M30.18 50.85a0.68 0.68 0 0 0-0.19 0.06 0.89 0.89 0 0 0-0.17 0.09 0.65 0.65 0 0 0-0.15 0.13 0.86 0.86 0 0 0-0.22 0.32 1 1 0 0 0-0.08 0.38 1 1 0 0 0 0.3 0.71 1 1 0 0 0 0.32 0.22 1 1 0 0 0 1.38-0.93 1 1 0 0 0-0.29-0.7A1 1 0 0 0 30.18 50.85Z" fill="#000000" data-fill-palette-color="accent"></path><path d="M54.39 50.94l0.12 0.06a0.66 0.66 0 0 1 0.15 0.13 0.88 0.88 0 0 1 0.22 0.32 1 1 0 0 1-0.22 1.09 1 1 0 0 1-0.67 0.28h0a1 1 0 0 0 1-1A1 1 0 0 0 54.39 50.94Z" fill="#000000" data-fill-palette-color="accent"></path><path d="M54 50.83h0.08Z" fill="#000000" data-fill-palette-color="accent"></path><path d="M35.1 50.83h0.12Z" fill="#000000" data-fill-palette-color="accent"></path><circle cx="44.56" cy="51.83" r="1.0" fill="#000000" data-fill-palette-color="accent"></circle><circle cx="49.29" cy="51.83" r="1.0" fill="#000000" data-fill-palette-color="accent"></circle><circle cx="39.83" cy="51.83" r="1.0" fill="#000000" data-fill-palette-color="accent"></circle><path d="M35.26 50.86a1 1 0 0 1 0.78 1 1 1 0 0 1-0.07 0.39 1 1 0 0 1-0.22 0.32 1 1 0 0 1-0.68 0.28h0a1 1 0 0 0 1-1A1 1 0 0 0 35.26 50.86Z" fill="#000000" data-fill-palette-color="accent"></path><path d="M55 51.83a1 1 0 0 0-0.08-0.38 0.88 0.88 0 0 0-0.22-0.32 0.66 0.66 0 0 0-0.15-0.13l-0.12-0.06-0.05 0-0.13 0-0.11 0H54a1 1 0 0 0 0 2 1 1 0 0 0 0.67-0.28A1 1 0 0 0 55 51.83Z" fill="#000000" data-fill-palette-color="accent"></path><path d="M36 52.22a1 1 0 0 0 0.07-0.39 1 1 0 0 0-0.78-1H35a1 1 0 1 0 0.72 1.7A1 1 0 0 0 36 52.22Z" fill="#000000" data-fill-palette-color="accent"></path><path d="M59.67 51.45a1 1 0 0 0-0.21-0.32 1 1 0 0 0-0.91-0.28 0.62 0.62 0 0 0-0.18 0.06 1.41 1.41 0 0 0-0.18 0.09l-0.15 0.13a1 1 0 0 0-0.21 0.32A1 1 0 0 0 58 52.54a1.18 1.18 0 0 0 0.33 0.22 1 1 0 0 0 1.3-1.31Z" fill="#000000" data-fill-palette-color="accent"></path></svg></g></svg></g></svg></g><defs></defs></svg><rect width="395.52" height="143.04824372732614" fill="none" stroke="none" visibility="hidden"></rect></g></svg></g></svg>