<?xml version="1.0" encoding="utf-8"?>
<!-- Generator: Adobe Illustrator 27.5.0, SVG Export Plug-In . SVG Version: 6.00 Build 0)  -->
<svg version="1.1" xmlns="http://www.w3.org/2000/svg" xmlns:xlink="http://www.w3.org/1999/xlink" x="0px" y="0px"
	 viewBox="0 0 500 500" style="enable-background:new 0 0 500 500;" xml:space="preserve">
<g id="Background_Complete">
	<path style="fill:#E0E0E0;" d="M111.948,232.314l3.704,7.506c0.189,0.383,0.555,0.649,0.978,0.711l8.283,1.204
		c1.066,0.155,1.491,1.464,0.72,2.216l-5.993,5.842c-0.306,0.298-0.446,0.729-0.374,1.15l1.415,8.249
		c0.182,1.061-0.932,1.871-1.885,1.37l-7.408-3.895c-0.378-0.199-0.831-0.199-1.209,0l-7.408,3.895
		c-0.953,0.501-2.067-0.308-1.885-1.37l1.415-8.249c0.072-0.421-0.067-0.852-0.374-1.15l-5.993-5.842
		c-0.771-0.752-0.346-2.061,0.72-2.216l8.283-1.204c0.423-0.061,0.789-0.327,0.978-0.711l3.704-7.506
		C110.095,231.348,111.472,231.348,111.948,232.314z"/>
	<path style="fill:#E0E0E0;" d="M78.078,188.93l2.563,5.192c0.131,0.265,0.384,0.449,0.677,0.492l5.73,0.833
		c0.737,0.107,1.032,1.013,0.498,1.533l-4.146,4.042c-0.212,0.206-0.309,0.504-0.259,0.796l0.979,5.707
		c0.126,0.734-0.645,1.294-1.304,0.947l-5.125-2.694c-0.262-0.138-0.575-0.138-0.836,0l-5.125,2.694
		c-0.659,0.347-1.43-0.213-1.304-0.947l0.979-5.707c0.05-0.292-0.047-0.589-0.258-0.796l-4.146-4.042
		c-0.534-0.52-0.239-1.426,0.498-1.533l5.73-0.833c0.293-0.043,0.546-0.226,0.677-0.492l2.563-5.192
		C76.796,188.262,77.748,188.262,78.078,188.93z"/>
	<path style="fill:#E0E0E0;" d="M263.477,54.767l1.776,3.598c0.091,0.184,0.266,0.311,0.469,0.341l3.971,0.577
		c0.511,0.074,0.715,0.702,0.345,1.062l-2.873,2.801c-0.147,0.143-0.214,0.349-0.179,0.551l0.678,3.955
		c0.087,0.509-0.447,0.897-0.904,0.657l-3.552-1.867c-0.182-0.095-0.398-0.095-0.58,0l-3.552,1.867
		c-0.457,0.24-0.991-0.148-0.904-0.657l0.678-3.955c0.035-0.202-0.032-0.408-0.179-0.551l-2.873-2.801
		c-0.37-0.36-0.166-0.988,0.345-1.062l3.971-0.577c0.203-0.029,0.378-0.157,0.469-0.341l1.776-3.598
		C262.589,54.304,263.249,54.304,263.477,54.767z"/>
	<path style="fill:#E0E0E0;" d="M418.522,240.266l1.776,3.598c0.091,0.184,0.266,0.311,0.469,0.341l3.971,0.577
		c0.511,0.074,0.715,0.702,0.345,1.062l-2.873,2.801c-0.147,0.143-0.214,0.349-0.179,0.551l0.678,3.955
		c0.087,0.509-0.447,0.897-0.904,0.657l-3.552-1.867c-0.181-0.095-0.398-0.095-0.58,0l-3.552,1.867
		c-0.457,0.24-0.991-0.148-0.904-0.657l0.678-3.955c0.035-0.202-0.032-0.408-0.179-0.551l-2.873-2.801
		c-0.37-0.36-0.166-0.988,0.345-1.062l3.971-0.577c0.203-0.029,0.378-0.157,0.469-0.341l1.776-3.598
		C417.633,239.803,418.293,239.803,418.522,240.266z"/>
	<path style="fill:#E0E0E0;" d="M377.466,223.692l2.929,5.936c0.15,0.303,0.439,0.513,0.774,0.562l6.55,0.952
		c0.843,0.123,1.179,1.158,0.569,1.753l-4.74,4.62c-0.242,0.236-0.353,0.576-0.295,0.909l1.119,6.524
		c0.144,0.839-0.737,1.479-1.491,1.083l-5.859-3.08c-0.299-0.157-0.657-0.157-0.956,0l-5.859,3.08
		c-0.754,0.396-1.635-0.244-1.491-1.083l1.119-6.524c0.057-0.333-0.053-0.673-0.296-0.909l-4.74-4.62
		c-0.61-0.594-0.273-1.63,0.569-1.753l6.55-0.952c0.335-0.049,0.624-0.259,0.774-0.562l2.929-5.936
		C376,222.929,377.089,222.929,377.466,223.692z"/>
	<path style="fill:#E0E0E0;" d="M78.838,296.218l2.113,4.282c0.108,0.219,0.317,0.37,0.558,0.406l4.725,0.687
		c0.608,0.088,0.851,0.835,0.411,1.264l-3.419,3.333c-0.175,0.17-0.254,0.415-0.213,0.656l0.807,4.706
		c0.104,0.605-0.532,1.067-1.075,0.781l-4.226-2.222c-0.216-0.114-0.474-0.114-0.69,0l-4.226,2.222
		c-0.544,0.286-1.179-0.176-1.075-0.781l0.807-4.706c0.041-0.241-0.039-0.486-0.213-0.656l-3.419-3.333
		c-0.44-0.429-0.197-1.176,0.411-1.264l4.725-0.687c0.241-0.035,0.45-0.187,0.558-0.406l2.113-4.282
		C77.781,295.667,78.566,295.667,78.838,296.218z"/>
	<g>
		<g>
			<g>
				<g>
					<g>
						<g>
							
								<rect x="168.157" y="59.671" transform="matrix(1 -0.0054 0.0054 1 -0.4702 0.933)" style="fill:#E0E0E0;" width="11.479" height="57.117"/>
						</g>
					</g>
				</g>
			</g>
		</g>
		<g>
			<g>
				<g>
					<g>
						<g>
							<g>
								
									<rect x="68.646" y="59.869" transform="matrix(1 -0.0053 0.0053 1 -0.4034 0.4478)" style="fill:#EBEBEB;" width="29.725" height="31.533"/>
							</g>
						</g>
					</g>
				</g>
			</g>
			<g>
				<g>
					<g>
						<g>
							<g>
								
									<rect x="98.23" y="59.71" transform="matrix(1 -0.0054 0.0054 1 -0.4024 0.6064)" style="fill:#F5F5F5;" width="29.725" height="31.532"/>
							</g>
						</g>
					</g>
				</g>
			</g>
			<g>
				<g>
					<g>
						<g>
							<g>
								<g>
									<path style="fill:#E0E0E0;" d="M68.608,68.657c19.754,0.163,39.557,0.048,59.309-0.273
										c0.406-0.006,0.404-0.629-0.004-0.631c-19.754-0.109-39.558-0.012-59.308,0.363C68.257,68.122,68.259,68.654,68.608,68.657
										L68.608,68.657z"/>
								</g>
							</g>
						</g>
					</g>
				</g>
			</g>
		</g>
		<g>
			<g>
				<g>
					<g>
						<g>
							<g>
								
									<rect x="50.097" y="90.94" transform="matrix(1 -0.0054 0.0054 1 -0.5549 0.4145)" style="fill:#EBEBEB;" width="54.006" height="25.697"/>
							</g>
						</g>
					</g>
				</g>
			</g>
			<g>
				<g>
					<g>
						<g>
							<g>
								
									<rect x="103.847" y="90.652" transform="matrix(1 -0.0054 0.0054 1 -0.5526 0.7024)" style="fill:#F5F5F5;" width="54.006" height="25.696"/>
							</g>
						</g>
					</g>
				</g>
			</g>
			<g>
				<g>
					<g>
						<g>
							<g>
								<g>
									<path style="fill:#E0E0E0;" d="M50.067,98.231c35.877,0.406,71.88,0.042,107.755-0.532c0.407-0.007,0.404-0.63-0.003-0.632
										c-35.88-0.19-71.884-0.168-107.755,0.622C49.716,97.698,49.718,98.228,50.067,98.231L50.067,98.231z"/>
								</g>
							</g>
						</g>
					</g>
				</g>
			</g>
		</g>
		<g>
			<g>
				<g>
					<g>
						<g>
							<rect x="29.871" y="116.781" style="fill:#E0E0E0;" width="209.235" height="9.206"/>
						</g>
					</g>
				</g>
			</g>
			<g>
				<g>
					<g>
						<g>
							<rect x="64.127" y="121.207" style="fill:#E0E0E0;" width="8.494" height="31.412"/>
						</g>
					</g>
				</g>
			</g>
			<g>
				<g>
					<g>
						<g>
							<rect x="190.923" y="121.207" style="fill:#E0E0E0;" width="8.494" height="31.412"/>
						</g>
					</g>
				</g>
			</g>
		</g>
		<g>
			<g>
				<g>
					<g>
						<g>
							
								<rect x="179.415" y="38.372" transform="matrix(1 -0.0054 0.0054 1 -0.4134 0.9931)" style="fill:#EBEBEB;" width="11.479" height="78.556"/>
						</g>
					</g>
				</g>
			</g>
		</g>
		<g>
			<g>
				<g>
					<g>
						<g>
							<g>
								
									<rect x="190.954" y="53.012" transform="matrix(1 -0.0054 0.0054 1 -0.4523 1.0736)" style="fill:#F5F5F5;" width="17.836" height="63.661"/>
							</g>
						</g>
					</g>
				</g>
			</g>
			<g>
				<g>
					<g>
						<g>
							<g>
								<path style="fill:#E0E0E0;" d="M208.499,65.229c0,0.171-3.993,0.309-8.917,0.309c-4.926,0-8.918-0.138-8.918-0.309
									s3.992-0.309,8.918-0.309C204.506,64.92,208.499,65.059,208.499,65.229z"/>
							</g>
						</g>
					</g>
				</g>
			</g>
			<g>
				<g>
					<g>
						<g>
							<g>
								<path style="fill:#E0E0E0;" d="M208.499,62.555c0,0.17-3.993,0.309-8.917,0.309c-4.926,0-8.918-0.138-8.918-0.309
									c0-0.171,3.992-0.309,8.918-0.309C204.506,62.246,208.499,62.384,208.499,62.555z"/>
							</g>
						</g>
					</g>
				</g>
			</g>
			<g>
				<g>
					<g>
						<g>
							<g>
								<path style="fill:#E0E0E0;" d="M208.499,107.047c0,0.171-3.993,0.309-8.917,0.309c-4.926,0-8.918-0.138-8.918-0.309
									c0-0.171,3.992-0.309,8.918-0.309C204.506,106.738,208.499,106.876,208.499,107.047z"/>
							</g>
						</g>
					</g>
				</g>
			</g>
			<g>
				<g>
					<g>
						<g>
							<g>
								<path style="fill:#E0E0E0;" d="M208.499,104.372c0,0.171-3.993,0.309-8.917,0.309c-4.926,0-8.918-0.138-8.918-0.309
									c0-0.171,3.992-0.309,8.918-0.309C204.506,104.063,208.499,104.202,208.499,104.372z"/>
							</g>
						</g>
					</g>
				</g>
			</g>
			<g>
				<g>
					<g>
						<g>
							<g>
								<path style="fill:#E0E0E0;" d="M199.868,98.537c-0.171,0-0.309-6.423-0.309-14.344c0-7.924,0.138-14.345,0.309-14.345
									c0.171,0,0.309,6.421,0.309,14.345C200.177,92.115,200.039,98.537,199.868,98.537z"/>
							</g>
						</g>
					</g>
				</g>
			</g>
		</g>
		<g>
			<g>
				<g>
					<g>
						<g>
							<rect x="208.692" y="68.598" style="fill:#EBEBEB;" width="19.414" height="48.051"/>
						</g>
					</g>
				</g>
			</g>
		</g>
		<g>
			<g>
				<g>
					<g>
						<path style="fill:#E0E0E0;" d="M188.075,51.754c0,1.822-1.477,3.299-3.299,3.299s-3.299-1.477-3.299-3.299
							c0-1.822,1.477-3.299,3.299-3.299S188.075,49.931,188.075,51.754z"/>
					</g>
				</g>
			</g>
		</g>
		<g>
			<g>
				<g>
					<g>
						<rect x="183.756" y="60.827" style="fill:#E0E0E0;" width="2.039" height="46.731"/>
					</g>
				</g>
			</g>
		</g>
	</g>
	<g>
		<g>
			<g>
				<g>
					<rect x="317.385" y="77.408" style="fill:#FAFAFA;" width="141.141" height="126.273"/>
				</g>
			</g>
			<g>
				<g>
					<g>
						<path style="fill:#E0E0E0;" d="M458.526,203.68c0,0-0.024-0.81-0.036-2.344c-0.008-1.549-0.021-3.815-0.037-6.766
							c-0.019-5.929-0.047-14.594-0.083-25.632c-0.04-22.063-0.096-53.589-0.165-91.531l0.32,0.32
							c-40.647,0.017-89.157,0.036-141.128,0.057h-0.013l0.377-0.377c-0.016,45.94-0.032,89.168-0.045,126.272l-0.332-0.332
							c42.105,0.069,77.346,0.127,102.083,0.168c12.376,0.038,22.12,0.067,28.792,0.087c3.324,0.017,5.877,0.03,7.622,0.039
							c0.854,0.008,1.507,0.015,1.966,0.019C458.291,203.668,458.526,203.68,458.526,203.68s-0.209,0.013-0.64,0.019
							c-0.451,0.004-1.091,0.011-1.93,0.019c-1.73,0.009-4.262,0.022-7.557,0.039c-6.655,0.02-16.373,0.05-28.717,0.088
							c-24.789,0.04-60.103,0.098-102.296,0.168l-0.332,0.001v-0.333c-0.014-37.104-0.029-80.333-0.045-126.272v-0.377h0.377h0.013
							c51.971,0.021,100.48,0.041,141.128,0.057h0.321l0,0.32c-0.068,38.026-0.125,69.622-0.165,91.734
							c-0.036,11.007-0.064,19.648-0.083,25.56c-0.016,2.924-0.028,5.169-0.037,6.704
							C458.549,202.918,458.526,203.68,458.526,203.68z"/>
					</g>
				</g>
			</g>
		</g>
		<g>
			<g>
				<g>
					<path style="fill:#E0E0E0;" d="M371.503,99.844c0,0.208-7.429,0.377-16.591,0.377c-9.165,0-16.593-0.169-16.593-0.377
						c0-0.208,7.427-0.377,16.593-0.377C364.074,99.467,371.503,99.636,371.503,99.844z"/>
				</g>
			</g>
		</g>
		<g>
			<g>
				<g>
					<path style="fill:#E0E0E0;" d="M431.307,109.325c0,0.209-20.409,0.377-45.579,0.377c-25.179,0-45.584-0.169-45.584-0.377
						c0-0.208,20.405-0.377,45.584-0.377C410.898,108.948,431.307,109.117,431.307,109.325z"/>
				</g>
			</g>
		</g>
		<g>
			<g>
				<rect x="338.563" y="125.385" style="fill:#E0E0E0;" width="5.946" height="5.946"/>
			</g>
		</g>
		<g>
			<g>
				<rect x="353.2" y="125.385" style="fill:#E0E0E0;" width="5.946" height="5.946"/>
			</g>
		</g>
		<g>
			<g>
				<rect x="368.107" y="125.115" style="fill:#E0E0E0;" width="5.946" height="5.946"/>
			</g>
		</g>
		<g>
			<g>
				<rect x="382.474" y="125.385" style="fill:#E0E0E0;" width="5.946" height="5.946"/>
			</g>
		</g>
		<g>
			<g>
				<rect x="397.11" y="125.385" style="fill:#E0E0E0;" width="5.946" height="5.946"/>
			</g>
		</g>
		<g>
			<g>
				<rect x="411.747" y="125.385" style="fill:#E0E0E0;" width="5.946" height="5.946"/>
			</g>
		</g>
		<g>
			<g>
				<rect x="426.384" y="125.385" style="fill:#EBEBEB;" width="5.946" height="5.946"/>
			</g>
		</g>
		<g>
			<g>
				<rect x="338.563" y="138.027" style="fill:#EBEBEB;" width="5.946" height="5.946"/>
			</g>
		</g>
		<g>
			<g>
				<rect x="353.2" y="138.027" style="fill:#E0E0E0;" width="5.946" height="5.946"/>
			</g>
		</g>
		<g>
			<g>
				<rect x="367.837" y="138.027" style="fill:#EBEBEB;" width="5.946" height="5.946"/>
			</g>
		</g>
		<g>
			<g>
				<rect x="382.474" y="138.027" style="fill:#E0E0E0;" width="5.946" height="5.946"/>
			</g>
		</g>
		<g>
			<g>
				<rect x="397.11" y="138.027" style="fill:#E0E0E0;" width="5.946" height="5.946"/>
			</g>
		</g>
		<g>
			<g>
				<rect x="412.017" y="137.756" style="fill:#E0E0E0;" width="5.946" height="5.946"/>
			</g>
		</g>
		<g>
			<g>
				<rect x="426.384" y="138.027" style="fill:#E0E0E0;" width="5.946" height="5.946"/>
			</g>
		</g>
		<g>
			<g>
				<rect x="338.563" y="150.668" style="fill:#E0E0E0;" width="5.946" height="5.946"/>
			</g>
		</g>
		<g>
			<g>
				<rect x="353.47" y="150.398" style="fill:#E0E0E0;" width="5.946" height="5.946"/>
			</g>
		</g>
		<g>
			<g>
				<rect x="367.837" y="150.668" style="fill:#E0E0E0;" width="5.946" height="5.946"/>
			</g>
		</g>
		<g>
			<g>
				<rect x="382.474" y="150.668" style="fill:#EBEBEB;" width="5.946" height="5.946"/>
			</g>
		</g>
		<g>
			<g>
				<rect x="397.11" y="150.668" style="fill:#E0E0E0;" width="5.946" height="5.946"/>
			</g>
		</g>
		<g>
			<g>
				<rect x="411.747" y="150.668" style="fill:#E0E0E0;" width="5.946" height="5.946"/>
			</g>
		</g>
		<g>
			<g>
				<rect x="426.384" y="150.668" style="fill:#E0E0E0;" width="5.946" height="5.946"/>
			</g>
		</g>
		<g>
			<g>
				<rect x="338.563" y="163.309" style="fill:#E0E0E0;" width="5.946" height="5.946"/>
			</g>
		</g>
		<g>
			<g>
				<rect x="353.2" y="163.309" style="fill:#E0E0E0;" width="5.946" height="5.946"/>
			</g>
		</g>
		<g>
			<g>
				<rect x="367.837" y="163.309" style="fill:#E0E0E0;" width="5.946" height="5.946"/>
			</g>
		</g>
		<g>
			<g>
				<rect x="382.743" y="163.039" style="fill:#E0E0E0;" width="5.946" height="5.946"/>
			</g>
		</g>
		<g>
			<g>
				<rect x="397.11" y="163.309" style="fill:#E0E0E0;" width="5.946" height="5.946"/>
			</g>
		</g>
		<g>
			<g>
				<rect x="411.747" y="163.309" style="fill:#EBEBEB;" width="5.946" height="5.946"/>
			</g>
		</g>
		<g>
			<g>
				<rect x="426.384" y="163.309" style="fill:#E0E0E0;" width="5.946" height="5.946"/>
			</g>
		</g>
		<g>
			<g>
				<rect x="338.563" y="175.95" style="fill:#E0E0E0;" width="5.946" height="5.946"/>
			</g>
		</g>
		<g>
			<g>
				<rect x="353.2" y="175.95" style="fill:#EBEBEB;" width="5.946" height="5.946"/>
			</g>
		</g>
		<g>
			<g>
				<rect x="367.837" y="175.95" style="fill:#E0E0E0;" width="5.946" height="5.946"/>
			</g>
		</g>
		<g>
			<g>
				<rect x="382.474" y="175.95" style="fill:#E0E0E0;" width="5.946" height="5.946"/>
			</g>
		</g>
		<g>
			<g>
				<rect x="397.11" y="175.95" style="fill:#E0E0E0;" width="5.946" height="5.946"/>
			</g>
		</g>
		<g>
			<g>
				<rect x="412.017" y="175.68" style="fill:#E0E0E0;" width="5.946" height="5.946"/>
			</g>
		</g>
		<g>
			<g>
				<rect x="426.384" y="175.95" style="fill:#E0E0E0;" width="5.946" height="5.946"/>
			</g>
		</g>
	</g>
	<g>
		<g>
			<g>
				<g>
					<g>
						<path style="fill:#EBEBEB;" d="M48.49,399.648c0,0.665,0,36.768,0,36.768h-6.139v3.991h6.139v24.608h114.751v-22.391h-8.5
							v-4.877h8.5v-7.316h3.778v-3.326h-4.486v-27.457H48.49z"/>
					</g>
				</g>
			</g>
			<g>
				<g>
					<g>
						<polygon style="fill:#E0E0E0;" points="132.769,399.755 132.769,464.606 163.242,464.606 163.242,442.214 154.742,442.214 
							154.742,437.746 163.242,437.898 163.242,430.582 167.093,430.587 167.02,426.806 162.533,426.695 162.533,399.648 						"/>
					</g>
				</g>
			</g>
			<g>
				<g>
					<g>
						<g>
							<path style="fill:#E0E0E0;" d="M134.94,439.879c0,0.225-20.765,0.407-46.373,0.407c-25.617,0-46.378-0.182-46.378-0.407
								c0-0.225,20.76-0.408,46.378-0.408C114.175,439.471,134.94,439.654,134.94,439.879z"/>
						</g>
					</g>
				</g>
			</g>
			<g>
				<g>
					<g>
						<g>
							<path style="fill:#E0E0E0;" d="M134.94,436.144c0,0.225-20.765,0.408-46.373,0.408c-25.617,0-46.378-0.182-46.378-0.408
								c0-0.225,20.76-0.407,46.378-0.407C114.175,435.737,134.94,435.919,134.94,436.144z"/>
						</g>
					</g>
				</g>
			</g>
			<g>
				<g>
					<g>
						<g>
							<path style="fill:#E0E0E0;" d="M140.897,426.092c0,0.225-20.764,0.407-46.373,0.407c-25.618,0-46.377-0.182-46.377-0.407
								c0-0.225,20.76-0.407,46.377-0.407C120.132,425.685,140.897,425.867,140.897,426.092z"/>
						</g>
					</g>
				</g>
			</g>
			<g>
				<g>
					<g>
						<g>
							<path style="fill:#E0E0E0;" d="M141.47,453.483c0,0.225-20.765,0.408-46.373,0.408c-25.618,0-46.378-0.182-46.378-0.408
								c0-0.225,20.76-0.407,46.378-0.407C120.705,453.076,141.47,453.259,141.47,453.483z"/>
						</g>
					</g>
				</g>
			</g>
		</g>
	</g>
	<g>
		<g>
			<g>
				<g>
					<g>
						<path style="fill:#F5F5F5;" d="M63.379,338.385c0,0.63,0,34.846,0,34.846h-5.818v3.782h5.818v23.322h108.753v-21.221h-8.056
							v-4.622h8.056v-6.933h3.58v-3.152h-4.251v-26.021H63.379z"/>
					</g>
				</g>
			</g>
			<g>
				<g>
					<g>
						<polygon style="fill:#E0E0E0;" points="143.252,338.486 143.252,399.947 172.132,399.947 172.132,378.726 164.076,378.726 
							164.076,374.491 172.132,374.635 172.132,367.701 175.782,367.706 175.712,364.123 171.461,364.018 171.461,338.385 						"/>
					</g>
				</g>
			</g>
			<g>
				<g>
					<g>
						<g>
							<path style="fill:#E0E0E0;" d="M145.31,376.512c0,0.213-19.679,0.386-43.949,0.386c-24.278,0-43.953-0.173-43.953-0.386
								c0-0.213,19.675-0.386,43.953-0.386C125.63,376.126,145.31,376.299,145.31,376.512z"/>
						</g>
					</g>
				</g>
			</g>
			<g>
				<g>
					<g>
						<g>
							<path style="fill:#E0E0E0;" d="M145.31,372.973c0,0.214-19.679,0.386-43.949,0.386c-24.278,0-43.953-0.173-43.953-0.386
								c0-0.213,19.675-0.386,43.953-0.386C125.63,372.587,145.31,372.76,145.31,372.973z"/>
						</g>
					</g>
				</g>
			</g>
			<g>
				<g>
					<g>
						<g>
							<path style="fill:#E0E0E0;" d="M150.955,363.447c0,0.214-19.679,0.386-43.949,0.386c-24.278,0-43.953-0.173-43.953-0.386
								c0-0.213,19.675-0.386,43.953-0.386C131.276,363.06,150.955,363.233,150.955,363.447z"/>
						</g>
					</g>
				</g>
			</g>
			<g>
				<g>
					<g>
						<g>
							<path style="fill:#E0E0E0;" d="M151.498,389.406c0,0.214-19.679,0.386-43.949,0.386c-24.278,0-43.953-0.173-43.953-0.386
								c0-0.213,19.675-0.386,43.953-0.386C131.819,389.02,151.498,389.193,151.498,389.406z"/>
						</g>
					</g>
				</g>
			</g>
		</g>
	</g>
	<g>
		<g>
			<g>
				<g>
					<path style="fill:#EBEBEB;" d="M395.176,353.565c-5.948-3.069-12.952-3.468-19.556-2.376c-3.548,0.586-7.246,1.648-9.66,4.313
						c-2.414,2.665-2.871,7.354-0.1,9.644c1.65,1.363,3.951,1.57,6.091,1.545c5.169-0.06,10.905-0.971,15.035,2.14
						c2.356,1.774,3.925,4.725,6.742,5.597c2.756,0.854,5.866-0.773,7.328-3.26c1.461-2.487,1.51-5.597,0.829-8.4
						C401.885,362.767,401.168,356.656,395.176,353.565z"/>
				</g>
			</g>
			<g>
				<g>
					<path style="fill:#EBEBEB;" d="M408.803,327.258c-3.637,5.195-10.706,3.475-13.984,0.304
						c-3.278-3.171-4.663-7.766-5.924-12.149c-2.881-10.013-5.786-20.517-3.644-30.714c0.641-3.049,1.78-6.089,3.923-8.35
						c2.142-2.262,5.436-3.607,8.448-2.811c3.564,0.942,5.78,4.432,7.38,7.754c4.706,9.761,7.198,20.583,7.235,31.42
						C412.255,317.772,411.658,323.08,408.803,327.258"/>
				</g>
			</g>
			<g>
				<g>
					<path style="fill:#EBEBEB;" d="M418.791,334.711c-3.949-4.687-4.698-11.523-2.941-17.394
						c1.757-5.872,5.727-10.866,10.302-14.945c5.364-4.781,11.67-8.502,18.449-10.885c2.668-0.938,5.482-1.678,8.297-1.41
						c2.815,0.268,5.65,1.708,6.963,4.212c1.941,3.703,0.08,8.194-1.933,11.859c-3.547,6.456-7.603,12.632-12.117,18.452
						c-3.632,4.682-7.792,9.301-13.327,11.417c-5.535,2.116-11.285,1.867-14.219-1.972"/>
				</g>
			</g>
			<g>
				<g>
					<g>
						<path style="fill:#E0E0E0;" d="M409.05,405.62c-0.068,0.004-0.179-0.837-0.329-2.36c-0.167-1.718-0.377-3.875-0.627-6.442
							c-0.3-2.711-0.696-5.936-1.449-9.449c-0.751-3.504-1.925-7.301-3.434-11.152c-1.563-3.828-3.468-7.308-5.695-10.091
							c-2.211-2.795-4.782-4.818-7.2-5.986c-2.409-1.19-4.57-1.673-6.063-1.888c-1.506-0.155-2.35-0.273-2.35-0.34
							c-0.001-0.067,0.844-0.078,2.392-0.037c1.533,0.102,3.783,0.491,6.322,1.645c2.547,1.13,5.275,3.184,7.595,6.038
							c2.338,2.841,4.313,6.397,5.903,10.294c1.535,3.919,2.693,7.755,3.41,11.335c0.715,3.574,1.042,6.835,1.256,9.568
							c0.204,2.736,0.282,4.951,0.319,6.482C409.133,404.767,409.116,405.616,409.05,405.62z"/>
					</g>
				</g>
			</g>
			<g>
				<g>
					<g>
						<path style="fill:#E0E0E0;" d="M408.606,400.663c-0.033-0.002-0.054-0.379-0.063-1.096c0.002-0.823,0.005-1.86,0.008-3.132
							c0.008-2.718,0.006-6.652-0.139-11.509c-0.24-9.715-1.077-20.17-2.692-34.91c-1.53-13.86-3.583-29.991-5.75-40.478
							c-0.465-2.385-0.933-4.532-1.373-6.411c-0.42-1.884-0.779-3.508-1.125-4.822c-0.297-1.237-0.539-2.245-0.732-3.044
							c-0.157-0.699-0.224-1.071-0.192-1.081c0.032-0.009,0.163,0.344,0.381,1.027c0.239,0.788,0.54,1.782,0.909,3.001
							c0.404,1.302,0.817,2.916,1.289,4.792c0.492,1.872,1.008,4.013,1.517,6.395c2.144,9.503,4.414,22.784,6.045,37.56
							c1.619,14.771,2.348,28.22,2.413,37.959c0.058,4.87-0.046,8.811-0.17,11.531c-0.078,1.272-0.141,2.308-0.191,3.13
							C408.684,400.29,408.639,400.664,408.606,400.663z"/>
					</g>
				</g>
			</g>
			<g>
				<g>
					<g>
						<path style="fill:#E0E0E0;" d="M408.541,374.723c-0.068-0.002-0.056-1.165,0.023-3.272c0.12-2.103,0.409-5.142,1.002-8.864
							c0.628-3.714,1.505-8.124,2.883-12.915c0.597-2.191,2.001-7.439,5.401-15.282c4.48-10.627,10.566-19.315,15.86-24.696
							c1.242-1.428,2.625-2.459,3.731-3.468c0.573-0.484,1.078-0.967,1.594-1.349c0.518-0.357,1-0.689,1.448-0.998
							c1.743-1.192,2.718-1.82,2.754-1.763c0.157,0.212-3.903,2.601-9.029,8.055c-5.105,5.441-11.021,14.07-15.464,24.607
							c-2.478,5.715-4.206,10.813-5.431,15.142c-1.416,4.745-2.357,9.11-3.068,12.787c-0.675,3.685-1.067,6.694-1.303,8.777
							C408.747,373.569,408.608,374.725,408.541,374.723z"/>
					</g>
				</g>
			</g>
		</g>
		<g>
			<g>
				<polygon style="fill:#E0E0E0;" points="433.613,420.481 431.014,456.091 385.267,456.091 382.667,420.481 				"/>
			</g>
		</g>
		<g>
			<g>
				<rect x="377.209" y="406.445" style="fill:#E0E0E0;" width="60.823" height="14.036"/>
			</g>
		</g>
		<g>
			<g>
				<polygon style="fill:#EBEBEB;" points="438.032,454.728 438.032,458.619 435.174,458.619 378.214,458.619 378.214,454.728 				
					"/>
			</g>
		</g>
		<g>
			<g>
				<polygon style="fill:#E0E0E0;" points="432.373,465.467 435.174,458.619 380.393,458.619 383.661,465.467 				"/>
			</g>
		</g>
		<g>
			<g>
				<g>
					<path style="fill:#F5F5F5;" d="M383.517,432.119c-0.01,0.008,0.062,0.119,0.213,0.327c0.181,0.241,0.406,0.539,0.683,0.907
						c0.65,0.831,1.542,1.974,2.665,3.41l0.118,0.152l0.115-0.159c1.675-2.317,3.913-5.411,6.547-9.055h-0.377
						c1.947,2.758,4.117,5.829,6.446,9.127l0.202,0.286l0.226-0.269c2.379-2.83,4.962-5.904,7.645-9.096l-0.441-0.006
						c0.133,0.167,0.276,0.348,0.421,0.529c2.371,2.972,4.666,5.849,6.836,8.57l0.228,0.286l0.21-0.297
						c2.321-3.284,4.489-6.352,6.449-9.125l-0.375,0.018c3.178,3.621,5.874,6.693,7.943,9.049l0.141,0.161l0.108-0.181
						c1.047-1.759,1.882-3.162,2.487-4.178c0.26-0.453,0.47-0.82,0.638-1.113c0.14-0.254,0.207-0.389,0.195-0.397
						c-0.012-0.007-0.103,0.113-0.266,0.353c-0.186,0.281-0.418,0.634-0.706,1.071c-0.635,0.998-1.512,2.375-2.611,4.102l0.249-0.02
						c-2.036-2.385-4.688-5.494-7.815-9.16l-0.197-0.231l-0.178,0.249c-1.978,2.761-4.166,5.815-6.507,9.084l0.438-0.012
						c-2.165-2.725-4.454-5.606-6.819-8.582c-0.144-0.181-0.288-0.362-0.421-0.529l-0.217-0.273l-0.224,0.267
						c-2.675,3.198-5.251,6.277-7.624,9.113l0.428,0.017c-2.352-3.281-4.543-6.338-6.51-9.081l-0.191-0.266l-0.186,0.266
						c-2.579,3.683-4.769,6.812-6.409,9.154l0.233-0.007c-1.168-1.4-2.096-2.513-2.772-3.324c-0.301-0.348-0.545-0.631-0.742-0.859
						C383.62,432.205,383.527,432.111,383.517,432.119z"/>
				</g>
			</g>
		</g>
		<g>
			<g>
				<g>
					<path style="fill:#F5F5F5;" d="M382.031,420.246c0,0.157,11.463,0.285,25.599,0.285c14.142,0,25.602-0.128,25.602-0.285
						c0-0.157-11.46-0.285-25.602-0.285C393.494,419.961,382.031,420.089,382.031,420.246z"/>
				</g>
			</g>
		</g>
		<g>
			<g>
				<g>
					<path style="fill:#F5F5F5;" d="M379.72,459.003c0,0.157,12.458,0.285,27.822,0.285c15.369,0,27.824-0.128,27.824-0.285
						c0-0.157-12.455-0.285-27.824-0.285C392.177,458.718,379.72,458.845,379.72,459.003z"/>
				</g>
			</g>
		</g>
	</g>
</g>
<g id="Background_Simple" style="display:none;">
	<g style="display:inline;">
		<path style="fill:#F5F5F5;" d="M435.463,96.403l-2.434-4.01c-20.516-33.808-57.609-54.188-96.717-51.715
			c-5.027,0.318-10.033,0.999-14.971,2.056c-35.557,7.611-66.496,34.5-79.321,68.937c-7.542,20.253-9.649,43.571-23.962,59.647
			c-18.627,20.922-50.251,21.579-78.055,20.712c-27.804-0.867-59.449-0.128-77.985,20.877
			c-11.609,13.154-15.299,31.861-14.362,49.478c2.478,46.641,34.979,88.345,76.311,109.074
			c41.332,20.729,89.996,22.586,135.232,13.467c63.37-12.774,123.634-47.855,159.857-102.038
			C455.278,228.703,464.445,154.884,435.463,96.403z"/>
	</g>
	<g style="display:inline;">
		
			<ellipse transform="matrix(0.2327 -0.9726 0.9726 0.2327 8.4078 181.1326)" style="fill:#F5F5F5;" cx="118.992" cy="85.238" rx="29.275" ry="29.275"/>
	</g>
</g>
<g id="Table">
	<g>
		<g>
			<path style="fill:#263238;" d="M448.064,465.303c0,0.144-88.683,0.26-198.055,0.26c-109.409,0-198.074-0.117-198.074-0.26
				c0-0.144,88.664-0.26,198.074-0.26C359.381,465.043,448.064,465.159,448.064,465.303z"/>
		</g>
	</g>
</g>
<g id="Character_2">
	<g>
		<g>
			<g>
				<g>
					<g>
						<g>
							<g>
								<g>
									<g>
										<path style="fill:#263238;" d="M267.494,93.594c0.426-7.515,5.047-12.137,11.522-15.974
											c6.475-3.837,14.871-4.218,21.667-0.982c4.545,2.164,8.523,5.859,13.516,6.503c8.221,1.061,16.003-6.557,24.071-4.655
											c4.776,1.126,8.415,5.904,8.231,10.807c-0.183,4.903-4.169,9.396-9.015,10.162c5.384,0.78,8.431,7.59,6.441,12.653
											c-1.991,5.063-7.641,8-13.08,8.118c-5.439,0.118-10.666-2.102-15.371-4.832c-4.705-2.731-9.097-6.015-14.004-8.363
											c-4.907-2.348-10.552-3.72-15.809-2.321c-7.117,1.894-12.16,8.614-14.016,15.741c-1.857,7.127-1.056,14.655,0.049,21.937
											c1.106,7.282,2.509,14.626,1.817,21.958c-0.082,0.861-0.273,1.846-1.03,2.264c-1.094,0.603-2.347-0.429-3.152-1.384
											c-9.094-10.781-16.041-23.365-20.317-36.805c-2.484-7.806-3.853-15.404-0.872-23.033S261.17,90.493,267.494,93.594"/>
									</g>
								</g>
							</g>
						</g>
					</g>
				</g>
				<g>
					<g>
						<g>
							<g>
								<g>
									<g>
										<g>
											<g>
												<g>
													<g>
														<g>
															<g>
																<g>
																	<g>
																		<g>
																			<g>
																				<g>
																					<g>
																						<g>
																							<path style="fill:#FFBF9D;" d="M260.561,129.909l12.033,74.238c2.247,13.863,11.256,27.258,33.012,22.706
																								l0,0c18.578-5.373,17.198-18.737,14.777-35.214c0,0,0.061,0.637,0,0c0,0,20.436-5.316,18.606-26.098
																								c-0.885-10.043-4.391-30.581-7.779-49.125c-3.638-19.915-21.982-33.684-42.125-31.659l-2.003,0.201
																								C265.614,88.391,256.535,108.543,260.561,129.909z"/>
																						</g>
																					</g>
																				</g>
																			</g>
																		</g>
																	</g>
																</g>
															</g>
														</g>
													</g>
												</g>
											</g>
										</g>
										<g>
											<g>
												<g>
													<g>
														<g>
															<g>
																<g>
																	<g>
																		<g>
																			<g>
																				<g>
																					<g>
																						<g>
																							<path style="fill:#FF9A6C;" d="M320.383,191.639c0,0-13.006,2.083-27.83-5.273c0,0,8.15,15.44,28.674,11.488
																								L320.383,191.639z"/>
																						</g>
																					</g>
																				</g>
																			</g>
																		</g>
																	</g>
																</g>
															</g>
														</g>
													</g>
												</g>
											</g>
										</g>
									</g>
								</g>
							</g>
							<g>
								<g>
									<g>
										<g>
											<g>
												<g>
													<g>
														<g>
															<g>
																<g>
																	<g>
																		<g>
																			<g>
																				<g>
																					<g>
																						<g>
																							<g>
																								<g>
																									<g>
																										<path style="fill:#263238;" d="M324.169,137.207c0.213,1.56-0.932,3.026-2.558,3.278
																											c-1.622,0.251-3.111-0.805-3.324-2.365c-0.213-1.56,0.932-3.028,2.554-3.28
																											C322.466,134.587,323.956,135.647,324.169,137.207z"/>
																									</g>
																								</g>
																							</g>
																						</g>
																					</g>
																				</g>
																			</g>
																		</g>
																	</g>
																</g>
															</g>
														</g>
													</g>
													<g>
														<g>
															<g>
																<g>
																	<g>
																		<g>
																			<g>
																				<g>
																					<g>
																						<g>
																							<g>
																								<g>
																									<g>
																										<g>
																											<path style="fill:#263238;" d="M327.775,127.051c-0.329,0.423-2.741-1.013-5.931-0.683
																												c-3.19,0.283-5.366,2.159-5.751,1.804c-0.188-0.156,0.116-0.892,1.061-1.736
																												c0.929-0.84,2.568-1.731,4.556-1.922c1.988-0.189,3.733,0.374,4.769,1.027
																												C327.537,126.195,327.939,126.86,327.775,127.051z"/>
																										</g>
																									</g>
																								</g>
																							</g>
																						</g>
																					</g>
																				</g>
																			</g>
																		</g>
																	</g>
																</g>
															</g>
														</g>
													</g>
												</g>
												<g>
													<g>
														<g>
															<g>
																<g>
																	<g>
																		<g>
																			<g>
																				<g>
																					<g>
																						<g>
																							<g>
																								<g>
																									<g>
																										<path style="fill:#263238;" d="M294.283,139.118c0.213,1.56-0.933,3.026-2.557,3.278
																											c-1.621,0.252-3.111-0.805-3.324-2.365c-0.213-1.56,0.933-3.028,2.555-3.279
																											C292.581,136.498,294.071,137.558,294.283,139.118z"/>
																									</g>
																								</g>
																							</g>
																						</g>
																					</g>
																				</g>
																			</g>
																		</g>
																	</g>
																</g>
															</g>
														</g>
													</g>
													<g>
														<g>
															<g>
																<g>
																	<g>
																		<g>
																			<g>
																				<g>
																					<g>
																						<g>
																							<g>
																								<g>
																									<g>
																										<g>
																											<path style="fill:#263238;" d="M296.481,130.799c-0.329,0.424-2.745-1.012-5.932-0.683
																												c-3.189,0.283-5.366,2.159-5.752,1.803c-0.187-0.156,0.114-0.89,1.063-1.735
																												c0.929-0.841,2.568-1.731,4.555-1.923c1.988-0.188,3.733,0.375,4.77,1.027
																												C296.239,129.942,296.643,130.608,296.481,130.799z"/>
																										</g>
																									</g>
																								</g>
																							</g>
																						</g>
																					</g>
																				</g>
																			</g>
																		</g>
																	</g>
																</g>
															</g>
														</g>
													</g>
												</g>
												<g>
													<g>
														<g>
															<g>
																<g>
																	<g>
																		<g>
																			<g>
																				<g>
																					<g>
																						<g>
																							<g>
																								<g>
																									<g>
																										<path style="fill:#263238;" d="M310.436,153.291c-0.033-0.18,1.915-0.722,5.087-1.456
																											c0.806-0.166,1.561-0.405,1.642-0.975c0.133-0.608-0.296-1.452-0.786-2.36
																											c-0.964-1.894-1.973-3.879-3.033-5.96c-4.233-8.494-7.384-15.512-7.041-15.679
																											c0.344-0.168,4.054,6.582,8.286,15.076c1.025,2.097,2.003,4.095,2.936,6.007
																											c0.401,0.895,1.037,1.892,0.744,3.155c-0.158,0.63-0.711,1.133-1.219,1.325
																											c-0.506,0.212-0.964,0.267-1.364,0.332C312.47,153.255,310.466,153.471,310.436,153.291z"/>
																									</g>
																								</g>
																							</g>
																						</g>
																					</g>
																				</g>
																			</g>
																		</g>
																	</g>
																</g>
															</g>
														</g>
													</g>
												</g>
											</g>
										</g>
									</g>
									<g>
										<g>
											<g>
												<g>
													<g>
														<g>
															<g>
																<g>
																	<g>
																		<g>
																			<g>
																				<g>
																					<g>
																						<path style="fill:#263238;" d="M296.048,118.215c-0.228,0.899-3.454,0.808-7.151,1.636
																							c-3.714,0.753-6.622,2.152-7.196,1.424c-0.259-0.35,0.185-1.219,1.321-2.182
																							c1.125-0.96,2.975-1.951,5.197-2.426c2.222-0.471,4.315-0.322,5.733,0.096
																							C295.382,117.179,296.141,117.79,296.048,118.215z"/>
																					</g>
																				</g>
																			</g>
																		</g>
																	</g>
																</g>
															</g>
														</g>
													</g>
												</g>
											</g>
										</g>
									</g>
									<g>
										<g>
											<g>
												<g>
													<g>
														<g>
															<g>
																<g>
																	<g>
																		<g>
																			<g>
																				<g>
																					<g>
																						<path style="fill:#263238;" d="M325.674,117.938c-0.488,0.781-2.761,0.25-5.407,0.48
																							c-2.654,0.137-4.831,0.977-5.422,0.271c-0.263-0.345,0.016-1.106,0.925-1.89c0.895-0.78,2.45-1.5,4.271-1.628
																							c1.822-0.125,3.461,0.373,4.455,1.023C325.505,116.844,325.887,117.559,325.674,117.938z"/>
																					</g>
																				</g>
																			</g>
																		</g>
																	</g>
																</g>
															</g>
														</g>
													</g>
												</g>
											</g>
										</g>
									</g>
								</g>
							</g>
						</g>
					</g>
				</g>
				<g>
					<g>
						<g>
							<g>
								<g>
									<g>
										<g>
											<g>
												<g>
													<g>
														<g>
															<g>
																<g>
																	<g>
																		<path style="fill:#FFBF9D;" d="M263.802,145.108c-0.369-0.118-14.687-2.784-12.806,11.361
																			c1.88,14.146,15.693,9.34,15.664,8.931C266.63,164.991,263.802,145.108,263.802,145.108z"/>
																	</g>
																</g>
															</g>
														</g>
													</g>
												</g>
											</g>
										</g>
									</g>
								</g>
							</g>
						</g>
					</g>
					<g>
						<g>
							<g>
								<g>
									<g>
										<g>
											<g>
												<g>
													<g>
														<g>
															<g>
																<g>
																	<g>
																		<g>
																			<path style="fill:#FF9A6C;" d="M261.627,160.615c-0.069-0.037-0.224,0.206-0.615,0.452
																				c-0.381,0.24-1.063,0.461-1.837,0.283c-1.567-0.35-3.141-2.556-3.548-5.095c-0.207-1.283-0.1-2.545,0.221-3.62
																				c0.295-1.092,0.867-1.904,1.602-2.138c0.725-0.272,1.318,0.107,1.544,0.482c0.242,0.37,0.19,0.664,0.268,0.679
																				c0.044,0.03,0.272-0.277,0.08-0.847c-0.096-0.273-0.306-0.585-0.674-0.812c-0.376-0.231-0.894-0.305-1.411-0.179
																				c-1.081,0.221-1.929,1.354-2.283,2.535c-0.413,1.194-0.563,2.616-0.331,4.057
																				c0.47,2.838,2.284,5.311,4.407,5.631c1.03,0.127,1.82-0.283,2.204-0.674
																				C261.647,160.96,261.679,160.634,261.627,160.615z"/>
																		</g>
																	</g>
																</g>
															</g>
														</g>
													</g>
												</g>
											</g>
										</g>
									</g>
								</g>
							</g>
						</g>
					</g>
				</g>
				<g>
					<path style="fill:#263238;" d="M329.516,97.06c-2.258-3.893-5.879-6.823-9.724-9.163c-8.289-5.042-18.114-7.714-27.781-6.892
						c-9.667,0.822-19.099,5.265-25.406,12.636c-5.047,5.898-7.971,13.452-8.905,21.158c-0.934,7.706,0.05,15.566,2.177,23.032
						c0.934,3.277,2.192,6.65,4.78,8.866c1.617,1.384,4.232,2.14,5.782,0.68c0.912-0.86,1.142-2.2,1.323-3.44
						c1.63-11.225,3.14-23.271-1.931-33.416c2.357-3.81,5.186-7.419,8.871-9.966c3.685-2.547,8.325-3.943,12.716-3.06
						c6.523,1.312,11.038,7.074,16.518,10.848c7.832,5.394,18.337,6.674,27.235,3.321L329.516,97.06z"/>
				</g>
			</g>
			<g>
				<g>
					<g>
						<g>
							<g>
								<path style="fill:#FF9A6C;" d="M313.244,161.91c-0.228,1.332-0.464,2.685-1.06,3.898c-0.596,1.213-1.614,2.288-2.923,2.627
									c-1.394,0.362-2.926-0.188-3.956-1.193c-1.031-1.006-1.603-2.41-1.835-3.831c-0.209-1.285,0.056-2.927,1.29-3.342
									c0.514-0.173,1.075-0.078,1.608,0.019c2.405,0.435,4.811,0.87,7.216,1.306"/>
							</g>
						</g>
					</g>
				</g>
				<g>
					<g>
						<g>
							<g>
								<g>
									<path style="fill:#263238;" d="M311.733,167.938c-0.078-0.202-1.414,0.697-3.639,0.304
										c-1.077-0.192-2.332-0.756-3.192-1.876c-0.856-1.104-1.324-2.745-0.998-4.333c0.07-0.395,0.22-0.774,0.372-1.116
										c0.206-0.332,0.16-0.309,0.456-0.327c0.286,0.016,0.767,0.131,1.153,0.195c0.402,0.073,0.798,0.146,1.186,0.216
										c1.544,0.278,2.939,0.512,4.113,0.691c2.348,0.358,3.817,0.497,3.85,0.333c0.033-0.164-1.376-0.601-3.682-1.174
										c-1.153-0.287-2.529-0.608-4.061-0.946c-0.385-0.084-0.778-0.17-1.178-0.257c-0.422-0.078-0.754-0.19-1.319-0.246
										c-0.275-0.019-0.652,0.017-0.981,0.235c-0.321,0.216-0.491,0.5-0.612,0.733c-0.214,0.458-0.392,0.92-0.484,1.418
										c-0.402,1.982,0.208,3.955,1.316,5.279c1.132,1.353,2.697,1.92,3.947,2.023c1.273,0.118,2.286-0.186,2.905-0.491
										C311.51,168.288,311.772,167.998,311.733,167.938z"/>
								</g>
							</g>
						</g>
					</g>
				</g>
			</g>
		</g>
		<g>
			<g>
				<path style="fill:#455A64;" d="M343.01,81.375c0.031-0.008,0.126,0.31,0.28,0.931c0.098,0.626,0.246,1.574,0.093,2.79
					c-0.231,2.393-1.628,5.967-5.132,8.69c-3.48,2.761-8.983,3.872-14.652,3.006c-5.745-0.786-11.484-3.546-17.489-6.017
					c-5.976-2.473-12.16-4.14-17.682-3.128c-5.518,0.936-9.798,4.111-12.611,7.216c-2.858,3.141-4.457,6.26-5.39,8.439
					c-0.905,2.206-1.22,3.5-1.313,3.475c-0.031-0.008,0.03-0.334,0.176-0.951c0.124-0.624,0.411-1.514,0.801-2.657
					c0.842-2.248,2.374-5.47,5.238-8.744c2.817-3.232,7.189-6.589,12.952-7.619c5.771-1.101,12.152,0.619,18.176,3.111
					c6.054,2.496,11.701,5.227,17.266,6.031c5.504,0.886,10.781-0.128,14.133-2.683c3.395-2.533,4.841-5.919,5.17-8.215
					C343.383,82.697,342.888,81.388,343.01,81.375z"/>
			</g>
		</g>
		<g>
			<g>
				<path style="fill:#455A64;" d="M250.126,124.467c-0.099-0.009-0.097-1.541,0.553-3.909c0.622-2.362,1.971-5.551,4.292-8.518
					c1.146-1.49,2.43-2.751,3.681-3.792c1.252-1.042,2.61-1.805,3.88-2.036c1.267-0.239,2.326,0.013,2.954,0.333
					c0.636,0.328,0.871,0.657,0.835,0.696c-0.04,0.139-1.355-0.975-3.646-0.39c-2.224,0.569-4.723,2.961-6.974,5.758
					c-2.237,2.86-3.631,5.886-4.396,8.142C250.513,123.007,250.28,124.491,250.126,124.467z"/>
			</g>
		</g>
		<g>
			<g>
				<path style="fill:#455A64;" d="M253.876,136.713c-0.098-0.016,0.03-1.547,0.803-3.895c0.764-2.342,2.294-5.461,4.719-8.371
					c2.436-2.903,5.236-4.961,7.405-6.127c2.174-1.177,3.658-1.574,3.691-1.48c0.059,0.144-1.324,0.753-3.358,2.043
					c-2.035,1.282-4.67,3.349-7.029,6.158c-2.346,2.817-3.914,5.776-4.816,8.006C254.383,135.277,254.027,136.746,253.876,136.713z"
					/>
			</g>
		</g>
	</g>
	<g>
		<g>
			<path style="fill:#455A64;" d="M330.084,216.819c0,0,15.17,19.568,18.817,26.92s29.806,88.564,29.806,88.564l-11.345,4.768
				L330.084,216.819z"/>
		</g>
		<g>
			<polygon style="fill:#EBEBEB;" points="269.046,198.502 269.046,188.694 324.165,206.615 338.934,230.25 350.314,263.258 
				318.406,215.307 			"/>
		</g>
		<g>
			<path style="fill:#455A64;" d="M265.773,207.929c0,0-23.387,27.976-22.881,46.162c0.499,17.909,24.788,126.74,24.788,126.74
				l-5.88,19.449l-6.367,64.822h132.494l-9.22-132.799c-1.472-0.087-29.049-76.109-29.049-76.109l-30.819-42.797l-50.754-18.287
				L265.773,207.929z"/>
		</g>
		<g>
			<path style="fill:#455A64;" d="M366.739,300.673c0,0,9.267-0.367,14.106,1.793c4.839,2.16,8.934,1.08,12.357,7.776
				c3.423,6.696,7.42,9.72,8.262,19.873c0.842,10.152-10.123,33.66-17.363,36.964C376.862,370.382,366.739,300.673,366.739,300.673z
				"/>
		</g>
		<g style="opacity:0.3;">
			<path d="M263.091,299.75c0,0,54.169,50.846,61.062,55.708c6.892,4.863,7.911,35.615,16.4,36.198
				c8.489,0.583,35.992-19.759,35.992-19.759l-81.491-76.768L263.091,299.75z"/>
		</g>
		<g>
			<g>
				<path style="fill:#FFBF9D;" d="M339.373,345.277c0,0-11.78,15.077-13.13,18.855c-1.349,3.778-2.659,6.29-1.22,7.55
					s2.69,1.411,4.13,0.863c1.921-0.731,11.388-13.225,11.388-13.225s-12.559,17.914-13.13,21.004
					c-0.575,3.108,1.889,4.588,4.768,4.048c2.879-0.54,8.362-8.636,8.362-8.636s-7.771,8.996-6.132,10.525
					c1.638,1.529,3.528,1.709,5.687,0.63c2.159-1.079,7.646-8.186,7.646-8.186s-3.778,4.048-1.709,5.038
					c2.069,0.99,2.249,1.099,4.048-0.395c1.799-1.494,17.681-17.041,17.681-17.041l-10.034-6.852L339.373,345.277z"/>
			</g>
			<g>
				<g>
					<path style="fill:#FF9A6C;" d="M344.204,354.488c0.057,0.049-0.672,0.996-1.848,2.526c-1.272,1.657-2.85,3.711-4.595,5.983
						c-1.805,2.332-3.495,4.404-4.768,5.861c-1.272,1.458-2.113,2.311-2.164,2.266c-0.057-0.05,0.685-0.987,1.881-2.501
						c1.285-1.646,2.878-3.687,4.64-5.945c1.804-2.329,3.465-4.422,4.72-5.895C343.322,355.308,344.152,354.444,344.204,354.488z"/>
				</g>
			</g>
			<g>
				<g>
					<path style="fill:#FF9A6C;" d="M352.546,361.712c0.11,0.093-2.702,3.593-6.28,7.816c-3.579,4.225-6.568,7.573-6.677,7.48
						c-0.11-0.093,2.702-3.592,6.28-7.816C349.446,364.968,352.436,361.619,352.546,361.712z"/>
				</g>
			</g>
			<g>
				<g>
					<path style="fill:#FF9A6C;" d="M359.237,366.238c0.106,0.097-2.841,3.488-6.582,7.574c-3.742,4.087-6.86,7.32-6.967,7.223
						c-0.106-0.097,2.84-3.488,6.582-7.575C356.012,369.375,359.131,366.141,359.237,366.238z"/>
				</g>
			</g>
		</g>
		<g>
			<g>
				<path style="fill:#455A64;" d="M272.94,225.344c7.606-1.614,17.273-2.286,24.626,1.884l40.195,36.258
					c0,0,56.648,63.554,58.872,67.096c2.225,3.542,5.209,24.458-3.375,35.116c-8.584,10.658-18.218,6.56-29.234,4.048
					c-8.718-1.987-69.626-46.742-94.664-65.331c-8.658-6.428-15.014-15.532-17.797-25.951c-1.668-6.246-2.77-13.49-2.015-20.663"/>
			</g>
			<g>
				<g>
					<path style="fill:#263238;" d="M249.548,257.801c0,0-0.014,0.355-0.066,1.044c-0.049,0.689-0.101,1.717-0.118,3.064
						c-0.016,2.692,0.181,6.684,1.18,11.707c0.511,2.506,1.167,5.283,2.199,8.217c1.021,2.937,2.481,6.005,4.383,9.095
						c1.923,3.074,4.323,6.159,7.275,9.027c2.91,2.919,6.532,5.372,10.201,8.116c14.754,10.869,32.348,23.781,52.159,37.727
						c4.957,3.48,10.057,7.018,15.312,10.565c5.263,3.53,10.649,7.135,16.34,10.433c1.432,0.798,2.874,1.621,4.386,2.249
						c0.744,0.329,1.521,0.514,2.35,0.704l2.441,0.593c3.252,0.805,6.529,1.64,9.893,1.957c3.337,0.287,6.846-0.082,9.811-1.788
						c2.966-1.638,5.458-4.196,7.254-7.128c2.887-4.999,3.951-10.806,4.144-16.434c0.103-2.827-0.004-5.65-0.347-8.423
						c-0.17-1.387-0.397-2.761-0.687-4.115c-0.347-1.323-0.629-2.722-1.348-3.828c-1.645-2.161-3.495-4.245-5.254-6.319
						c-1.787-2.064-3.561-4.112-5.32-6.144c-3.543-4.043-7.027-8.02-10.446-11.922c-13.755-15.54-26.463-29.896-37.684-42.573
						l0.016,0.016c-16.613-15.032-30.311-27.426-40.139-36.319l0.022,0.016c-3.566-2.004-7.203-2.705-10.294-3.005
						c-3.115-0.272-5.762-0.122-7.876,0.071c-2.117,0.205-3.713,0.475-4.782,0.656c-0.526,0.096-0.925,0.17-1.205,0.221
						c-0.27,0.048-0.407,0.065-0.407,0.065s0.537-0.134,1.601-0.351c1.066-0.203,2.661-0.494,4.781-0.72
						c2.118-0.214,4.773-0.386,7.906-0.132c3.11,0.282,6.779,0.967,10.4,2.979l0.011,0.006l0.011,0.01
						c9.855,8.863,23.591,21.215,40.25,36.197l0.008,0.007l0.008,0.009c11.271,12.632,24.018,26.954,37.746,42.522
						c3.423,3.9,6.91,7.875,10.457,11.916c1.761,2.032,3.537,4.08,5.326,6.144c1.773,2.091,3.587,4.121,5.298,6.372
						c0.216,0.279,0.338,0.637,0.509,0.954c0.14,0.33,0.238,0.667,0.358,1.001c0.228,0.67,0.377,1.357,0.552,2.039
						c0.295,1.375,0.525,2.765,0.697,4.166c0.347,2.802,0.456,5.648,0.353,8.504c-0.196,5.683-1.26,11.563-4.216,16.685
						c-1.852,3.016-4.375,5.61-7.451,7.316c-3.069,1.765-6.709,2.144-10.105,1.848c-3.424-0.324-6.723-1.168-9.972-1.973
						l-2.435-0.592c-0.796-0.181-1.649-0.385-2.427-0.729c-1.56-0.649-3.001-1.475-4.445-2.28
						c-5.716-3.317-11.099-6.926-16.365-10.464c-5.256-3.553-10.354-7.098-15.31-10.585c-19.802-13.972-37.374-26.915-52.102-37.824
						c-3.654-2.747-7.287-5.223-10.214-8.176c-2.963-2.896-5.368-6.009-7.291-9.11c-1.902-3.116-3.357-6.208-4.37-9.166
						c-1.024-2.957-1.667-5.744-2.164-8.26c-0.972-5.044-1.136-9.051-1.086-11.748C249.325,259.206,249.548,257.801,249.548,257.801
						z"/>
				</g>
			</g>
		</g>
		<g>
			<g>
				<path style="fill:#263238;" d="M351.451,260.853c-0.005,0.007-0.083-0.043-0.229-0.147c-0.168-0.125-0.379-0.281-0.639-0.474
					c-0.548-0.435-1.403-1.021-2.406-1.895c-2.065-1.679-4.9-4.289-8.29-7.621c-3.392-3.331-7.31-7.415-11.764-11.838
					c-2.244-2.192-4.598-4.498-7.167-6.741c-2.555-2.255-5.284-4.509-8.3-6.49c-1.214-0.878-2.536-1.549-3.771-2.301l-0.172-0.105
					l0.041-0.182c0.208-0.911,0.412-1.809,0.613-2.689l0.175,0.303c-12.204-3.842-22.994-7.238-30.778-9.689
					c-3.838-1.232-6.933-2.225-9.11-2.923c-1.037-0.343-1.854-0.614-2.449-0.811c-0.255-0.09-0.462-0.162-0.631-0.222
					c-0.141-0.053-0.212-0.083-0.21-0.091c0.003-0.008,0.078,0.007,0.224,0.044c0.172,0.047,0.384,0.105,0.645,0.176
					c0.602,0.176,1.428,0.418,2.476,0.725c2.189,0.663,5.299,1.605,9.157,2.774c7.797,2.409,18.605,5.748,30.829,9.524l0.228,0.07
					l-0.053,0.233c-0.199,0.88-0.403,1.778-0.61,2.69l-0.13-0.286c1.249,0.759,2.59,1.439,3.814,2.325
					c3.046,2.001,5.787,4.272,8.349,6.541c2.577,2.258,4.929,4.577,7.168,6.783c4.442,4.449,8.331,8.557,11.686,11.917
					c3.352,3.362,6.142,6.005,8.161,7.728c0.981,0.896,1.813,1.506,2.34,1.967c0.248,0.21,0.448,0.379,0.607,0.515
					C351.39,260.782,351.457,260.846,351.451,260.853z"/>
			</g>
		</g>
		<g>
			<g>
				<path style="fill:#263238;" d="M371.343,301.788c-0.02,0.066-0.438-0.705-1.13-2.045c-0.714-1.418-1.695-3.366-2.895-5.746
					c-2.419-4.864-5.722-11.602-9.337-19.059c-3.616-7.46-6.859-14.228-9.179-19.139c-1.128-2.415-2.05-4.391-2.722-5.829
					c-0.292-0.652-0.529-1.181-0.715-1.597c-0.158-0.368-0.233-0.564-0.217-0.572s0.123,0.174,0.312,0.527
					c0.209,0.405,0.475,0.92,0.803,1.554c0.708,1.42,1.681,3.372,2.871,5.757c2.411,4.935,5.691,11.651,9.316,19.072
					c3.579,7.441,6.819,14.175,9.199,19.125c1.137,2.41,2.068,4.382,2.745,5.818C371.031,301.021,371.387,301.821,371.343,301.788z"
					/>
			</g>
		</g>
		<g>
			<g>
				<path style="fill:#263238;" d="M277.707,411.492c0.005-0.006,0.127-0.002,0.361,0.013c0.256,0.019,0.597,0.043,1.032,0.075
					c0.928,0.076,2.254,0.184,3.956,0.323c3.455,0.298,8.429,0.727,14.621,1.26c12.406,1.108,29.684,2.651,49.291,4.402
					l-0.273,0.318c-1.023-4.126-2.093-8.442-3.184-12.841c-0.499-2.015-0.993-4.013-1.476-5.963l0.222,0.195
					c-22.029-2.556-41.6-4.827-55.193-6.404l0.17-0.087c-3.241,5.743-5.739,10.378-7.369,13.601
					c-0.813,1.612-1.408,2.874-1.761,3.745c-0.178,0.435-0.295,0.774-0.347,1.006C277.692,411.37,277.722,411.48,277.707,411.492
					c-0.037,0.017-0.052-0.521,0.306-1.396c0.326-0.889,0.895-2.166,1.683-3.794c1.581-3.255,4.032-7.916,7.236-13.687l0.055-0.1
					l0.115,0.013c13.599,1.535,33.177,3.744,55.213,6.231l0.179,0.02l0.043,0.176c0.483,1.949,0.978,3.947,1.478,5.962
					c1.089,4.399,2.156,8.715,3.177,12.842l0.087,0.352l-0.36-0.034c-19.656-1.838-36.978-3.458-49.415-4.621
					c-6.167-0.596-11.121-1.075-14.562-1.408c-1.679-0.17-2.987-0.303-3.903-0.396c-0.423-0.047-0.755-0.084-1.003-0.111
					C277.814,411.515,277.702,411.498,277.707,411.492z"/>
			</g>
		</g>
		<g style="opacity:0.3;">
			<polygon points="279.503,411.656 281.87,417.822 346.944,421.704 346.944,417.822 			"/>
		</g>
	</g>
</g>
<g id="Character_1">
	<g>
		<g>
			<g>
				<path style="fill:#263238;" d="M190.028,101.561c-0.2-3.477-3.091-6.395-6.413-7.441s-6.955-0.518-10.261,0.579
					c-7.211,2.392-13.27,7.296-19.154,12.101c-9.129,7.456-17.996,17.687-21.483,28.946c-2.626,8.48-3.386,14.02-0.689,23.036
					c2.386,7.977,4.275,15.713,3.801,22.384c-0.749,10.55-2.029,13.031-4.739,23.382c-1.695,6.476,4.074,23.403,4.074,23.403
					l36.49-13.958c13.027-6.123,41.069-17.545,41.069-17.545L190.028,101.561z"/>
			</g>
			<g>
				<g>
					<g>
						<g>
							<g>
								<g>
									<g>
										<g>
											<g>
												<g>
													<g>
														<g>
															<g>
																<g>
																	<g>
																		<g>
																			<g>
																				<g>
																					<g>
																						<g>
																							<g>
																								<path style="fill:#B56760;" d="M169.511,225.286c0.057-8.874,0.145-15.052,0.14-14.988
																									c0,0-15.93-3.676-19.14-26.402c-1.596-11.302-2.429-29.268-1.218-44.358
																									c1.09-13.582,10.385-30.11,23.909-28.444l42.121,11.419c4.108,0.506,5.483,4.009,5.33,8.146l0.309,1.943
																									l-3.086,64.874l1.328,27.593c-0.539,12.327-12.736,23.536-25.063,24.101l0,0
																									C180.5,249.796,169.423,238.941,169.511,225.286z"/>
																							</g>
																						</g>
																					</g>
																				</g>
																			</g>
																		</g>
																	</g>
																</g>
															</g>
														</g>
													</g>
													<g>
														<g>
															<g>
																<g>
																	<g>
																		<g>
																			<g>
																				<g>
																					<g>
																						<g>
																							<g>
																								<g>
																									<path style="fill:#263238;" d="M158.83,157.63c-0.081,1.534,1.152,2.867,2.753,2.981
																										c1.598,0.113,2.961-1.035,3.041-2.569c0.08-1.534-1.152-2.869-2.749-2.983
																										C160.273,154.946,158.91,156.097,158.83,157.63z"/>
																								</g>
																							</g>
																						</g>
																					</g>
																				</g>
																			</g>
																		</g>
																	</g>
																</g>
															</g>
														</g>
														<g>
															<g>
																<g>
																	<g>
																		<g>
																			<g>
																				<g>
																					<g>
																						<g>
																							<g>
																								<g>
																									<g>
																										<path style="fill:#263238;" d="M155.007,149.756c0.354,0.385,2.584-1.207,5.712-1.145
																											c3.125,0.017,5.393,1.665,5.739,1.289c0.17-0.167-0.186-0.857-1.173-1.603
																											c-0.971-0.741-2.637-1.475-4.586-1.5c-1.948-0.023-3.599,0.667-4.554,1.384
																											C155.17,148.903,154.832,149.583,155.007,149.756z"/>
																									</g>
																								</g>
																							</g>
																						</g>
																					</g>
																				</g>
																			</g>
																		</g>
																	</g>
																</g>
															</g>
														</g>
													</g>
													<g>
														<g>
															<g>
																<g>
																	<g>
																		<g>
																			<g>
																				<g>
																					<g>
																						<g>
																							<g>
																								<g>
																									<path style="fill:#263238;" d="M188.102,157.286c-0.081,1.534,1.152,2.867,2.752,2.981
																										c1.598,0.113,2.961-1.035,3.041-2.569c0.08-1.534-1.152-2.869-2.75-2.982
																										C189.545,154.601,188.182,155.752,188.102,157.286z"/>
																								</g>
																							</g>
																						</g>
																					</g>
																				</g>
																			</g>
																		</g>
																	</g>
																</g>
															</g>
														</g>
														<g>
															<g>
																<g>
																	<g>
																		<g>
																			<g>
																				<g>
																					<g>
																						<g>
																							<g>
																								<g>
																									<g>
																										<path style="fill:#263238;" d="M185.005,149.667c0.355,0.385,2.588-1.207,5.713-1.144
																											c3.124,0.017,5.393,1.665,5.739,1.288c0.169-0.167-0.182-0.857-1.173-1.602
																											c-0.971-0.742-2.637-1.475-4.586-1.501c-1.948-0.022-3.599,0.667-4.554,1.385
																											C185.171,148.814,184.831,149.494,185.005,149.667z"/>
																									</g>
																								</g>
																							</g>
																						</g>
																					</g>
																				</g>
																			</g>
																		</g>
																	</g>
																</g>
															</g>
														</g>
													</g>
													<g>
														<g>
															<g>
																<g>
																	<g>
																		<g>
																			<g>
																				<g>
																					<g>
																						<g>
																							<g>
																								<g>
																									<path style="fill:#263238;" d="M172.447,173.322c0.018-0.177-1.921-0.547-5.065-1.004
																										c-0.797-0.096-1.55-0.268-1.675-0.815c-0.179-0.581,0.171-1.436,0.573-2.358
																										c0.784-1.92,1.605-3.932,2.467-6.041c3.428-8.603,5.925-15.682,5.578-15.817
																										c-0.347-0.135-3.41,6.728-6.838,15.331c-0.826,2.122-1.616,4.144-2.368,6.079
																										c-0.318,0.902-0.855,1.923-0.468,3.128c0.205,0.6,0.783,1.044,1.293,1.19
																										c0.509,0.165,0.958,0.181,1.353,0.212C170.465,173.452,172.432,173.5,172.447,173.322z"/>
																								</g>
																							</g>
																						</g>
																					</g>
																				</g>
																			</g>
																		</g>
																	</g>
																</g>
															</g>
														</g>
													</g>
													<g>
														<g>
															<g>
																<g>
																	<g>
																		<g>
																			<g>
																				<g>
																					<g>
																						<g>
																							<g>
																								<path style="fill:#8A4A43;" d="M169.65,210.298c0,0,15.231,1.245,30.492-7.575
																									c0,0-7.931,15.865-30.579,13.355L169.65,210.298z"/>
																							</g>
																						</g>
																					</g>
																				</g>
																			</g>
																		</g>
																	</g>
																</g>
															</g>
														</g>
													</g>
												</g>
											</g>
										</g>
										<g>
											<g>
												<g>
													<g>
														<g>
															<g>
																<g>
																	<g>
																		<g>
																			<g>
																				<g>
																					<path style="fill:#263238;" d="M183.999,138.607c0.366,0.828,3.455,0.212,7.146,0.403
																						c3.696,0.116,6.722,0.986,7.155,0.192c0.192-0.379-0.377-1.142-1.627-1.882
																						c-1.24-0.739-3.181-1.39-5.396-1.484c-2.215-0.09-4.203,0.397-5.5,1.031
																						C184.471,137.501,183.84,138.214,183.999,138.607z"/>
																				</g>
																			</g>
																		</g>
																	</g>
																</g>
															</g>
														</g>
													</g>
												</g>
											</g>
										</g>
										<g>
											<g>
												<g>
													<g>
														<g>
															<g>
																<g>
																	<g>
																		<g>
																			<g>
																				<g>
																					<path style="fill:#263238;" d="M154.128,139.991c0.639,0.721,3.201,0.028,6.267,0.046
																						c3.066-0.073,5.653,0.575,6.263-0.158c0.268-0.356-0.129-1.075-1.252-1.767
																						c-1.106-0.689-2.966-1.269-5.073-1.252c-2.107,0.02-3.944,0.633-5.022,1.342
																						C154.215,138.914,153.847,139.639,154.128,139.991z"/>
																				</g>
																			</g>
																		</g>
																	</g>
																</g>
															</g>
														</g>
													</g>
												</g>
											</g>
										</g>
									</g>
								</g>
							</g>
						</g>
					</g>
				</g>
			</g>
			<g>
				<path style="fill:#8A4A43;" d="M173.189,181.032c0.706-1.308,3.305-3.171,6.064-2.776l-0.001,0
					c0.077-0.002,0.152-0.002,0.219,0.003c1.302,0.096,2.589,0.889,3.049,2.11c0.421,1.118,0.094,2.429-0.651,3.362
					c-0.745,0.933-1.856,1.519-3.008,1.833c-1.486,0.405-3.173,0.361-4.45-0.5C173.135,184.203,172.458,182.387,173.189,181.032z"/>
			</g>
			<g>
				<path style="fill:#263238;" d="M181.942,176.293c-0.155-0.025-0.346,0.79-0.925,1.954c-0.567,1.158-1.606,2.661-3.203,3.773
					c-1.599,1.11-3.37,1.561-4.653,1.689c-1.292,0.138-2.123,0.033-2.153,0.187c-0.032,0.118,0.772,0.487,2.181,0.532
					c1.389,0.054,3.405-0.322,5.206-1.573c1.799-1.252,2.853-3.011,3.286-4.332C182.129,177.186,182.063,176.304,181.942,176.293z"
					/>
			</g>
			<g>
				<path style="fill:#263238;" d="M148.715,165.708l-4.698-19.001c-4.217-5.821-0.925-15.315,2.067-21.851
					c2.992-6.536,8.69-11.541,15.034-14.921c6.343-3.38,13.353-5.288,20.332-7.01c-2.588,8.47-9.114,16.65-16.748,21.138
					c0,0-11.574,7.906-13.66,17.232C148.76,151.49,148.715,165.708,148.715,165.708z"/>
			</g>
			<g>
				<path style="fill:#263238;" d="M175.074,114.929l33.067,19.873c0,0,1.022,15.064,7.047,29.735
					c6.102-5.218,9.872,4.838,11.703-2.892c0.096-0.403-1.679,16.216-8.072,16.736l-1.052,18.066l31.538-7.755
					c0,0-1.696-21.906-7.078-35.194c-3.347-8.265-5.118-15.191-8.422-23.473c-2.501-6.269-6.942-15.635-10.281-20.095
					c-7.169-9.576-33.695-10-33.695-10c-11.695,2.76-3.822,1.445-13.666,8.335l-3.365,9.037"/>
			</g>
			<g>
				<g>
					<g>
						<g>
							<g>
								<g>
									<g>
										<g>
											<g>
												<g>
													<g>
														<path style="fill:#B56760;" d="M215.183,164.413c-0.023-4.776,5.087-8.245,9.427-6.09
															c2.383,1.183,4.297,3.72,4.366,8.788c0.185,13.514-13.681,10.927-13.71,10.539
															C215.249,177.411,215.21,170.005,215.183,164.413z"/>
													</g>
												</g>
											</g>
										</g>
									</g>
								</g>
							</g>
						</g>
					</g>
				</g>
			</g>
			<g>
				<g>
					<g>
						<g>
							<g>
								<g>
									<g>
										<g>
											<g>
												<g>
													<g>
														<g>
															<path style="fill:#8A4A43;" d="M219.403,172.47c0.061-0.044,0.243,0.162,0.651,0.338
																c0.398,0.172,1.079,0.285,1.794,0.011c1.448-0.545,2.642-2.83,2.675-5.267c0.018-1.23-0.26-2.398-0.718-3.361
																c-0.434-0.983-1.095-1.664-1.83-1.781c-0.731-0.154-1.244,0.283-1.407,0.666c-0.179,0.38-0.088,0.649-0.161,0.674
																c-0.038,0.034-0.299-0.223-0.196-0.782c0.053-0.269,0.211-0.59,0.53-0.855c0.327-0.268,0.811-0.41,1.322-0.363
																c1.063,0.056,2.032,1.001,2.536,2.058c0.561,1.061,0.904,2.373,0.883,3.755c-0.051,2.725-1.437,5.294-3.42,5.887
																c-0.965,0.262-1.778-0.013-2.199-0.326C219.433,172.796,219.356,172.495,219.403,172.47z"/>
														</g>
													</g>
												</g>
											</g>
										</g>
									</g>
								</g>
							</g>
						</g>
					</g>
				</g>
			</g>
			<g>
				<g>
					<path style="fill:#455A64;" d="M190.837,99.898c0.027,0.021-0.171,0.313-0.57,0.813c-0.411,0.488-1.031,1.172-1.835,1.976
						c-1.603,1.615-3.913,3.739-6.471,6.069c-2.561,2.33-4.863,4.451-6.496,6.021c-1.636,1.567-2.605,2.579-2.665,2.527
						c-0.027-0.024,0.185-0.305,0.593-0.794c0.403-0.493,1.027-1.171,1.812-1.993c1.573-1.643,3.843-3.814,6.406-6.146
						c2.512-2.276,4.783-4.334,6.566-5.95C189.856,100.899,190.778,99.853,190.837,99.898z"/>
				</g>
			</g>
			<g>
				<g>
					<path style="fill:#455A64;" d="M154.053,111.352c-0.023-0.021,0.276-0.405,0.879-1.043c0.6-0.641,1.518-1.526,2.748-2.508
						c2.449-1.956,6.25-4.264,10.926-5.503c2.323-0.618,4.741-0.771,6.777-0.088c2.032,0.641,3.585,2.046,4.205,3.553
						c0.639,1.503,0.491,2.891,0.192,3.721c-0.143,0.425-0.329,0.723-0.458,0.915c-0.143,0.186-0.223,0.277-0.238,0.267
						c-0.049-0.03,0.279-0.411,0.503-1.242c0.228-0.811,0.305-2.124-0.335-3.511c-0.618-1.379-2.085-2.663-4.014-3.246
						c-1.926-0.619-4.229-0.469-6.5,0.134c-4.585,1.216-8.354,3.432-10.831,5.291C155.417,109.966,154.125,111.424,154.053,111.352z
						"/>
				</g>
			</g>
			<g>
				<g>
					<path style="fill:#455A64;" d="M146.485,124.948c-0.025-0.026,0.284-0.371,0.865-0.972c0.582-0.6,1.436-1.457,2.519-2.488
						c2.174-2.039,5.265-4.858,9.281-7.116c2.011-1.095,4.041-2.01,6.043-2.335c1.987-0.352,3.904-0.016,5.222,0.785
						c1.335,0.781,2.085,1.853,2.401,2.638c0.152,0.4,0.227,0.723,0.252,0.945c0.022,0.223,0.025,0.338,0.007,0.341
						c-0.051,0.009-0.094-0.462-0.443-1.202c-0.359-0.726-1.112-1.701-2.397-2.4c-1.27-0.715-3.056-0.993-4.96-0.634
						c-1.91,0.334-3.89,1.238-5.871,2.317c-3.949,2.219-7.053,4.967-9.285,6.932c-1.049,0.943-1.93,1.735-2.628,2.363
						C146.867,124.678,146.51,124.974,146.485,124.948z"/>
				</g>
			</g>
			<g>
				<path style="fill:#455A64;" d="M225.654,178.968c0.089,2.608-1.953,4.794-4.561,4.883c-2.608,0.089-4.794-1.953-4.883-4.561
					c-0.089-2.608,1.953-4.794,4.561-4.883C223.378,174.318,225.565,176.36,225.654,178.968z"/>
			</g>
		</g>
		<g>
			<g>
				<path style="fill:#FF725E;" d="M139.025,314.046c-1.134,0.756-13.602,3.778-16.625,11.713
					c-3.023,7.935-19.064,24.064-7.454,39.804l24.079-13.355V314.046z"/>
				<path style="fill:#263238;" d="M114.939,365.595l-0.013-0.017c-2.109-2.859-3.433-5.93-3.932-9.125
					c-0.44-2.813-0.272-5.703,0.513-8.839c1.431-5.712,4.68-11.039,7.289-15.319c1.554-2.549,2.897-4.75,3.58-6.544
					c2.474-6.494,11.257-9.7,15.008-11.069c0.825-0.302,1.421-0.519,1.626-0.655l0.038-0.026v38.224l-0.013,0.007L114.939,365.595z
					 M139,314.091c-0.239,0.141-0.816,0.352-1.598,0.637c-3.745,1.366-12.513,4.567-14.979,11.04
					c-0.685,1.798-2.029,4.002-3.584,6.553c-2.608,4.277-5.854,9.601-7.283,15.305c-0.784,3.129-0.952,6.014-0.513,8.819
					c0.498,3.181,1.813,6.237,3.91,9.086L139,352.194V314.091z"/>
			</g>
			<g>
				<polygon style="fill:#E0E0E0;" points="166.798,248.276 168.771,221.051 218.33,200.373 220.09,210.532 186.329,227.71 				"/>
			</g>
			<g>
				<path style="fill:#FF725E;" d="M220.09,204.537c0,0-30.361,12.282-43.828,24.281c-12.665,11.285-39.001,55.761-41.821,67.89
					c-2.821,12.129-2.268,45.685-2.268,45.685s-0.069,34.617-0.069,35.463c0,0.846-21.719,56.695-17.77,87.158h123.827
					c0,0,3.667-42.874-4.795-59.516c-8.462-16.642-8.744-13.257-8.744-13.257s5.077-5.641,4.513-10.718
					c-0.564-5.077-3.667-9.308-3.667-9.308l21.719-67.696c0,0,2.257-34.13-3.667-56.977c-5.553-21.419-7.62-20.208-14.564-27.057
					c-0.149-0.147,0.093,0.188,0,0l-6.311-5.177L220.09,204.537z"/>
			</g>
			<g>
				<g>
					<path style="fill:#FF725E;" d="M139.025,411.492c-0.388-1.461,9.376-18.793,9.376-18.793l55.966,9.396l3.895,15.726
						L139.025,411.492z"/>
				</g>
				<g>
					<g>
						<path style="fill:#263238;" d="M139.025,411.492c0.005-0.006,0.128-0.002,0.362,0.013c0.256,0.018,0.598,0.043,1.034,0.075
							c0.93,0.076,2.258,0.184,3.961,0.323c3.46,0.298,8.439,0.727,14.635,1.261c12.413,1.109,29.691,2.652,49.268,4.401
							l-0.273,0.318c-0.945-3.812-1.936-7.809-2.945-11.877c-0.322-1.301-0.642-2.594-0.953-3.848l0.209,0.194
							c-22.307-3.78-42.196-7.151-55.952-9.482l0.18-0.086c-3.238,5.738-5.736,10.372-7.367,13.596
							c-0.814,1.613-1.409,2.875-1.763,3.748c-0.178,0.436-0.296,0.774-0.348,1.007C139.01,411.37,139.04,411.48,139.025,411.492
							c-0.037,0.017-0.052-0.522,0.306-1.398c0.326-0.89,0.896-2.168,1.684-3.797c1.581-3.256,4.033-7.918,7.234-13.683l0.059-0.106
							l0.121,0.02c13.762,2.289,33.661,5.599,55.98,9.311l0.168,0.028l0.041,0.166c0.311,1.254,0.631,2.548,0.953,3.848
							c1.007,4.069,1.996,8.066,2.939,11.879l0.087,0.352l-0.361-0.034c-19.627-1.835-36.949-3.455-49.394-4.619
							c-6.17-0.596-11.13-1.076-14.576-1.409c-1.681-0.17-2.991-0.303-3.909-0.396c-0.423-0.047-0.756-0.084-1.005-0.112
							C139.132,411.515,139.02,411.498,139.025,411.492z"/>
					</g>
				</g>
			</g>
			<g style="opacity:0.3;">
				<g>
					<path d="M127.005,384.602l1.25,10.139c8.925,6.32,21.547,5.115,31.091-0.225c9.544-5.34,16.63-14.107,23.177-22.867
						c19.844-26.55,37.133-55.223,48.925-86.202C200.686,322.381,158.065,347.92,127.005,384.602z"/>
				</g>
			</g>
			<g>
				<g>
					<path style="fill:#FF725E;" d="M226.982,233.193c10.393,8.271,19.449,34.147,3.363,56.518c0,0-70.301,95.377-81.943,102.989
						c-11.642,7.612-27.314,3.134-31.792-8.06c-4.478-11.194-2.687-21.941,3.582-29.553c6.269-7.612,47.464-80.152,47.464-80.152
						s9.398-33.625,25.405-43.385"/>
				</g>
				<g>
					<g>
						<path style="fill:#263238;" d="M193.06,231.549c0,0-0.24,0.179-0.722,0.509c-0.495,0.312-1.185,0.841-2.079,1.554
							c-1.771,1.445-4.171,3.865-6.774,7.395c-5.181,7.067-11.057,18.622-15.664,33.974l-0.007,0.022l-0.009,0.017
							c-9.043,15.914-20.327,35.721-33.463,57.952c-3.31,5.543-6.702,11.256-10.359,17.009c-0.952,1.418-1.823,2.889-2.881,4.276
							c-0.508,0.712-1.026,1.399-1.55,2.074c-0.518,0.684-0.981,1.412-1.433,2.146c-0.894,1.479-1.602,3.07-2.212,4.703
							c-0.552,1.655-0.993,3.358-1.24,5.106c-0.478,3.491-0.34,7.112,0.453,10.623c0.196,0.879,0.405,1.756,0.686,2.617
							c0.237,0.874,0.569,1.719,0.88,2.573c0.311,0.854,0.754,1.641,1.135,2.462l0.742,1.139c0.241,0.385,0.49,0.765,0.802,1.098
							c2.293,2.815,5.419,5.011,8.942,6.168c3.503,1.185,7.329,1.564,11.04,0.955c3.417-0.561,6.702-1.894,9.477-3.872
							c2.668-2.125,4.954-4.744,7.248-7.252c4.543-5.091,8.825-10.285,12.993-15.416c8.318-10.28,16.151-20.352,23.565-29.981
							c7.41-9.633,14.386-18.837,20.888-27.472c3.241-4.324,6.371-8.501,9.38-12.515c1.499-2.012,2.967-3.983,4.404-5.911
							c1.417-1.943,2.897-3.782,4.081-5.739c2.607-3.773,4.307-7.844,5.586-11.751c0.273-0.995,0.541-1.975,0.806-2.941
							c0.268-0.965,0.362-1.954,0.548-2.907c0.409-1.906,0.432-3.797,0.594-5.608c0.235-7.291-1.267-13.522-3.116-18.282
							c-1.87-4.785-4.18-8.106-5.931-10.145c-0.45-0.502-0.807-0.984-1.184-1.331c-0.374-0.347-0.689-0.639-0.945-0.877
							c-0.507-0.473-0.758-0.726-0.758-0.726s0.274,0.225,0.794,0.686c0.262,0.234,0.584,0.521,0.966,0.861
							c0.385,0.342,0.749,0.82,1.208,1.319c1.783,2.025,4.132,5.344,6.04,10.139c1.886,4.771,3.427,11.028,3.218,18.368
							c-0.156,1.823-0.174,3.728-0.578,5.648c-0.184,0.96-0.276,1.956-0.542,2.929c-0.264,0.974-0.531,1.962-0.802,2.965
							c-1.276,3.94-2.978,8.046-5.595,11.856c-1.194,1.982-2.667,3.82-4.079,5.766c-1.433,1.932-2.897,3.907-4.391,5.922
							c-3.002,4.021-6.124,8.204-9.357,12.535c-6.487,8.647-13.451,17.862-20.852,27.505c-7.406,9.639-15.232,19.719-23.549,30.01
							c-4.169,5.137-8.451,10.336-13.003,15.441c-1.13,1.283-2.307,2.535-3.499,3.781c-1.216,1.225-2.416,2.474-3.826,3.543
							c-2.86,2.039-6.204,3.392-9.704,3.968c-3.795,0.623-7.706,0.237-11.292-0.977c-3.605-1.186-6.816-3.436-9.176-6.336
							c-0.321-0.344-0.577-0.735-0.826-1.131l-0.764-1.174c-0.393-0.843-0.851-1.666-1.166-2.531
							c-0.315-0.866-0.651-1.723-0.891-2.609c-0.284-0.874-0.496-1.765-0.695-2.657c-0.804-3.566-0.944-7.25-0.454-10.805
							c0.253-1.78,0.702-3.516,1.267-5.202c0.622-1.665,1.346-3.286,2.258-4.793c0.461-0.747,0.934-1.489,1.462-2.186
							c0.539-0.694,1.062-1.385,1.555-2.077c1.035-1.354,1.916-2.835,2.862-4.242c3.655-5.738,7.053-11.448,10.368-16.984
							c13.159-22.21,24.482-41.995,33.571-57.88l-0.016,0.038c4.664-15.385,10.598-26.932,15.845-33.992
							c2.635-3.525,5.067-5.933,6.863-7.359c0.908-0.703,1.608-1.221,2.113-1.52C192.803,231.7,193.06,231.549,193.06,231.549z"/>
					</g>
				</g>
			</g>
			<g>
				<path style="fill:#B56760;" d="M162.057,305.382c0,0-1.809-4.737-5.423-5.363c-3.614-0.626-10.612,0.039-10.612,0.039
					s-3.083,2.318-3.054,5.499c0.029,3.181,0.651,5.407,0.651,5.407s-2.534-3.411-5.861-0.179c-3.327,3.232-6.254,9.777-6.254,9.777
					s-4.43,1.418-6.117,3.568c-1.688,2.15-2.684,5.632-2.684,5.632s-3.627,2.206-3.06,6.915c0.567,4.709,4.698,6.689,4.698,6.689
					s13.204,9.734,14.822,8.478c1.618-1.257,4.917-3.246,0.164-7.451c-4.753-4.205-7.726-6.855-7.726-6.855l2.238-3.454
					c0,0,12.925,8.883,14.997,8.457c2.072-0.426,5.602-0.498,4.157-3.685c-1.446-3.188-13.536-12.49-13.536-12.49l1.434-4.985
					c0,0,13.968,9.465,16.263,7.95c2.295-1.515,4.333-2.221,2.011-5.338c-2.322-3.117-12.42-10.572-12.42-10.572l4.136-3.86
					C150.882,309.558,160.637,311.215,162.057,305.382z"/>
			</g>
			<g>
				<g>
					<path style="fill:#263238;" d="M222.646,215.307c0.002,0.009-0.116,0.044-0.347,0.107c-0.257,0.068-0.596,0.157-1.027,0.271
						c-0.902,0.24-2.234,0.585-3.939,1.07c-3.405,0.973-8.337,2.417-14.216,4.767c-1.468,0.589-2.993,1.241-4.548,1.988
						c-0.78,0.369-1.572,0.751-2.357,1.184c-0.392,0.214-0.802,0.413-1.19,0.645c-0.373,0.252-0.769,0.472-1.133,0.756
						c-2.939,2.241-5.615,5.226-8.38,8.355c-5.478,6.332-11.066,13.666-16.794,21.455c-5.719,7.803-11.009,15.351-15.746,22.266
						c-2.366,3.459-4.592,6.762-6.645,9.872c-2.064,3.107-3.923,6.028-5.311,8.872c-2.812,5.669-4.468,10.544-5.567,13.906
						c-0.542,1.687-0.932,3.006-1.194,3.902c-0.124,0.428-0.221,0.765-0.295,1.02c-0.068,0.229-0.105,0.346-0.114,0.344
						c-0.008-0.002,0.011-0.124,0.062-0.357c0.061-0.259,0.142-0.601,0.245-1.034c0.229-0.906,0.588-2.236,1.102-3.935
						c1.042-3.388,2.647-8.29,5.431-14.01c1.374-2.871,3.234-5.832,5.28-8.945c2.04-3.123,4.253-6.437,6.61-9.906
						c4.718-6.934,9.999-14.495,15.723-22.304c5.733-7.796,11.338-15.128,16.853-21.462c2.788-3.133,5.474-6.113,8.487-8.388
						c0.373-0.288,0.789-0.518,1.176-0.776c0.399-0.235,0.808-0.431,1.206-0.646c0.794-0.432,1.593-0.812,2.38-1.179
						c1.569-0.741,3.105-1.385,4.583-1.966c5.918-2.314,10.873-3.706,14.299-4.62c1.715-0.455,3.057-0.77,3.967-0.976
						c0.436-0.093,0.779-0.166,1.04-0.221C222.522,215.316,222.644,215.299,222.646,215.307z"/>
				</g>
			</g>
			<g>
				<g>
					<path style="fill:#263238;" d="M214.787,386.237c-0.019,0.03-0.569-0.282-1.547-0.874c-0.983-0.584-2.37-1.49-4.046-2.663
						c-3.355-2.34-7.803-5.864-12.239-10.268c-4.43-4.414-7.978-8.844-10.335-12.186c-1.182-1.67-2.095-3.051-2.685-4.031
						c-0.597-0.975-0.912-1.523-0.882-1.542c0.03-0.019,0.403,0.492,1.051,1.431c0.64,0.944,1.598,2.29,2.813,3.926
						c2.425,3.275,5.999,7.642,10.405,12.033c4.413,4.381,8.799,7.93,12.087,10.338c1.643,1.206,2.993,2.156,3.941,2.792
						C214.293,385.836,214.806,386.207,214.787,386.237z"/>
				</g>
			</g>
			<g style="opacity:0.3;">
				<polygon points="140.821,411.656 142.514,417.822 205.889,417.605 				"/>
			</g>
		</g>
	</g>
</g>
</svg>
