<?xml version="1.0" encoding="utf-8"?>
<!-- Generator: Adobe Illustrator 27.5.0, SVG Export Plug-In . SVG Version: 6.00 Build 0)  -->
<svg version="1.1" xmlns="http://www.w3.org/2000/svg" xmlns:xlink="http://www.w3.org/1999/xlink" x="0px" y="0px"
	 viewBox="0 0 500 500" style="enable-background:new 0 0 500 500;" xml:space="preserve">
<g id="Background_Complete">
	<g>
		<g>
			<g>
				<g>
					<g>
						<g>
							<g>
								<path style="fill:#E0E0E0;" d="M25.882,206.801l7.277-0.576c0,0-0.483-6.109,5.857-6.721
									c3.293-0.318,5.174,1.707,5.999,3.307c0.959,1.858,0.888,4.067-0.052,5.934c-1.073,2.132-3.631,4.196-8.604,3.72
									l1.298,16.407l7.195-0.569l-0.76-9.611c0,0,9.885-3.407,9.005-14.528c-0.842-10.64-10.579-12.357-14.663-12.034
									C35.31,192.378,24.729,193.975,25.882,206.801z"/>
							</g>
						</g>
					</g>
				</g>
				<g>
					<g>
						<g>
							<g>
								
									<rect x="38.162" y="231.954" transform="matrix(0.9969 -0.0788 0.0788 0.9969 -18.4272 4.0302)" style="fill:#E0E0E0;" width="7.325" height="6.841"/>
							</g>
						</g>
					</g>
				</g>
			</g>
		</g>
	</g>
	<g>
		<g>
			<g>
				<g>
					<g>
						<g>
							<g>
								<path style="fill:#E0E0E0;" d="M377.867,267.631l3.945,0c0,0,0-3.312,3.442-3.372c1.788-0.031,2.715,1.14,3.091,2.037
									c0.437,1.042,0.305,2.229-0.281,3.195c-0.669,1.103-2.135,2.106-4.794,1.638v8.895l3.901,0v-5.211
									c0,0,5.471-1.414,5.471-7.444c0-5.769-5.173-7.109-7.388-7.109C383.561,260.262,377.792,260.671,377.867,267.631z"/>
							</g>
						</g>
					</g>
				</g>
				<g>
					<g>
						<g>
							<g>
								<rect x="383.26" y="281.857" style="fill:#E0E0E0;" width="3.959" height="3.698"/>
							</g>
						</g>
					</g>
				</g>
			</g>
		</g>
	</g>
	<g>
		<g>
			<g>
				<g>
					<g>
						<g>
							<g>
								<path style="fill:#F5F5F5;" d="M27.055,391.304l5.039,0.718c0,0,0.603-4.231,5.011-3.68c2.289,0.286,3.26,1.951,3.578,3.165
									c0.369,1.41-0.016,2.903-0.94,4.03c-1.056,1.287-3.111,2.301-6.422,1.219l-1.619,11.362l4.983,0.71l0.948-6.656
									c0,0,7.246-0.811,8.343-8.512c1.05-7.369-5.314-10.022-8.143-10.425C35.67,382.927,28.227,382.4,27.055,391.304z"/>
							</g>
						</g>
					</g>
				</g>
				<g>
					<g>
						<g>
							<g>
								
									<rect x="30.992" y="410.793" transform="matrix(0.99 0.1411 -0.1411 0.99 58.624 -0.6003)" style="fill:#F5F5F5;" width="5.108" height="4.771"/>
							</g>
						</g>
					</g>
				</g>
			</g>
		</g>
	</g>
	<g>
		<g>
			<g>
				<g>
					<g>
						<g>
							<g>
								<path style="fill:#F5F5F5;" d="M158.716,48.585l6.622-1.436c0,0-1.205-5.56,4.551-6.913c2.99-0.702,4.972,0.926,5.931,2.295
									c1.113,1.59,1.323,3.631,0.691,5.466c-0.722,2.095-2.818,4.313-7.452,4.494l3.237,14.932l6.548-1.42l-1.896-8.747
									c0,0,8.669-4.365,6.475-14.486c-2.099-9.684-11.271-10.05-14.988-9.244C165.593,34.142,156.059,36.929,158.716,48.585z"/>
							</g>
						</g>
					</g>
				</g>
				<g>
					<g>
						<g>
							<g>
								
									<rect x="173.542" y="69.71" transform="matrix(0.9773 -0.2119 0.2119 0.9773 -11.4254 39.143)" style="fill:#F5F5F5;" width="6.8" height="6.351"/>
							</g>
						</g>
					</g>
				</g>
			</g>
		</g>
	</g>
	<g>
		<g>
			<g>
				<g>
					<g>
						<g>
							<g>
								<path style="fill:#E0E0E0;" d="M433.638,432.36l3.852,0.851c0,0,0.715-3.234,4.089-2.549
									c1.752,0.356,2.405,1.699,2.579,2.656c0.202,1.112-0.183,2.242-0.964,3.059c-0.891,0.933-2.54,1.596-5.035,0.564
									l-1.92,8.685l3.809,0.842l1.125-5.088c0,0,5.647-0.2,6.948-6.088c1.245-5.633-3.517-8.057-5.68-8.535
									C440.788,426.393,435.067,425.548,433.638,432.36z"/>
							</g>
						</g>
					</g>
				</g>
				<g>
					<g>
						<g>
							<g>
								
									<rect x="435.388" y="447.798" transform="matrix(0.9764 0.2158 -0.2158 0.9764 107.3358 -83.7869)" style="fill:#E0E0E0;" width="3.959" height="3.698"/>
							</g>
						</g>
					</g>
				</g>
			</g>
		</g>
	</g>
	<g>
		<g>
			<g>
				<g>
					<g>
						<g>
							<g>
								<path style="fill:#F5F5F5;" d="M445.298,150.12h7.266c0,0,0-6.101,6.34-6.21c3.293-0.057,5,2.1,5.694,3.752
									c0.806,1.919,0.562,4.106-0.517,5.885c-1.232,2.032-3.933,3.879-8.83,3.016v16.383h7.185v-9.597
									c0,0,10.077-2.605,10.077-13.71c0-10.625-9.528-13.093-13.607-13.093C455.786,136.547,445.161,137.301,445.298,150.12z"/>
							</g>
						</g>
					</g>
				</g>
				<g>
					<g>
						<g>
							<g>
								<rect x="455.23" y="176.322" style="fill:#F5F5F5;" width="7.291" height="6.81"/>
							</g>
						</g>
					</g>
				</g>
			</g>
		</g>
	</g>
	<g>
		<g>
			<g>
				<g>
					<g>
						<g>
							<g>
								<path style="fill:#E0E0E0;" d="M264.264,58.971l7.838,1.732c0,0,1.455-6.581,8.32-5.188
									c3.566,0.724,4.893,3.458,5.247,5.405c0.411,2.262-0.373,4.563-1.961,6.225c-1.814,1.898-5.168,3.247-10.245,1.148
									l-3.906,17.674l7.751,1.713l2.288-10.353c0,0,11.492-0.408,14.139-12.387c2.533-11.462-7.157-16.396-11.557-17.368
									C278.814,46.83,267.172,45.11,264.264,58.971z"/>
							</g>
						</g>
					</g>
				</g>
				<g>
					<g>
						<g>
							<g>
								
									<rect x="267.825" y="90.385" transform="matrix(0.9764 0.2158 -0.2158 0.9764 26.7224 -56.4475)" style="fill:#E0E0E0;" width="8.056" height="7.524"/>
							</g>
						</g>
					</g>
				</g>
			</g>
		</g>
	</g>
</g>
<g id="Background_Simple" style="display:none;">
	<path style="display:inline;fill:#F5F5F5;" d="M376.42,34.585l-0.915,1.008c-7.711,8.498-10.319,20.499-6.403,31.174
		c0.503,1.372,1.106,2.709,1.808,3.995c5.053,9.263,15.087,15.65,25.725,16.375c6.257,0.426,12.918-0.912,18.571,1.742
		c7.358,3.455,10.151,12.198,12.205,20.004c2.054,7.806,4.872,16.548,12.245,19.971c4.618,2.144,10.126,1.626,14.95-0.089
		c12.77-4.54,21.689-17.023,24.044-30.232c2.355-13.209-1.146-26.9-7.417-38.731c-8.785-16.574-23.518-30.443-41.581-36.047
		C411.589,18.152,390.297,21.695,376.42,34.585z"/>
	<path style="display:inline;fill:#F5F5F5;" d="M27.183,114.517l0.813,1.092c6.849,9.207,18.121,14.083,29.351,12.301
		c1.444-0.229,2.871-0.562,4.269-1.002c10.064-3.169,18.269-11.781,21.034-22.079c1.626-6.057,1.599-12.851,5.295-17.885
		c4.81-6.552,13.928-7.605,21.984-8.113c8.056-0.508,17.178-1.585,21.96-8.159c2.995-4.117,3.55-9.622,2.799-14.686
		c-1.989-13.406-12.515-24.568-25.021-29.428s-26.615-4.069-39.434-0.201c-17.958,5.419-34.411,17.198-43.397,33.839
		C17.849,76.837,17.215,98.413,27.183,114.517z"/>
	<circle style="display:inline;fill:#F5F5F5;" cx="305.128" cy="56.77" r="18.957"/>
	<circle style="display:inline;fill:#F5F5F5;" cx="446.6" cy="438.67" r="16.015"/>
	
		<ellipse transform="matrix(0.7071 -0.7071 0.7071 0.7071 23.0306 373.1944)" style="display:inline;fill:#F5F5F5;" cx="462.001" cy="158.797" rx="9.478" ry="9.478"/>
	<circle style="display:inline;fill:#F5F5F5;" cx="36.707" cy="214.125" r="9.478"/>
</g>
<g id="Desk">
	<g>
		<path style="fill:#263238;" d="M449.251,466.971c0,0.139-89.178,0.251-199.158,0.251c-110.019,0-199.177-0.112-199.177-0.251
			c0-0.139,89.158-0.251,199.177-0.251C360.073,466.72,449.251,466.832,449.251,466.971z"/>
	</g>
</g>
<g id="Character">
	<g>
		<g>
			<g>
				<polygon style="fill:#455A64;" points="221.352,71.323 197.122,79.348 205.687,103.344 				"/>
			</g>
			<g>
				<path style="fill:#455A64;" d="M224.082,175.252l-7.899-14.942c15.459-8.172,23.357-20.151,22.239-33.73
					c-1.202-14.6-12.866-28.031-29.025-33.422l5.35-16.033c22.839,7.62,38.745,26.488,40.521,48.069
					C256.95,145.641,245.584,163.887,224.082,175.252z"/>
			</g>
			<g style="opacity:0.3;">
				<path d="M237.655,137.193c0,0,7.511,2.433,17.265-2.929l-0.975,7.319l-18.046,6.828l-0.393-5.495L237.655,137.193z"/>
			</g>
		</g>
		<g>
			<g>
				<g>
					<path style="fill:#FF725E;" d="M220.205,281.634c-50.432-6.893-91.186-21.866-121.129-44.502
						c-25.365-19.176-35.514-38.444-38.849-44.776c-8.714-16.544-12.467-34.449-10.854-51.781
						c2.965-31.855,26.156-51.072,41.021-56.217c12.551-4.343,29.288-4.378,40.308-2.486c12.081,2.076,23.794,6.162,34.815,12.146
						l-10.134,18.665c-8.976-4.874-18.49-8.197-28.276-9.878c-9.553-1.641-22.351-0.943-29.766,1.624
						c-7.845,2.715-24.725,15.605-26.821,38.115c-1.23,13.221,1.709,27.023,8.499,39.915c2.789,5.295,11.278,21.41,32.866,37.731
						c27.003,20.415,64.416,34.008,111.197,40.402L220.205,281.634z"/>
				</g>
				<g style="opacity:0.3;">
					<polygon points="109.019,217.914 88.919,228.772 97.696,236.123 117.305,224.149 					"/>
				</g>
				<g style="opacity:0.3;">
					<path d="M177.135,251.305c0,0,0.012,19.871,3.331,22.858l7.001,1.656l-5.356-23.318L177.135,251.305z"/>
				</g>
			</g>
			<g>
				<polygon style="fill:#FF725E;" points="149.798,119.067 176.328,111.858 168.523,85.548 				"/>
			</g>
		</g>
		<g>
			<g>
				<g>
					<path style="fill:#FF725E;" d="M353.947,453.209l-2.977-20.329c61.372-8.986,93.507-58.596,104.474-79.509l18.194,9.542
						C461.209,386.613,424.666,442.854,353.947,453.209z"/>
				</g>
				<g>
					<polygon style="fill:#FF725E;" points="476.542,376.643 472.457,344.707 441.266,359.065 					"/>
				</g>
			</g>
			<g style="opacity:0.3;">
				<polygon points="393.749,418.469 388.768,421.078 391.932,442.305 400.348,438.265 				"/>
			</g>
		</g>
		<g>
			<path style="fill:#455A64;" d="M169.796,440.62c-27.785-4.669-67.251-16.54-97.487-46.571
				c-28.247-28.056-41.711-67.345-35.137-102.534c3.39-18.143,12.19-35.791,25.447-51.037
				c12.261-14.099,28.047-25.919,45.654-34.182c29.158-13.683,64.742-19.5,108.781-17.786l-0.658,16.889
				c-41.275-1.609-74.291,3.69-100.941,16.197c-32.469,15.238-56.098,43.219-61.667,73.023c-5.561,29.765,6.1,63.268,30.433,87.437
				c27.085,26.902,63.01,37.631,88.377,41.894L169.796,440.62z"/>
		</g>
		<g style="opacity:0.3;">
			<polygon points="156.388,420.57 151.396,436.741 163.744,439.896 163.283,422.172 			"/>
		</g>
		<g>
			<g>
				<g>
					<g>
						<g>
							<g>
								<path style="fill:#AE7461;" d="M170.036,210.884c-4.982-26.651,11.35-52.652,37.514-59.76l2.6-0.706
									c28.483-5.979,49.472,14.871,54.66,43.508l19.074,109.066l-37.617,33.229l-20.973-11.995
									c-1.805-7.994-5.683-24.521-5.744-24.507c0,0-28.092,3.13-35.745-23.728C180.109,263.018,174.671,235.68,170.036,210.884z"
									/>
							</g>
						</g>
						<g>
							<g>
								<g>
									<g>
										<g>
											<g>
												<g>
													<g>
														<g>
															<g>
																<g>
																	<g>
																		<g>
																			<path style="fill:#6F4439;" d="M219.551,299.72c0,0,17.257-3.618,32.271-19.905c0,0-2.938,22.553-30.488,27.431
																				L219.551,299.72z"/>
																		</g>
																	</g>
																</g>
															</g>
														</g>
													</g>
												</g>
											</g>
										</g>
									</g>
								</g>
							</g>
						</g>
						<g>
							<g>
								<g>
									<g>
										<g>
											<g>
												<g>
													<g>
														<g>
															<g>
																<g>
																	<g>
																		<g>
																			<g>
																				<g>
																					<g>
																						<g>
																							<g>
																								<g>
																									<path style="fill:#263238;" d="M185.637,233.032c0.479,2.052,2.613,3.337,4.766,2.875
																										c2.148-0.462,3.505-2.495,3.024-4.548c-0.48-2.052-2.613-3.34-4.762-2.879
																										C186.513,228.943,185.157,230.98,185.637,233.032z"/>
																								</g>
																							</g>
																						</g>
																					</g>
																				</g>
																			</g>
																		</g>
																	</g>
																</g>
															</g>
														</g>
													</g>
												</g>
											</g>
										</g>
									</g>
								</g>
							</g>
						</g>
						<g>
							<g>
								<g>
									<g>
										<g>
											<g>
												<g>
													<g>
														<g>
															<g>
																<g>
																	<g>
																		<g>
																			<g>
																				<g>
																					<g>
																						<g>
																							<g>
																								<g>
																									<g>
																										<path style="fill:#263238;" d="M178.999,221.229c0.613,0.372,2.942-2.578,7.087-3.692
																											c4.124-1.173,7.742,0.133,8.053-0.497c0.16-0.284-0.572-1.059-2.157-1.663
																											c-1.563-0.605-4.038-0.935-6.616-0.223c-2.575,0.716-4.488,2.254-5.471,3.565
																											C178.888,220.043,178.702,221.067,178.999,221.229z"/>
																									</g>
																								</g>
																							</g>
																						</g>
																					</g>
																				</g>
																			</g>
																		</g>
																	</g>
																</g>
															</g>
														</g>
													</g>
												</g>
											</g>
										</g>
									</g>
								</g>
							</g>
						</g>
						<g>
							<g>
								<g>
									<g>
										<g>
											<g>
												<g>
													<g>
														<g>
															<g>
																<g>
																	<g>
																		<g>
																			<g>
																				<g>
																					<g>
																						<g>
																							<g>
																								<g>
																									<path style="fill:#263238;" d="M221.115,223.937c0.48,2.052,2.613,3.337,4.766,2.874
																										c2.148-0.461,3.505-2.495,3.024-4.547c-0.48-2.052-2.614-3.339-4.762-2.878
																										C221.99,219.848,220.635,221.886,221.115,223.937z"/>
																								</g>
																							</g>
																						</g>
																					</g>
																				</g>
																			</g>
																		</g>
																	</g>
																</g>
															</g>
														</g>
													</g>
												</g>
											</g>
										</g>
									</g>
								</g>
							</g>
						</g>
						<g>
							<g>
								<g>
									<g>
										<g>
											<g>
												<g>
													<g>
														<g>
															<g>
																<g>
																	<g>
																		<g>
																			<g>
																				<g>
																					<g>
																						<g>
																							<g>
																								<g>
																									<g>
																										<path style="fill:#263238;" d="M219.855,211.161c0.614,0.372,2.948-2.577,7.089-3.691
																											c4.123-1.171,7.741,0.133,8.053-0.497c0.158-0.284-0.568-1.059-2.159-1.661
																											c-1.563-0.606-4.038-0.935-6.615-0.225c-2.575,0.716-4.487,2.255-5.472,3.565
																											C219.748,209.975,219.56,211.001,219.855,211.161z"/>
																									</g>
																								</g>
																							</g>
																						</g>
																					</g>
																				</g>
																			</g>
																		</g>
																	</g>
																</g>
															</g>
														</g>
													</g>
												</g>
											</g>
										</g>
									</g>
								</g>
							</g>
						</g>
						<g>
							<g>
								<g>
									<g>
										<g>
											<g>
												<g>
													<g>
														<g>
															<g>
																<g>
																	<g>
																		<g>
																			<g>
																				<g>
																					<g>
																						<g>
																							<g>
																								<g>
																									<path style="fill:#263238;" d="M213.643,247.018c-0.045-0.24-2.74,0.014-7.056,0.614
																										c-1.088,0.178-2.146,0.241-2.519-0.433c-0.457-0.696-0.324-1.956-0.146-3.326
																										c0.299-2.829,0.611-5.795,0.939-8.902c1.229-12.645,1.812-22.925,1.303-22.971
																										c-0.51-0.044-1.92,10.167-3.148,22.812c-0.277,3.112-0.545,6.078-0.796,8.915
																										c-0.073,1.311-0.391,2.861,0.579,4.3c0.5,0.713,1.432,1.076,2.159,1.074
																										c0.735,0.022,1.333-0.128,1.865-0.238C211.082,247.947,213.691,247.258,213.643,247.018z"/>
																								</g>
																							</g>
																						</g>
																					</g>
																				</g>
																			</g>
																		</g>
																	</g>
																</g>
															</g>
														</g>
													</g>
												</g>
											</g>
										</g>
									</g>
								</g>
							</g>
						</g>
						<g>
							<g>
								<g>
									<g>
										<g>
											<g>
												<g>
													<g>
														<g>
															<g>
																<g>
																	<g>
																		<g>
																			<g>
																				<g>
																					<path style="fill:#263238;" d="M236.158,197.312c-0.547-1.114-4.747-0.096-9.817-0.151
																						c-5.073,0.048-9.269-0.975-9.819,0.137c-0.242,0.531,0.582,1.545,2.337,2.488
																						c1.74,0.944,4.438,1.727,7.479,1.732c3.04-0.001,5.738-0.78,7.48-1.721
																						C235.575,198.856,236.4,197.843,236.158,197.312z"/>
																				</g>
																			</g>
																		</g>
																	</g>
																</g>
															</g>
														</g>
													</g>
												</g>
											</g>
										</g>
									</g>
								</g>
							</g>
						</g>
						<g>
							<g>
								<g>
									<g>
										<g>
											<g>
												<g>
													<g>
														<g>
															<g>
																<g>
																	<g>
																		<g>
																			<g>
																				<g>
																					<path style="fill:#263238;" d="M175.501,209.104c1.106,0.723,4.24-1.123,8.299-2.21
																						c4.025-1.206,7.68-1.287,8.221-2.479c0.225-0.567-0.559-1.375-2.294-1.884
																						c-1.711-0.511-4.381-0.604-7.16,0.182c-2.778,0.79-4.982,2.266-6.152,3.595
																						C175.226,207.647,175.003,208.74,175.501,209.104z"/>
																				</g>
																			</g>
																		</g>
																	</g>
																</g>
															</g>
														</g>
													</g>
												</g>
											</g>
										</g>
									</g>
								</g>
							</g>
						</g>
						<g>
							<g>
								<g>
									<g>
										<g>
											<g>
												<g>
													<g>
														<g>
															<g>
																<g>
																	<path style="fill:#AE7461;" d="M267.956,213.861c0.405-0.323,17.103-9.887,21.52,8.696
																		c4.416,18.584-16.805,19.799-16.965,19.274C272.353,241.305,267.956,213.861,267.956,213.861z"/>
																</g>
															</g>
														</g>
													</g>
												</g>
											</g>
										</g>
									</g>
								</g>
							</g>
						</g>
						<g>
							<g>
								<g>
									<g>
										<g>
											<g>
												<g>
													<g>
														<g>
															<g>
																<g>
																	<g>
																		<path style="fill:#6F4439;" d="M278.168,232.826c0.067-0.079,0.377,0.149,0.984,0.27
																			c0.591,0.118,1.549,0.068,2.432-0.525c1.792-1.187,2.704-4.697,1.999-8.068c-0.354-1.702-1.092-3.228-2.007-4.419
																			c-0.891-1.224-1.995-1.965-3.026-1.907c-1.038,0.007-1.597,0.765-1.7,1.342c-0.125,0.578,0.081,0.921-0.01,0.977
																			c-0.04,0.059-0.473-0.217-0.505-1.02c-0.01-0.388,0.103-0.878,0.455-1.338c0.359-0.469,0.971-0.81,1.677-0.899
																			c1.457-0.241,3.06,0.77,4.067,2.078c1.086,1.295,1.955,3.001,2.353,4.913c0.771,3.773-0.313,7.733-2.815,9.148
																			c-1.226,0.652-2.411,0.517-3.078,0.212C278.308,233.267,278.112,232.876,278.168,232.826z"/>
																	</g>
																</g>
															</g>
														</g>
													</g>
												</g>
											</g>
										</g>
									</g>
								</g>
							</g>
						</g>
					</g>
					<g>
						<g>
							<g>
								<g>
									<g>
										<g>
											<g>
												<g>
													<g>
														<g>
															<path style="fill:#263238;" d="M125.726,194.943c0.033-1.165,0.613-2.256,1.451-3.066
																c1.827-1.767,4.318-2.188,6.677-2.793c5.872-1.507,11.357-4.417,15.973-8.344c-2.055-0.489-4.037-1.207-5.838-2.31
																c-3.721-2.275-6.546-6.448-6.133-10.789c0.077-0.815,0.327-1.709,1.031-2.126c1.118-0.66,2.458,0.272,3.525,1.01
																c3.507,2.428,6.381,3.142,10.408,1.736c2.501-0.873,4.846-2.043,6.561-3.781c0.06-0.103,0.11-0.213,0.171-0.315
																c0.727-1.228,1.442-2.406,2.15-3.55c0.001-0.004,0.003-0.007,0.004-0.01l-0.001,0.006
																c5.326-8.606,10.184-14.85,15.774-18.824c8.194-5.826,23.005-10.941,33.056-10.728
																c10.051,0.214,20.382,5.85,24.019,15.222c4.228-5.755,12.198-7.626,19.279-6.578l0.145-0.11
																c7.808,0.839,13.715,7.459,17.597,14.285c0.212,0.373,0.41,0.756,0.616,1.133c3.356,3.272,7.454,5.783,11.946,7.133
																c0.793,0.238,1.708,0.543,1.985,1.323c0.274,0.772-0.238,1.59-0.775,2.21c-1.428,1.648-3.242,2.942-5.241,3.814
																c1.076,1.586,2.253,3.095,3.596,4.483c1.142,1.181,2.502,2.596,2.135,4.196c-0.283,1.238-1.58,2.03-2.844,2.145
																c-1.265,0.113-2.51-0.303-3.712-0.713c1.263,1.728,2.525,3.458,3.788,5.186c-2.493,1.077-5.238,1.514-7.949,1.354
																c0.116,7.226,2.014,20.204,1.362,25.277c-4.91,1.269-6.236,1.02-8.526,2.442c-2.96,1.838-0.368,7.238-4.942,6.624
																c-2.328-0.313-7.536-7.605-8.77-9.604c-8.185-13.269-13.455-28.322-15.356-43.795
																c-3.74-2.461-7.959-4.195-12.35-5.074l0.391,0.213c-8.227-0.817-17.441-1.353-23.792,3.941
																c-4.926,4.107-6.822,10.694-9.891,16.325c-5.817,10.671-13.66,17.503-25.346,20.842
																c0.901,8.456,3.802,21.943,5.235,29.691l-10.207-13.75l0.01,0.063c-0.743-0.771-1.396-1.571-2.034-2.377l-0.211-0.24
																l-0.008-0.034c-1.018-1.295-2.005-2.601-3.196-3.837c-0.019,0.028-0.038,0.055-0.058,0.083
																c-3.269,4.651-10.719,0.524-8.519-4.719c0.436-1.04,1.023-2.014,1.755-2.877c-1.468,2.233-4.089,3.764-6.758,3.596
																c-2.668-0.168-5.198-2.22-5.604-4.863c-0.276-1.803,0.608-3.687,2.038-4.769c-3.287,1.061-6.887,1.153-10.206,0.187
																C127.963,198.853,125.654,197.506,125.726,194.943z"/>
														</g>
													</g>
												</g>
											</g>
										</g>
									</g>
								</g>
							</g>
						</g>
						<g>
							<g>
								<g>
									<g>
										<g>
											<g>
												<g>
													<g>
														<g>
															<path style="fill:#455A64;" d="M227.887,151.453c-0.038,0.083,1.311,0.446,3.324,1.84
																c1.996,1.39,4.499,4.041,6.337,8.026c0.926,1.977,1.752,4.239,2.351,6.742c0.611,2.501,1.053,5.23,1.538,8.101
																c0.495,2.869,1.008,5.902,1.933,8.964c0.463,1.528,1.027,3.06,1.741,4.555c0.714,1.466,1.523,3.05,3.012,4.102
																c1.191,0.862,2.864,0.97,4.146,0.37c1.301-0.566,2.336-1.579,2.985-2.778c1.26-2.46,1.075-5.154,0.962-7.54
																l-0.554,0.206c1.424,1.828,2.867,3.624,4.673,4.902c1.785,1.293,3.974,1.907,5.979,1.612
																c0.999-0.146,1.947-0.539,2.685-1.163c0.756-0.622,1.208-1.482,1.455-2.333c0.224-0.861,0.235-1.75-0.001-2.548
																c-0.24-0.796-0.738-1.486-1.38-1.905l-0.227,0.326c2.669,1.885,5.189,2.638,6.89,2.981
																c0.858,0.171,1.527,0.235,1.978,0.27c0.452,0.023,0.685,0.023,0.687,0.005c0.001-0.02-0.23-0.055-0.676-0.115
																c-0.445-0.069-1.104-0.167-1.944-0.368c-1.667-0.404-4.125-1.206-6.703-3.094l-0.227,0.326
																c1.147,0.75,1.608,2.439,1.149,3.996c-0.235,0.77-0.654,1.539-1.323,2.073c-0.661,0.547-1.526,0.899-2.441,1.023
																c-1.845,0.253-3.888-0.325-5.565-1.56c-1.708-1.225-3.108-2.976-4.521-4.809l-0.6-0.777l0.045,0.984
																c0.112,2.383,0.244,4.98-0.911,7.202c-0.58,1.074-1.531,1.993-2.671,2.485c-1.137,0.516-2.488,0.425-3.524-0.31
																c-1.298-0.907-2.097-2.399-2.795-3.843c-0.698-1.459-1.254-2.958-1.713-4.46c-0.918-3.008-1.443-6.018-1.952-8.88
																c-0.502-2.866-0.965-5.603-1.606-8.131c-0.63-2.529-1.493-4.816-2.461-6.811c-1.92-4.022-4.533-6.688-6.609-8.034
																C229.26,151.731,227.887,151.453,227.887,151.453z"/>
														</g>
													</g>
												</g>
											</g>
										</g>
									</g>
								</g>
							</g>
						</g>
						<g>
							<g>
								<g>
									<g>
										<g>
											<g>
												<g>
													<g>
														<g>
															<path style="fill:#455A64;" d="M150.129,198.069c-0.004,0.01,0.084,0.055,0.263,0.133
																c0.215,0.09,0.478,0.199,0.798,0.332c0.35,0.151,0.79,0.32,1.329,0.462c0.534,0.156,1.147,0.356,1.862,0.474
																c2.812,0.594,7.147,0.815,12.138-0.697c4.946-1.485,10.539-4.704,14.954-9.992c4.495-5.208,7.882-12.104,10.2-19.626
																c1.189-3.766,1.991-7.527,3.02-11.069c1.017-3.542,2.275-6.892,4.091-9.732c1.784-2.848,4.088-5.187,6.693-6.633
																c1.292-0.748,2.672-1.176,4.017-1.466c1.358-0.251,2.693-0.284,3.956-0.18c2.533,0.225,4.733,1.066,6.487,2.054
																c1.762,0.998,3.067,2.186,4.023,3.244c1.835,2.203,2.288,3.79,2.38,3.74c0.011-0.004-0.02-0.098-0.09-0.28
																c-0.089-0.217-0.197-0.48-0.328-0.802c-0.308-0.696-0.874-1.676-1.768-2.823c-0.941-1.102-2.248-2.344-4.033-3.396
																c-1.776-1.04-4.019-1.936-6.625-2.197c-1.3-0.122-2.68-0.102-4.092,0.145c-1.396,0.284-2.847,0.726-4.187,1.488
																c-2.713,1.477-5.1,3.88-6.939,6.784c-1.874,2.9-3.165,6.311-4.197,9.877c-1.046,3.57-1.851,7.323-3.03,11.054
																c-2.3,7.466-5.634,14.281-10.034,19.428c-4.325,5.23-9.774,8.418-14.632,9.942c-4.894,1.544-9.16,1.399-11.954,0.888
																C151.61,198.697,150.16,197.979,150.129,198.069z"/>
														</g>
													</g>
												</g>
											</g>
										</g>
									</g>
								</g>
							</g>
						</g>
						<g>
							<g>
								<g>
									<g>
										<g>
											<g>
												<g>
													<g>
														<g>
															<path style="fill:#455A64;" d="M144.791,186.716c-0.014,0.044,0.391,0.2,1.138,0.445
																c0.742,0.26,1.852,0.533,3.239,0.774c1.387,0.252,3.064,0.396,4.931,0.405c1.865-0.024,3.917-0.202,6.031-0.626
																c2.109-0.448,4.065-1.095,5.788-1.81c1.71-0.747,3.194-1.542,4.369-2.322c1.178-0.771,2.089-1.46,2.667-1.992
																c0.589-0.521,0.899-0.824,0.869-0.858c-0.078-0.095-1.395,1.038-3.78,2.457c-1.187,0.719-2.667,1.458-4.357,2.159
																c-1.702,0.671-3.623,1.288-5.69,1.727c-2.071,0.414-4.078,0.607-5.907,0.664c-1.829,0.023-3.481-0.07-4.855-0.26
																C146.482,187.117,144.825,186.598,144.791,186.716z"/>
														</g>
													</g>
												</g>
											</g>
										</g>
									</g>
								</g>
							</g>
						</g>
					</g>
				</g>
				<g>
					<g>
						<path style="fill:#263238;" d="M229.037,256.458c0.075,0.408-3.065,1.311-6.88,2.515c-3.821,1.192-6.913,2.245-7.084,1.867
							c-0.167-0.358,2.727-2.043,6.645-3.267C225.631,256.34,228.97,256.069,229.037,256.458z"/>
					</g>
				</g>
				<g>
					<g>
						<path style="fill:#6F4439;" d="M214.952,198.939c0.016,0.047-0.498,0.284-1.398,0.318c-0.894,0.04-2.162-0.212-3.336-0.943
							c-1.171-0.736-1.952-1.767-2.306-2.589c-0.363-0.825-0.375-1.391-0.325-1.397c0.082-0.019,0.216,0.506,0.633,1.24
							c0.411,0.734,1.171,1.646,2.258,2.331c1.091,0.678,2.243,0.963,3.083,1.012C214.402,198.967,214.933,198.857,214.952,198.939z
							"/>
					</g>
				</g>
				<g>
					<g>
						<path style="fill:#6F4439;" d="M232.455,259.409c-0.135-0.051,0.354-1.249,0.027-2.728c-0.291-1.486-1.219-2.389-1.115-2.49
							c0.039-0.045,0.334,0.115,0.689,0.519c0.354,0.399,0.735,1.063,0.905,1.871c0.167,0.809,0.084,1.569-0.082,2.077
							C232.715,259.17,232.508,259.435,232.455,259.409z"/>
					</g>
				</g>
			</g>
			<g>
				<g>
					<g>
						<path style="fill:#AE7461;" d="M128.947,261.393c0,0,21.904-44.424,23.403-46.21c1.499-1.786,9.476-20.362,9.476-20.362
							l11.158-13.336c0,0,5.234,0.785,1.911,7.558l-4.737,9.022l17.397-17.462c0,0,5.152,0.596,3.146,6.068
							c-1.491,4.066-6.804,10.364-6.804,10.364l15.614-13.553c0,0,6.496,1.001,3.38,7.816c-2.026,4.431-20.226,24.546-20.226,24.546
							s9.079-5.609,11.948-7.471c2.869-1.862,5.831-5.91,7.949-5.527c2.118,0.383,5.815,3.66,0.299,9.922
							c-5.516,6.262-21.035,16.241-23.295,17.481c-2.26,1.24-2.26,1.24-2.26,1.24s-2.688,6.962-6.478,10.325
							c0,0-6.228,19.736-9.367,25.169c-3.387,5.861-9.009,9.043-9.009,9.043l-9.581,25.88l-27.366-18.9L128.947,261.393z"/>
					</g>
					<g>
						<g>
							<path style="fill:#6F4439;" d="M128.947,261.393c0,0-0.284,0.493-0.863,1.44c-0.585,0.953-1.448,2.357-2.575,4.192
								c-2.277,3.683-5.622,9.093-9.915,16.035l-0.03-0.143c7.361,5.068,16.612,11.438,27.393,18.861l-0.232,0.073
								c2.866-7.765,6.093-16.505,9.557-25.888c0.015-0.039,0.041-0.071,0.074-0.091l0.006-0.004
								c2.537-1.557,4.912-3.609,6.906-6.048c0.987-1.228,1.891-2.556,2.594-4.007c0.703-1.456,1.35-2.966,1.958-4.511
								c2.434-6.18,4.629-12.757,6.812-19.551c0.012-0.036,0.034-0.068,0.06-0.092c1.396-1.268,2.581-2.891,3.637-4.641
								c1.045-1.757,1.99-3.65,2.78-5.607c0.019-0.047,0.054-0.085,0.095-0.109c1.146-0.641,2.321-1.243,3.438-1.942
								c1.125-0.697,2.249-1.415,3.368-2.154c2.241-1.474,4.479-3.006,6.705-4.6c2.224-1.596,4.441-3.252,6.603-5.013
								c2.146-1.77,4.297-3.616,6.059-5.808c0.852-1.106,1.616-2.32,1.965-3.665c0.371-1.32,0.179-2.832-0.77-3.848
								c-0.455-0.506-1.045-0.908-1.692-1.118c-0.644-0.23-1.289-0.045-1.905,0.305c-1.214,0.715-2.262,1.754-3.348,2.731
								c-1.074,0.985-2.208,1.99-3.489,2.741c-1.251,0.782-2.505,1.566-3.763,2.354c-2.516,1.574-5.048,3.157-7.593,4.748
								c-0.105,0.066-0.243,0.034-0.309-0.071c-0.054-0.087-0.04-0.198,0.025-0.27c1.328-1.488,2.761-3.095,4.2-4.707
								c4.021-4.568,7.982-9.115,11.705-13.755c0.927-1.163,1.835-2.334,2.7-3.527c0.854-1.205,1.667-2.407,2.079-3.799
								c0.438-1.353,0.484-2.879-0.253-4.062c-0.735-1.177-2.112-1.87-3.452-2.143l0.179-0.052
								c-5.305,4.603-10.516,9.124-15.617,13.55c-0.09,0.078-0.227,0.069-0.306-0.022c-0.07-0.081-0.068-0.202-0.002-0.281
								c2.207-2.7,4.307-5.481,5.926-8.463c0.388-0.751,0.768-1.51,0.988-2.309c0.261-0.785,0.37-1.62,0.242-2.406
								c-0.124-0.787-0.543-1.504-1.172-1.991c-0.627-0.481-1.412-0.793-2.184-0.914l0.172-0.06
								c-6.023,6.04-11.832,11.865-17.405,17.454c-0.077,0.077-0.202,0.077-0.279,0.001c-0.063-0.062-0.074-0.157-0.035-0.232
								c1.578-3.001,3.119-5.932,4.627-8.799c0.351-0.723,0.675-1.445,0.894-2.202c0.137-0.371,0.167-0.762,0.257-1.14
								c0.013-0.382,0.084-0.77,0.017-1.145c-0.061-0.754-0.363-1.475-0.888-1.999c-0.512-0.53-1.225-0.881-1.932-1.022l0.169-0.064
								c-3.919,4.676-7.63,9.105-11.169,13.327l0.026-0.042c-2.274,5.246-4.47,10.232-6.659,14.905
								c-0.554,1.166-1.098,2.315-1.674,3.432c-0.285,0.56-0.577,1.109-0.909,1.645c-0.373,0.548-0.667,1.003-0.966,1.55
								c-1.181,2.117-2.251,4.218-3.301,6.237c-4.161,8.099-7.676,15.125-10.559,20.869c-2.873,5.742-5.108,10.21-6.629,13.25
								c-0.758,1.51-1.338,2.664-1.732,3.449C129.159,261,128.947,261.393,128.947,261.393s0.182-0.408,0.56-1.191
								c0.384-0.79,0.949-1.951,1.688-3.471c1.503-3.05,3.71-7.531,6.548-13.291c2.857-5.757,6.347-12.795,10.487-20.908
								c1.046-2.024,2.108-4.124,3.29-6.255c0.278-0.522,0.655-1.095,0.973-1.568c0.316-0.513,0.609-1.064,0.89-1.62
								c0.57-1.111,1.112-2.261,1.662-3.425c2.175-4.672,4.362-9.662,6.625-14.909c0.007-0.015,0.016-0.03,0.026-0.042
								c3.532-4.228,7.236-8.662,11.147-13.345l0.005-0.006c0.041-0.049,0.105-0.069,0.164-0.058
								c0.81,0.161,1.557,0.532,2.143,1.126c0.59,0.585,0.93,1.403,0.996,2.222c0.071,0.412-0.001,0.821-0.016,1.231
								c-0.091,0.396-0.127,0.812-0.267,1.196c-0.225,0.785-0.562,1.537-0.917,2.27c-1.505,2.87-3.043,5.804-4.618,8.809
								l-0.314-0.231c5.568-5.594,11.371-11.425,17.388-17.471l0.006-0.006c0.045-0.045,0.108-0.063,0.167-0.054
								c0.872,0.137,1.688,0.462,2.396,1c0.703,0.539,1.193,1.37,1.329,2.25c0.144,0.88,0.019,1.777-0.251,2.6
								c-0.233,0.843-0.622,1.62-1.017,2.386c-1.648,3.037-3.748,5.817-5.972,8.543l-0.308-0.303
								c5.099-4.428,10.308-8.952,15.611-13.557l0.005-0.005c0.049-0.043,0.114-0.058,0.174-0.047
								c0.754,0.143,1.451,0.409,2.108,0.789c0.645,0.384,1.255,0.887,1.653,1.555c0.833,1.336,0.76,3.02,0.303,4.429
								c-0.249,0.707-0.507,1.414-0.908,2.06c-0.373,0.656-0.81,1.254-1.234,1.867c-0.872,1.204-1.784,2.38-2.713,3.546
								c-3.733,4.653-7.694,9.202-11.719,13.773c-1.44,1.614-2.875,3.222-4.204,4.711l-0.285-0.341
								c2.543-1.59,5.073-3.172,7.588-4.744c2.494-1.62,5.129-2.963,7.193-5.046c1.089-0.975,2.13-2.021,3.431-2.79
								c0.334-0.177,0.683-0.346,1.076-0.419c0.386-0.108,0.825-0.023,1.182,0.08c0.733,0.239,1.38,0.681,1.888,1.246
								c1.063,1.134,1.269,2.845,0.867,4.251c-0.376,1.44-1.173,2.692-2.047,3.827c-1.808,2.246-3.972,4.095-6.13,5.875
								c-2.173,1.768-4.396,3.427-6.627,5.026c-2.232,1.597-4.475,3.131-6.722,4.606c-1.122,0.74-2.249,1.459-3.381,2.159
								c-1.135,0.71-2.313,1.312-3.457,1.95l0.095-0.109c-0.806,1.991-1.756,3.889-2.817,5.67c-1.072,1.77-2.274,3.421-3.721,4.733
								l0.059-0.092c-2.192,6.801-4.394,13.375-6.843,19.571c-0.611,1.549-1.264,3.065-1.977,4.538
								c-0.719,1.479-1.64,2.828-2.644,4.073c-2.033,2.477-4.42,4.537-7.019,6.126l0.08-0.094
								c-3.482,9.377-6.725,18.111-9.606,25.87c-0.029,0.08-0.118,0.121-0.198,0.091c-0.012-0.004-0.024-0.011-0.035-0.018
								c-10.759-7.454-19.992-13.85-27.338-18.94c-0.047-0.032-0.059-0.096-0.03-0.143c4.329-6.918,7.702-12.309,9.999-15.978
								c1.148-1.824,2.026-3.218,2.623-4.165C128.629,261.868,128.947,261.393,128.947,261.393z"/>
						</g>
					</g>
				</g>
				<g>
					<g>
						<path style="fill:#6F4439;" d="M186.414,194.188c0.023,0.02-0.319,0.451-0.958,1.214c-0.64,0.761-1.584,1.847-2.771,3.17
							c-2.383,2.638-5.748,6.224-9.709,9.938c-3.141,2.949-6.196,5.516-8.761,7.445l-0.028,0.021l-0.032,0.009
							c-2.364,0.669-4.141,1.699-5.301,2.493c-1.162,0.802-1.746,1.355-1.778,1.319c-0.012-0.013,0.122-0.163,0.394-0.427
							c0.275-0.261,0.692-0.632,1.263-1.061c1.137-0.853,2.917-1.951,5.321-2.674l-0.06,0.03c2.521-1.963,5.543-4.544,8.674-7.484
							c3.949-3.703,7.344-7.246,9.783-9.826c1.176-1.256,2.146-2.292,2.874-3.071C186.005,194.56,186.391,194.168,186.414,194.188z"
							/>
					</g>
				</g>
				<g>
					<g>
						<path style="fill:#6F4439;" d="M171.015,197.01c0.045,0.04-0.576,0.832-1.64,2.062c-1.063,1.229-2.578,2.889-4.29,4.68
							c-1.672,1.73-3.183,3.295-4.408,4.562c-1.132,1.163-1.842,1.874-1.89,1.832c-0.045-0.04,0.582-0.827,1.657-2.048
							c1.073-1.221,2.604-2.865,4.316-4.656c1.661-1.738,3.163-3.31,4.38-4.584C170.262,197.684,170.967,196.967,171.015,197.01z"/>
					</g>
				</g>
				<g>
					<g>
						<g>
							<path style="fill:#6F4439;" d="M183.076,215.588c0.017,0.026-0.211,0.21-0.639,0.522c-0.427,0.314-1.061,0.744-1.859,1.256
								c-1.594,1.024-3.86,2.343-6.461,3.61c-2.603,1.265-5.04,2.234-6.829,2.856c-0.895,0.312-1.624,0.545-2.135,0.688
								c-0.51,0.144-0.796,0.21-0.806,0.181c-0.021-0.064,1.076-0.469,2.829-1.166c1.754-0.695,4.156-1.706,6.744-2.963
								c2.585-1.26,4.863-2.527,6.492-3.477C182.043,216.145,183.039,215.532,183.076,215.588z"/>
						</g>
					</g>
				</g>
			</g>
		</g>
		<g>
			<g>
				<g>
					<path style="fill:#E0E0E0;" d="M125.566,264.855c-0.957,1.275-29.337,44.005-29.337,44.005s-26.804,41.757-30.719,53.505
						c-5.717,17.155-6.994,46.89,11.501,54.862s24.869,8.229,47.191-0.38c22.322-8.61,38.591-22.06,38.591-22.06l-4.383-77.714
						l-17.999,9.238l15.49-41.59L125.566,264.855z"/>
				</g>
				<g>
					<path style="fill:#E0E0E0;" d="M363.979,331.028c0,0,14.412,11.533,19.629,50.823c3.293,24.804,12.639,84.916,12.639,84.916
						l-54.477,0.121c0,0-10.947-77.555-9.832-78.729C333.054,386.985,363.979,331.028,363.979,331.028z"/>
				</g>
				<g>
					<path style="fill:#E0E0E0;" d="M158.41,317.073l61.331-7.877c0,0,11.573,18.531,34.221,14.913
						c31.796-5.08,30.975-27.506,30.975-27.506s52.922,18.17,63.165,22.754c10.243,4.583,15.877,11.671,15.877,11.671
						s-18.804,72.967-19.389,73.884c-0.585,0.917-4.146,62.666-2.82,61.976c0.57-0.297-172.611,0.018-175.483,0.006l-5.189-73.698
						l-18.152-62.839L158.41,317.073z"/>
				</g>
				<g>
					<g>
						<path style="fill:#263238;" d="M148.449,305.663c0.014,0.006-0.071,0.254-0.245,0.721c-0.193,0.502-0.454,1.181-0.783,2.035
							c-0.674,1.77-1.661,4.325-2.821,7.506c-2.339,6.354-5.342,15.213-8.572,25.028c-1.595,4.922-3.304,9.536-4.26,13.908
							c-0.523,2.175-1.005,4.251-1.548,6.173c-0.527,1.925-1.159,3.686-1.787,5.258c-0.621,1.574-1.136,3.011-1.566,4.286
							c-0.427,1.281-0.91,2.345-1.318,3.2c-0.41,0.855-0.742,1.511-0.974,1.953c-0.231,0.442-0.359,0.671-0.373,0.664
							c-0.014-0.007,0.087-0.249,0.292-0.703c0.221-0.49,0.52-1.152,0.896-1.987c0.383-0.865,0.837-1.926,1.239-3.206
							c0.407-1.282,0.905-2.737,1.507-4.321c1.275-3.137,2.236-7.044,3.229-11.413c0.939-4.397,2.646-9.046,4.236-13.953
							c3.231-9.816,6.284-18.667,8.701-24.998c1.199-3.169,2.232-5.709,2.956-7.46c0.362-0.842,0.649-1.51,0.862-2.005
							C148.321,305.893,148.434,305.657,148.449,305.663z"/>
					</g>
				</g>
				<g>
					<g>
						<path style="fill:#263238;" d="M163.274,423.256c-0.012,0.001-0.035-0.172-0.069-0.506c-0.033-0.367-0.078-0.856-0.134-1.474
							c-0.105-1.326-0.253-3.199-0.439-5.547c-0.348-4.789-0.836-11.505-1.407-19.377l0.004,0.03
							c-1.081-4.892-2.346-10.251-3.843-15.821c-3.072-11.54-6.704-21.763-10.166-28.776c-1.672-3.539-3.406-6.193-4.604-8.018
							c-0.628-0.893-1.167-1.549-1.504-2.017c-0.157-0.215-0.285-0.389-0.388-0.529c-0.086-0.121-0.127-0.186-0.121-0.191
							c0.006-0.005,0.058,0.049,0.156,0.161c0.112,0.133,0.251,0.298,0.423,0.502c0.36,0.45,0.924,1.092,1.577,1.973
							c1.246,1.801,3.031,4.445,4.745,7.979c3.548,7.005,7.239,17.243,10.315,28.801c1.5,5.579,2.755,10.948,3.816,15.849
							l0.003,0.016l0.001,0.015c0.506,7.877,0.938,14.597,1.245,19.388c0.136,2.351,0.244,4.227,0.321,5.555
							c0.029,0.619,0.051,1.11,0.068,1.478C163.286,423.08,163.286,423.255,163.274,423.256z"/>
					</g>
				</g>
				<g>
					<g>
						<path style="fill:#263238;" d="M341.77,466.888c-0.008,0-0.04,0.188-0.046,0c-0.003-0.212-0.008-0.488-0.014-0.835
							c-0.002-0.763-0.006-1.839-0.01-3.211c0.011-2.818,0.026-6.846,0.045-11.813c0.082-10.001,0.194-23.775,0.318-39.001l0-0.014
							l0.002-0.013c0.01-0.075,0.021-0.156,0.032-0.238c2.043-15.149,3.893-28.86,5.236-38.818
							c0.688-4.942,1.247-8.952,1.638-11.757c0.2-1.364,0.357-2.435,0.468-3.193c0.055-0.345,0.099-0.619,0.133-0.829
							c0.032-0.186,0.053-0.281,0.06-0.281c0.008,0.001,0.002,0.098-0.015,0.286c-0.023,0.212-0.052,0.487-0.089,0.835
							c-0.091,0.761-0.22,1.835-0.384,3.204c-0.357,2.81-0.867,6.825-1.496,11.775c-1.31,9.962-3.113,23.68-5.105,38.835
							c-0.011,0.081-0.022,0.163-0.032,0.238l0.002-0.027c-0.176,15.226-0.335,28.999-0.45,39
							c-0.079,4.966-0.143,8.994-0.188,11.812c-0.031,1.372-0.056,2.448-0.074,3.21C341.788,466.401,341.778,466.676,341.77,466.888
							C341.761,467.076,341.778,466.888,341.77,466.888z"/>
					</g>
				</g>
			</g>
			<g>
				<polygon style="fill:#FF725E;" points="245.857,346.65 231.725,466.571 273.076,466.767 255.234,346.65 				"/>
			</g>
			<g style="opacity:0.3;">
				<path d="M63.46,370.007c0,0,25.094,43.414,66.726,44.362l9.508-5.633L68.937,352.56C68.937,352.56,64.753,363.344,63.46,370.007
					z"/>
			</g>
			<g>
				<path style="fill:#E0E0E0;" d="M213.638,309.487l5.415-9.667c0,0,31.183,23.718,30.758,24.215c0,0,32.764-35.561,33.285-36.09
					l7.256,10.764c0,0-28.953,37.284-29.343,37.614c-0.473,0.401-18.228-3.224-18.228-3.224l-15.091-7.117L213.638,309.487z"/>
			</g>
			<g>
				<polygon style="fill:#FF725E;" points="241.127,338.584 246.351,348.88 255.728,348.88 259.417,336.985 252.489,328.834 
					248.392,328.834 				"/>
			</g>
			<g>
				<g>
					<path style="fill:#263238;" d="M250.273,326.265c0.01,0.008-0.048,0.107-0.17,0.292c-0.151,0.218-0.332,0.482-0.553,0.802
						c-0.532,0.741-1.248,1.739-2.135,2.973c-1.893,2.578-4.506,6.135-7.559,10.293l-0.162,0.221l-0.187-0.203
						c-2.17-2.355-4.546-4.934-7.035-7.635c-5.235-5.739-9.917-10.986-13.225-14.857c-1.659-1.93-2.966-3.525-3.847-4.644
						c-0.448-0.553-0.764-1.01-0.987-1.311c-0.219-0.305-0.327-0.469-0.314-0.48c0.014-0.01,0.148,0.135,0.392,0.419
						c0.248,0.282,0.586,0.717,1.056,1.251c0.924,1.08,2.269,2.637,3.96,4.537c3.371,3.809,8.092,9.017,13.326,14.754
						c2.479,2.709,4.846,5.294,7.007,7.656l-0.349,0.019c3.111-4.115,5.772-7.636,7.701-10.187c0.93-1.202,1.681-2.174,2.239-2.896
						c0.243-0.303,0.444-0.552,0.61-0.759C250.184,326.341,250.262,326.257,250.273,326.265z"/>
				</g>
			</g>
			<g>
				<g>
					<path style="fill:#263238;" d="M290.813,300.939c0.353,0.14-1.689,3.287-5.229,8.05c-3.539,4.786-8.571,11.287-14.204,18.406
						c-3.523,4.451-6.863,8.618-9.745,12.175l-0.165,0.203l-0.167-0.199c-3.292-3.929-6.057-7.229-8.039-9.594
						c-0.935-1.139-1.684-2.051-2.234-2.721c-0.232-0.293-0.422-0.533-0.577-0.729c-0.128-0.168-0.189-0.258-0.18-0.265
						c0.009-0.008,0.088,0.068,0.233,0.221c0.169,0.185,0.375,0.411,0.627,0.687c0.573,0.651,1.352,1.537,2.326,2.644
						c2.015,2.337,4.826,5.597,8.173,9.479l-0.331,0.004c2.853-3.593,6.17-7.769,9.697-12.209
						c5.632-7.117,10.705-13.582,14.311-18.31C288.92,304.067,291.04,301.026,290.813,300.939z"/>
				</g>
			</g>
			<g>
				<g>
					<path style="fill:#263238;" d="M245.637,348.164c-0.06-0.025,0.293-1.051,0.957-2.673c0.664-1.622,1.651-3.835,2.859-6.222
						c1.21-2.387,2.41-4.493,3.324-5.988c0.915-1.495,1.533-2.387,1.588-2.353c0.06,0.036-0.453,0.99-1.289,2.526
						c-0.835,1.535-1.983,3.658-3.188,6.036c-1.203,2.377-2.235,4.558-2.978,6.141C246.167,347.213,245.702,348.191,245.637,348.164
						z"/>
				</g>
			</g>
			<g>
				<g>
					<path style="fill:#263238;" d="M255.504,348.716c0,0.135-2.181,0.244-4.871,0.244c-2.691,0-4.871-0.109-4.871-0.244
						c0-0.135,2.18-0.245,4.871-0.245C253.323,348.471,255.504,348.581,255.504,348.716z"/>
				</g>
			</g>
			<g style="opacity:0.3;">
				<polygon points="217.248,315.573 241.093,344.568 252.456,328.639 250.273,326.265 239.674,340.489 				"/>
			</g>
			<g style="opacity:0.3;">
				<path d="M252.456,328.639c1.222,1.632,6.935,17.444,9.099,17.646c2.164,0.202,27.296-42.05,27.296-42.05l-27.384,35.199
					L252.456,328.639z"/>
			</g>
			<g style="opacity:0.3;">
				<path d="M124.493,375.692l-2.482,6.235c0,0,9.653,0.96,12.962-17.794c3.31-18.754,3.388-30.219,3.388-30.219L124.493,375.692z"
					/>
			</g>
			<g style="opacity:0.3;">
				<polygon points="345.667,466.903 343.88,401.647 342.51,412.002 341.737,466.825 				"/>
			</g>
			<g style="opacity:0.3;">
				<path d="M195.551,314.593c0,0,16.301,14.326,44.333,14.241c28.032-0.085,45.303-8.178,63.372-23.809l-10.239-3.561
					c0,0-16.48,11.224-42.384,11.716c-25.904,0.492-41.796-0.88-41.796-0.88L195.551,314.593z"/>
			</g>
			<path style="opacity:0.3;" d="M232.402,466.971c0,0,7.144-11.291,18.771-17.203c12.157-6.181,18.613-6.021,18.613-6.021
				l-1.398-9.414l-17.215,0.461l-15.339,11.998l-2.1,7.799L232.402,466.971z"/>
		</g>
		<g>
			<g style="opacity:0.3;">
				<path d="M166.324,464.563c0,0,6.48-9.611,19.491-20.724c13.011-11.113,82.943-52.317,82.943-52.317l101.549-53.365l-5.829-7.23
					l-161.48,78.385l-39.216,34.263L166.324,464.563z"/>
			</g>
			<g>
				<path style="fill:#455A64;" d="M164.683,466.586l-16.93-0.002c1.19-23.811,13.137-41.013,40.095-59.667
					c24.773-17.142,63.174-36.287,116.323-62.786c19.468-9.707,41.533-20.707,65.702-32.99
					c14.348-7.292,26.953-17.598,36.452-29.803l13.339,10.38c-11.015,14.154-25.585,26.08-42.134,34.491
					c-24.227,12.313-46.323,23.328-65.818,33.048C208.938,410.497,166.446,430.894,164.683,466.586z"/>
			</g>
		</g>
		<g>
			<g>
				<path style="fill:#FF725E;" d="M159.953,415.706c-42.944,0.003-82.761-28.949-95.493-56.516
					c-3.699-8.007-9.861-23.559-9.58-37.732c0.224-11.269,4.532-27.419,15.933-35.854c5.407-4,12.996-6.857,20.823-7.84
					c8.849-1.108,16.93,0.302,22.762,3.975l-10.509,16.686c-4.268-2.688-15.839-1.043-21.349,3.033
					c-4.362,3.227-7.778,11.993-7.945,20.392c-0.148,7.468,2.683,18.065,7.766,29.073c5.017,10.861,16.305,22.419,30.196,30.917
					c15.653,9.576,33.265,14.609,49.573,14.116l0.571,19.711C161.786,415.693,160.866,415.706,159.953,415.706z"/>
			</g>
			<g style="opacity:0.3;">
				<path d="M99.842,297.223l5.742-18.982c0,0,6.511,1.706,8.57,3.551l-10.402,16.397"/>
			</g>
		</g>
		<g>
			<g style="opacity:0.3;">
				<path d="M147.918,322.614c0.406-0.209,62.013,49.83,107.109,61.343c45.097,11.513,82.39,13.516,96.906,10.512
					c14.517-3.003,32.791-8.157,32.791-8.157l-2.128-13.953c0,0-52.938,4.089-87.478,1.836s-117.886-51.583-117.886-51.583
					l-16.553-7.942L147.918,322.614z"/>
			</g>
			<g>
				<g>
					<path style="fill:#FF725E;" d="M325.49,389.953c-15.789,0-30.677-2.096-43.237-4.765
						c-26.751-5.685-56.431-21.355-76.428-32.648c-5.018-2.833-10.444-5.976-16.588-9.606c-4.149-2.451-8.164-4.851-12.008-7.149
						c-13.947-8.336-26.274-15.423-33.236-18.193c2.143-6.615,4.37-12.926,6.697-18.876c8.431,3.353,21.375,11.01,36.656,20.142
						c3.818,2.282,7.805,4.665,11.924,7.099c6.032,3.564,11.349,6.644,16.253,9.414c18.866,10.653,46.733,25.408,70.83,30.53
						c26.995,5.735,65.869,8.65,97.769-10.038c14.902-8.731,26.933-20.873,33.875-34.188c7.932-15.214,9.402-31.587,4.37-48.666
						c-7.448-25.281-33.228-39.295-64.155-34.862c-19.288,2.763-36.026,10.519-50.794,17.363
						c-11.138,5.161-20.757,9.619-29.854,11.227l-3.433-19.417c6.568-1.162,15.108-5.119,24.996-9.701
						c15.207-7.047,34.133-15.818,56.289-18.991c20.043-2.871,38.87,0.335,54.449,9.269c15.339,8.796,26.498,22.839,31.418,39.541
						c6.431,21.832,4.425,43.739-5.801,63.354c-8.758,16.8-23.072,31.353-41.392,42.087
						C372.168,385.719,347.922,389.953,325.49,389.953z"/>
				</g>
				<g style="opacity:0.3;">
					<path d="M357.273,218.515c2.486,7.431,1.019,19.939,1.019,19.939l-4.441,0.422c0.368-6.706-0.184-13.269-1.794-19.669
						L357.273,218.515z"/>
				</g>
				<g style="opacity:0.3;">
					<path d="M380.482,218.29c0,0,1.505,8.821,0,19.973l-4.403-0.801v-19.706L380.482,218.29z"/>
				</g>
				<g style="opacity:0.3;">
					<path d="M424.972,285.453l0.271,6.178c0,0,12.364-11.456,14.469-28.504c-1.313-3.716-2.446-6.346-3.956-8.941L424.972,285.453z
						"/>
				</g>
				<g style="opacity:0.3;">
					<path d="M281.262,245.27c0,0.328,3.091,19.626,3.091,19.626c-1.983,0.78-4.488,1.406-7.202,1.969l-3.087-19.682
						C276.69,246.92,279.084,246.179,281.262,245.27z"/>
				</g>
			</g>
		</g>
		<g>
			<path style="fill:#455A64;" d="M240.894,323.759c-10.154,0-20.011-1.696-28.58-5.035c-3.572-1.391-8.566-3.59-13.854-5.918
				c-4.47-1.968-9.093-4.004-13.5-5.844c-6.225-2.601-14.386-2.258-16.101,1.027l-14.963-7.892
				c6.613-12.676,24.531-14.182,37.579-8.731c4.555,1.903,9.253,3.971,13.796,5.971c5.115,2.252,9.948,4.38,13.179,5.639
				c11.049,4.304,25.67,5.06,39.109,2.024c17.207-3.888,38.835-17.432,50.308-31.506c12.181-14.941,16.191-32.323,11.002-47.69
				c-4.901-14.516-29.325-24.212-42.655-22.863l-1.709-16.815c19.255-1.958,52.327,10.423,60.379,34.271
				c7.087,20.991,2.015,44.237-13.916,63.777c-13.797,16.924-38.897,32.616-59.684,37.312
				C254.55,323.007,247.656,323.759,240.894,323.759z"/>
		</g>
		<g>
			<path style="fill:#455A64;" d="M215.41,466.585c-0.016-11.508,6.909-23.946,18.525-33.272
				c28.643-22.995,70.525-18.048,92.941-13.051l-3.677,16.497c-45.325-10.1-68.753,1.762-78.683,9.734
				c-9.019,7.241-12.211,15.336-12.204,20.069L215.41,466.585z"/>
			<g>
				<polygon style="fill:#455A64;" points="314.417,441.322 339.335,432.041 321.719,412.026 				"/>
			</g>
		</g>
		<g style="opacity:0.3;">
			<path d="M283.281,186.074l-1.427,16.814h-5.501l-1.597-16.898C277.985,185.653,280.898,185.614,283.281,186.074z"/>
		</g>
		<g style="opacity:0.3;">
			<path d="M156.393,296.393c0,0,14.3,9.965,14.107,10.029c-0.194,0.065-0.943,0.397-1.64,1.566l-14.963-7.892
				C153.896,300.096,155.215,297.72,156.393,296.393z"/>
		</g>
		<g>
			<path style="fill:none;stroke:#FF725E;stroke-width:21;stroke-miterlimit:10;" d="M223.958,145.372"/>
		</g>
		<g>
			<g>
				<polygon style="fill:#455A64;" points="295.617,115.137 275.469,143.111 307.701,153.391 				"/>
			</g>
			<g>
				<path style="fill:#455A64;" d="M393.5,316.759l-6.762-15.49l-0.104,0.046c0.117-0.055,11.873-5.744,23.569-25.917
					c11.79-20.334,11.686-51.254,11.664-53.314c-1.965-38.231-18.906-64.762-50.352-78.863l-0.531-0.236
					c-21.359-9.492-46.083-9.786-67.839-0.808l-7.375,3.043l-6.447-15.625l7.375-3.043c26.011-10.732,55.587-10.372,81.143,0.985
					l0.575,0.257c37.236,16.697,58.096,49.058,60.338,93.591l0.009,0.249c0.031,1.505,0.603,37.163-13.939,62.244
					C410.332,308.872,395.179,316.026,393.5,316.759z"/>
			</g>
		</g>
		<g>
			<g>
				<g>
					<path style="fill:#FF725E;" d="M349.07,319.91l-18.203-7.153c2.282-6.289,4.789-11.484,7.796-17.435
						c3.743-7.408,7.614-15.069,10.688-24.73c11.134-34.993,9.633-54.277,2.666-79.646l19.015-5.222
						c7.816,28.462,9.672,51.369-2.889,90.848c-3.552,11.165-7.976,19.92-11.878,27.644
						C353.53,309.623,350.949,314.733,349.07,319.91z"/>
				</g>
				<g>
					<polygon style="fill:#FF725E;" points="378.932,186.547 353.984,162.581 340.471,194.532 					"/>
				</g>
			</g>
			<g style="opacity:0.3;">
				<polygon points="330.867,312.744 332.547,308.6 350.836,315.126 349.07,319.91 				"/>
			</g>
		</g>
	</g>
</g>
<g id="Speech_Bubbles">
	<g>
		<g>
			<g>
				
					<ellipse transform="matrix(0.9935 -0.1138 0.1138 0.9935 -8.5039 43.5619)" style="fill:#FFFFFF;" cx="377.45" cy="96.294" rx="49.597" ry="49.597"/>
			</g>
			<g>
				<g>
					<path style="fill:#263238;" d="M327.852,96.295c0.017,0,0.047-0.272,0.091-0.803c0.041-0.575,0.096-1.355,0.168-2.352
						c0.033-0.521,0.07-1.098,0.111-1.732c0.069-0.634,0.208-1.321,0.322-2.068c0.241-1.494,0.47-3.226,1.045-5.109
						c0.882-3.823,2.681-8.339,5.51-13.124c2.852-4.764,6.962-9.74,12.553-13.961c5.573-4.181,12.605-7.737,20.719-9.171
						c8.059-1.383,17.156-1.131,25.819,2.161c2.204,0.706,4.277,1.797,6.407,2.819c2.018,1.22,4.144,2.345,6.023,3.873
						c1.997,1.371,3.743,3.087,5.571,4.738c1.652,1.829,3.388,3.619,4.812,5.695c2.923,4.06,5.475,8.57,7.019,13.531
						c1.601,4.93,2.463,10.166,2.534,15.494c-0.07,5.33-0.93,10.568-2.53,15.499c-1.543,4.962-4.096,9.474-7.019,13.535
						c-1.424,2.076-3.16,3.867-4.812,5.697c-1.829,1.652-3.575,3.368-5.572,4.74c-1.879,1.528-4.005,2.653-6.024,3.874
						c-2.131,1.022-4.203,2.113-6.408,2.82c-8.664,3.293-17.762,3.544-25.822,2.161c-8.115-1.435-15.146-4.991-20.719-9.172
						c-5.591-4.221-9.7-9.197-12.552-13.961c-2.829-4.785-4.628-9.3-5.509-13.123c-0.576-1.883-0.804-3.615-1.045-5.108
						c-0.114-0.747-0.252-1.434-0.322-2.068c-0.041-0.633-0.078-1.21-0.111-1.731c-0.071-0.997-0.127-1.777-0.168-2.352
						C327.9,96.567,327.869,96.295,327.852,96.295c-0.017,0-0.02,0.272-0.01,0.804c0.017,0.578,0.04,1.361,0.07,2.363
						c0.019,0.525,0.041,1.106,0.064,1.743c0.054,0.639,0.177,1.331,0.277,2.085c0.212,1.507,0.413,3.255,0.964,5.16
						c0.832,3.866,2.592,8.446,5.408,13.311c2.839,4.844,6.96,9.916,12.602,14.232c5.624,4.276,12.747,7.926,20.99,9.42
						c8.186,1.443,17.444,1.218,26.28-2.111c2.247-0.715,4.362-1.818,6.535-2.857c2.06-1.237,4.228-2.382,6.146-3.933
						c2.037-1.395,3.821-3.138,5.686-4.821c1.689-1.86,3.459-3.685,4.915-5.799c2.986-4.136,5.591-8.737,7.171-13.797
						c1.636-5.029,2.515-10.373,2.585-15.807c-0.071-5.433-0.952-10.775-2.589-15.802c-1.58-5.058-4.185-9.657-7.171-13.792
						c-1.456-2.114-3.226-3.937-4.914-5.797c-1.865-1.682-3.649-3.425-5.686-4.819c-1.918-1.551-4.085-2.696-6.145-3.932
						c-2.172-1.039-4.287-2.141-6.534-2.856c-8.834-3.328-18.091-3.554-26.277-2.111c-8.243,1.493-15.366,5.143-20.991,9.419
						c-5.643,4.316-9.765,9.387-12.604,14.232c-2.816,4.865-4.577,9.445-5.409,13.311c-0.551,1.905-0.752,3.654-0.964,5.161
						c-0.099,0.754-0.222,1.446-0.277,2.085c-0.023,0.637-0.045,1.218-0.064,1.743c-0.03,1.002-0.053,1.785-0.07,2.363
						C327.832,96.022,327.836,96.295,327.852,96.295z"/>
				</g>
			</g>
		</g>
		<g>
			<g>
				<g>
					<g>
						<g>
							<g>
								<path style="fill:#263238;" d="M364.98,84.059h6.644c0,0,0-5.578,5.797-5.679c3.011-0.052,4.572,1.92,5.206,3.431
									c0.737,1.755,0.514,3.754-0.473,5.381c-1.127,1.858-3.596,3.547-8.074,2.758v14.981h6.57v-8.775
									c0,0,9.214-2.382,9.214-12.536c0-9.715-8.712-11.972-12.442-11.972C374.571,71.649,364.855,72.338,364.98,84.059z"/>
							</g>
						</g>
					</g>
				</g>
				<g>
					<g>
						<g>
							<g>
								<rect x="374.063" y="108.018" style="fill:#263238;" width="6.667" height="6.227"/>
							</g>
						</g>
					</g>
				</g>
			</g>
		</g>
		<g>
			<g>
				
					<ellipse transform="matrix(0.6699 -0.7425 0.7425 0.6699 0.5926 300.1155)" style="fill:#FFFFFF;" cx="337.792" cy="149.391" rx="7.499" ry="7.499"/>
			</g>
			<g>
				<g>
					<path style="fill:#263238;" d="M330.293,149.391c0.096,0.003,0.103-0.667,0.435-1.781c0.328-1.093,1.101-2.678,2.754-3.882
						c1.598-1.208,4.199-1.866,6.698-0.921c2.479,0.869,4.608,3.508,4.581,6.583c0.028,3.076-2.102,5.715-4.581,6.585
						c-2.499,0.945-5.1,0.287-6.698-0.921c-1.653-1.204-2.426-2.789-2.754-3.882C330.396,150.059,330.389,149.388,330.293,149.391
						c-0.048-0.005-0.189,0.671,0.034,1.881c0.221,1.184,0.935,2.964,2.7,4.378c1.703,1.415,4.614,2.268,7.487,1.244
						c2.847-0.931,5.344-3.955,5.309-7.505c0.033-3.548-2.462-6.571-5.309-7.502c-2.872-1.024-5.783-0.171-7.486,1.244
						c-1.765,1.414-2.479,3.194-2.7,4.378C330.104,148.72,330.244,149.396,330.293,149.391z"/>
				</g>
			</g>
		</g>
	</g>
	<g>
		<g>
			<g>
				
					<ellipse transform="matrix(0.1615 -0.9869 0.9869 0.1615 -46.8077 230.7724)" style="fill:#FFFFFF;" cx="112.399" cy="142.931" rx="26.088" ry="26.088"/>
			</g>
			<g>
				<g>
					<path style="fill:#263238;" d="M138.487,142.931c-0.009,0-0.025-0.143-0.048-0.422c-0.022-0.302-0.051-0.713-0.088-1.237
						c-0.018-0.274-0.037-0.578-0.058-0.911c-0.036-0.333-0.109-0.695-0.169-1.088c-0.127-0.786-0.247-1.697-0.55-2.687
						c-0.464-2.011-1.41-4.386-2.898-6.903c-1.5-2.506-3.662-5.123-6.603-7.343c-2.932-2.199-6.63-4.069-10.898-4.824
						c-4.239-0.728-9.024-0.595-13.58,1.137c-1.16,0.372-2.25,0.945-3.37,1.483c-1.061,0.642-2.18,1.234-3.168,2.037
						c-1.05,0.721-1.968,1.624-2.93,2.492c-0.869,0.962-1.782,1.904-2.531,2.995c-1.537,2.135-2.88,4.508-3.692,7.117
						c-0.842,2.593-1.295,5.347-1.333,8.15c0.037,2.803,0.489,5.559,1.331,8.153c0.812,2.61,2.155,4.983,3.692,7.119
						c0.749,1.092,1.662,2.034,2.531,2.996c0.962,0.869,1.88,1.771,2.931,2.493c0.988,0.804,2.107,1.396,3.168,2.038
						c1.121,0.538,2.211,1.112,3.371,1.483c4.557,1.732,9.343,1.864,13.582,1.136c4.268-0.755,7.967-2.625,10.898-4.824
						c2.941-2.22,5.102-4.837,6.602-7.344c1.488-2.517,2.434-4.892,2.898-6.902c0.303-0.99,0.423-1.901,0.55-2.687
						c0.06-0.393,0.133-0.754,0.169-1.088c0.021-0.333,0.041-0.637,0.058-0.911c0.038-0.524,0.067-0.935,0.088-1.237
						C138.462,143.074,138.478,142.931,138.487,142.931c0.009,0,0.01,0.143,0.005,0.423c-0.009,0.304-0.021,0.716-0.037,1.243
						c-0.01,0.276-0.021,0.582-0.034,0.917c-0.028,0.336-0.093,0.7-0.146,1.097c-0.111,0.792-0.217,1.712-0.507,2.714
						c-0.437,2.034-1.363,4.442-2.844,7.001c-1.493,2.548-3.661,5.215-6.629,7.486c-2.958,2.249-6.705,4.169-11.041,4.955
						c-4.306,0.759-9.175,0.641-13.823-1.11c-1.182-0.376-2.294-0.956-3.437-1.503c-1.084-0.65-2.224-1.253-3.233-2.069
						c-1.071-0.734-2.01-1.651-2.991-2.536c-0.888-0.978-1.819-1.938-2.585-3.05c-1.571-2.176-2.941-4.595-3.772-7.257
						c-0.861-2.645-1.323-5.456-1.36-8.315c0.037-2.858,0.501-5.667,1.362-8.312c0.831-2.661,2.201-5.08,3.772-7.255
						c0.766-1.112,1.697-2.071,2.585-3.049c0.981-0.885,1.919-1.801,2.991-2.535c1.009-0.816,2.149-1.418,3.232-2.068
						c1.142-0.546,2.255-1.126,3.437-1.502c4.647-1.75,9.516-1.869,13.821-1.11c4.336,0.786,8.082,2.705,11.041,4.954
						c2.968,2.27,5.136,4.938,6.629,7.486c1.481,2.559,2.407,4.968,2.845,7.002c0.29,1.002,0.396,1.922,0.507,2.715
						c0.052,0.396,0.117,0.761,0.146,1.097c0.012,0.335,0.024,0.641,0.034,0.917c0.016,0.527,0.028,0.939,0.037,1.243
						C138.497,142.788,138.496,142.931,138.487,142.931z"/>
				</g>
			</g>
		</g>
		<g>
			<g>
				<g>
					<g>
						<g>
							<g>
								<path style="fill:#263238;" d="M104.43,137.931h4.263c0,0,0-3.579,3.72-3.644c1.932-0.033,2.934,1.232,3.341,2.202
									c0.473,1.126,0.329,2.409-0.304,3.453c-0.723,1.192-2.308,2.276-5.181,1.77v9.613h4.215v-5.631c0,0,5.912-1.528,5.912-8.044
									c0-6.234-5.59-7.682-7.984-7.682C110.584,129.968,104.35,130.41,104.43,137.931z"/>
							</g>
						</g>
					</g>
				</g>
				<g>
					<g>
						<g>
							<g>
								<rect x="110.258" y="153.305" style="fill:#263238;" width="4.278" height="3.996"/>
							</g>
						</g>
					</g>
				</g>
			</g>
		</g>
		<g>
			<g>
				<path style="fill:#FFFFFF;" d="M150.077,155.303c0,2.422-1.964,4.386-4.386,4.386c-2.422,0-4.386-1.964-4.386-4.386
					c0-2.422,1.964-4.386,4.386-4.386C148.114,150.917,150.077,152.88,150.077,155.303z"/>
			</g>
			<g>
				<g>
					<path style="fill:#263238;" d="M150.077,155.303c-0.056,0.002-0.06-0.39-0.255-1.042c-0.192-0.639-0.644-1.566-1.611-2.27
						c-0.935-0.707-2.456-1.092-3.917-0.539c-1.45,0.508-2.695,2.051-2.679,3.85c-0.016,1.799,1.229,3.343,2.679,3.851
						c1.462,0.553,2.982,0.168,3.917-0.539c0.967-0.704,1.419-1.631,1.611-2.27C150.017,155.693,150.021,155.301,150.077,155.303
						c0.028-0.003,0.11,0.392-0.02,1.1c-0.129,0.693-0.547,1.734-1.579,2.561c-0.996,0.827-2.698,1.326-4.379,0.728
						c-1.665-0.544-3.125-2.313-3.105-4.389c-0.02-2.075,1.44-3.843,3.105-4.388c1.68-0.599,3.382-0.1,4.378,0.727
						c1.032,0.827,1.45,1.868,1.579,2.561C150.188,154.91,150.106,155.305,150.077,155.303z"/>
				</g>
			</g>
		</g>
	</g>
	<g>
		<g>
			<g>
				<g>
					<circle style="fill:#FFFFFF;" cx="419.832" cy="373.962" r="35.186"/>
				</g>
				<g>
					<g>
						<path style="fill:#263238;" d="M455.018,373.962c-0.012,0-0.034-0.193-0.064-0.569c-0.029-0.408-0.068-0.961-0.119-1.669
							c-0.024-0.37-0.05-0.779-0.079-1.228c-0.049-0.45-0.147-0.937-0.228-1.467c-0.171-1.06-0.333-2.288-0.742-3.624
							c-0.625-2.712-1.902-5.916-3.909-9.31c-2.023-3.38-4.939-6.91-8.906-9.904c-3.954-2.966-8.942-5.489-14.699-6.506
							c-5.717-0.981-12.171-0.802-18.317,1.533c-1.564,0.501-3.034,1.275-4.546,2c-1.432,0.866-2.94,1.664-4.273,2.748
							c-1.417,0.973-2.655,2.19-3.952,3.361c-1.172,1.298-2.404,2.568-3.414,4.04c-2.074,2.88-3.884,6.08-4.98,9.599
							c-1.135,3.497-1.747,7.212-1.798,10.992c0.05,3.781,0.66,7.497,1.795,10.996c1.095,3.52,2.906,6.721,4.98,9.602
							c1.01,1.473,2.242,2.743,3.414,4.041c1.297,1.172,2.536,2.389,3.953,3.362c1.333,1.084,2.841,1.882,4.273,2.748
							c1.512,0.725,2.982,1.499,4.546,2c6.147,2.336,12.601,2.514,18.319,1.533c5.757-1.018,10.745-3.541,14.699-6.507
							c3.967-2.995,6.882-6.525,8.905-9.905c2.007-3.394,3.283-6.598,3.908-9.31c0.408-1.336,0.57-2.564,0.741-3.624
							c0.081-0.53,0.179-1.017,0.228-1.467c0.029-0.449,0.055-0.859,0.079-1.228c0.051-0.707,0.09-1.261,0.119-1.668
							C454.984,374.155,455.006,373.962,455.018,373.962c0.012,0,0.014,0.193,0.007,0.57c-0.012,0.41-0.029,0.965-0.05,1.676
							c-0.014,0.372-0.029,0.784-0.046,1.236c-0.038,0.453-0.126,0.944-0.196,1.479c-0.15,1.069-0.293,2.309-0.684,3.661
							c-0.59,2.743-1.839,5.992-3.837,9.443c-2.014,3.436-4.938,7.035-8.941,10.097c-3.99,3.034-9.043,5.623-14.892,6.683
							c-5.808,1.024-12.375,0.864-18.644-1.497c-1.594-0.507-3.095-1.29-4.636-2.027c-1.461-0.877-2.999-1.69-4.36-2.79
							c-1.445-0.99-2.711-2.226-4.034-3.42c-1.198-1.32-2.454-2.614-3.487-4.114c-2.118-2.934-3.967-6.198-5.087-9.788
							c-1.161-3.568-1.784-7.359-1.834-11.214c0.05-3.855,0.675-7.644,1.836-11.211c1.121-3.588,2.969-6.851,5.087-9.785
							c1.033-1.499,2.289-2.793,3.486-4.113c1.323-1.193,2.589-2.43,4.034-3.419c1.361-1.1,2.899-1.913,4.36-2.79
							c1.541-0.737,3.042-1.519,4.635-2.026c6.268-2.361,12.834-2.521,18.642-1.498c5.848,1.06,10.901,3.649,14.892,6.682
							c4.003,3.062,6.927,6.66,8.942,10.096c1.998,3.451,3.247,6.7,3.837,9.444c0.391,1.351,0.534,2.592,0.684,3.661
							c0.07,0.535,0.158,1.026,0.196,1.479c0.017,0.452,0.032,0.865,0.046,1.237c0.021,0.711,0.038,1.267,0.05,1.677
							C455.032,373.769,455.03,373.962,455.018,373.962z"/>
					</g>
				</g>
			</g>
			<g>
				<g>
					<g>
						<g>
							<g>
								<g>
									<path style="fill:#263238;" d="M410.329,365.976h5.085c0,0,0-4.27,4.437-4.346c2.305-0.04,3.499,1.47,3.985,2.626
										c0.564,1.343,0.393,2.873-0.362,4.119c-0.863,1.422-2.753,2.715-6.18,2.111v11.466l5.028,0v-6.717
										c0,0,7.052-1.823,7.052-9.595c0-7.436-6.668-9.163-9.523-9.163C417.669,356.477,410.233,357.005,410.329,365.976z"/>
								</g>
							</g>
						</g>
					</g>
					<g>
						<g>
							<g>
								<g>
									<rect x="417.28" y="384.314" style="fill:#263238;" width="5.103" height="4.766"/>
								</g>
							</g>
						</g>
					</g>
				</g>
			</g>
		</g>
		<g>
			<g>
				<path style="fill:#FFFFFF;" d="M382.534,335.023c0,3.223,2.613,5.836,5.836,5.836c3.223,0,5.836-2.613,5.836-5.836
					c0-3.223-2.613-5.836-5.836-5.836C385.146,329.188,382.534,331.8,382.534,335.023z"/>
			</g>
			<g>
				<g>
					<path style="fill:#263238;" d="M382.534,335.023c0.075,0.003,0.08-0.519,0.339-1.386c0.255-0.851,0.857-2.084,2.143-3.021
						c1.244-0.94,3.267-1.452,5.212-0.717c1.929,0.676,3.586,2.73,3.565,5.122c0.022,2.393-1.635,4.448-3.565,5.124
						c-1.945,0.736-3.968,0.223-5.212-0.717c-1.286-0.937-1.888-2.17-2.143-3.021C382.614,335.543,382.609,335.021,382.534,335.023
						c-0.038-0.004-0.147,0.522,0.027,1.464c0.172,0.921,0.728,2.307,2.101,3.407c1.325,1.101,3.59,1.765,5.826,0.968
						c2.215-0.725,4.158-3.078,4.131-5.84c0.026-2.761-1.916-5.113-4.131-5.838c-2.235-0.797-4.5-0.133-5.826,0.968
						c-1.373,1.1-1.929,2.486-2.101,3.407C382.387,334.501,382.496,335.027,382.534,335.023z"/>
				</g>
			</g>
		</g>
	</g>
	<g>
		<g>
			<g>
				<g>
					
						<ellipse transform="matrix(0.2916 -0.9565 0.9565 0.2916 -354.7085 378.3372)" style="fill:#FFFFFF;" cx="78.078" cy="428.648" rx="24.342" ry="24.342"/>
				</g>
				<g>
					<g>
						<path style="fill:#263238;" d="M102.421,428.648c-0.008,0-0.023-0.134-0.044-0.394c-0.02-0.282-0.047-0.665-0.082-1.155
							c-0.016-0.256-0.035-0.539-0.054-0.85c-0.034-0.311-0.102-0.648-0.158-1.015c-0.118-0.733-0.231-1.583-0.513-2.507
							c-0.433-1.876-1.316-4.093-2.704-6.441c-1.4-2.338-3.417-4.78-6.161-6.852c-2.735-2.052-6.186-3.797-10.169-4.501
							c-3.955-0.679-8.42-0.555-12.672,1.061c-1.082,0.347-2.099,0.882-3.145,1.384c-0.991,0.599-2.034,1.151-2.956,1.901
							c-0.98,0.673-1.837,1.515-2.734,2.325c-0.811,0.898-1.663,1.776-2.362,2.795c-1.435,1.992-2.687,4.206-3.445,6.641
							c-0.786,2.419-1.209,4.989-1.244,7.604c0.035,2.616,0.457,5.187,1.242,7.607c0.757,2.435,2.011,4.65,3.445,6.643
							c0.699,1.019,1.551,1.898,2.362,2.796c0.898,0.811,1.755,1.653,2.735,2.326c0.922,0.75,1.966,1.302,2.956,1.901
							c1.046,0.502,2.063,1.037,3.145,1.384c4.252,1.616,8.718,1.74,12.673,1.061c3.983-0.704,7.434-2.45,10.169-4.502
							c2.744-2.072,4.761-4.514,6.16-6.852c1.388-2.348,2.271-4.564,2.704-6.441c0.283-0.924,0.395-1.774,0.513-2.507
							c0.056-0.367,0.124-0.704,0.158-1.015c0.02-0.311,0.038-0.594,0.054-0.85c0.035-0.489,0.062-0.872,0.082-1.154
							C102.397,428.782,102.412,428.648,102.421,428.648s0.01,0.134,0.005,0.395c-0.008,0.284-0.02,0.668-0.035,1.16
							c-0.009,0.258-0.02,0.543-0.032,0.855c-0.026,0.313-0.087,0.653-0.136,1.023c-0.104,0.739-0.203,1.598-0.473,2.533
							c-0.408,1.898-1.272,4.145-2.654,6.533c-1.393,2.377-3.416,4.867-6.185,6.985c-2.76,2.099-6.256,3.89-10.302,4.624
							c-4.018,0.708-8.562,0.598-12.898-1.036c-1.103-0.351-2.141-0.892-3.207-1.402c-1.011-0.607-2.075-1.169-3.017-1.931
							c-1-0.685-1.876-1.54-2.791-2.366c-0.829-0.913-1.698-1.809-2.412-2.846c-1.465-2.03-2.744-4.288-3.52-6.771
							c-0.803-2.468-1.234-5.091-1.269-7.758c0.035-2.667,0.467-5.288,1.271-7.756c0.776-2.482,2.054-4.74,3.52-6.769
							c0.714-1.037,1.583-1.933,2.412-2.845c0.915-0.826,1.791-1.681,2.791-2.365c0.941-0.761,2.005-1.323,3.016-1.93
							c1.066-0.51,2.104-1.051,3.207-1.402c4.336-1.633,8.879-1.744,12.897-1.036c4.046,0.733,7.542,2.524,10.302,4.623
							c2.769,2.118,4.793,4.607,6.186,6.985c1.382,2.388,2.246,4.635,2.655,6.533c0.27,0.935,0.369,1.793,0.473,2.533
							c0.049,0.37,0.109,0.71,0.136,1.023c0.012,0.313,0.022,0.598,0.032,0.855c0.015,0.492,0.026,0.876,0.035,1.16
							C102.43,428.515,102.429,428.648,102.421,428.648z"/>
					</g>
				</g>
			</g>
			<g>
				<g>
					<g>
						<g>
							<g>
								<g>
									<path style="fill:#263238;" d="M71.504,423.123h3.518c0,0,0-2.954,3.07-3.007c1.594-0.027,2.421,1.017,2.757,1.817
										c0.39,0.929,0.272,1.988-0.25,2.849c-0.597,0.984-1.904,1.878-4.275,1.46v7.932h3.479v-4.647c0,0,4.879-1.261,4.879-6.638
										c0-5.144-4.613-6.339-6.588-6.339C76.582,416.552,71.438,416.917,71.504,423.123z"/>
								</g>
							</g>
						</g>
					</g>
					<g>
						<g>
							<g>
								<g>
									<rect x="76.313" y="435.81" style="fill:#263238;" width="3.53" height="3.297"/>
								</g>
							</g>
						</g>
					</g>
				</g>
			</g>
		</g>
		<g>
			<g>
				<path style="fill:#FFFFFF;" d="M94.049,397.705c0,3.107,2.519,5.627,5.627,5.627s5.626-2.519,5.626-5.627
					c0-3.107-2.519-5.626-5.626-5.626S94.049,394.598,94.049,397.705z"/>
			</g>
			<g>
				<g>
					<path style="fill:#263238;" d="M94.049,397.705c0.072,0.003,0.077-0.501,0.326-1.336c0.246-0.82,0.826-2.009,2.067-2.913
						c1.199-0.906,3.15-1.4,5.025-0.691c1.86,0.652,3.457,2.632,3.437,4.939c0.021,2.308-1.577,4.288-3.437,4.94
						c-1.875,0.709-3.826,0.215-5.025-0.691c-1.24-0.904-1.82-2.092-2.066-2.912C94.126,398.206,94.121,397.703,94.049,397.705
						c-0.036-0.003-0.142,0.504,0.026,1.411c0.166,0.888,0.702,2.224,2.026,3.285c1.278,1.061,3.462,1.701,5.617,0.933
						c2.136-0.699,4.009-2.967,3.983-5.63c0.025-2.662-1.847-4.93-3.983-5.629c-2.155-0.768-4.339-0.128-5.617,0.933
						c-1.324,1.061-1.86,2.396-2.026,3.285C93.907,397.201,94.013,397.708,94.049,397.705z"/>
				</g>
			</g>
		</g>
	</g>
</g>
</svg>
