<?xml version="1.0" encoding="utf-8"?>
<!-- Generator: Adobe Illustrator 27.5.0, SVG Export Plug-In . SVG Version: 6.00 Build 0)  -->
<svg version="1.1" xmlns="http://www.w3.org/2000/svg" xmlns:xlink="http://www.w3.org/1999/xlink" x="0px" y="0px"
	 viewBox="0 0 750 500" style="enable-background:new 0 0 750 500;" xml:space="preserve">
<g id="BACKGROUND">
	<rect style="fill:#FFFFFF;" width="750" height="500"/>
</g>
<g id="OBJECTS">
	<g>
		<defs>
			<rect id="SVGID_1_" width="750" height="500"/>
		</defs>
		<clipPath id="SVGID_00000170266484743283784520000008742432424845959608_">
			<use xlink:href="#SVGID_1_"  style="overflow:visible;"/>
		</clipPath>
		<g style="clip-path:url(#SVGID_00000170266484743283784520000008742432424845959608_);">
			<circle style="fill:#444444;" cx="0" cy="52.23" r="37.121"/>
			<polygon style="fill:#AAE2E5;" points="561.574,453.899 649.969,453.899 649.969,542.293 			"/>
			<polygon style="fill:none;stroke:#444444;stroke-width:2;stroke-miterlimit:10;" points="537.18,444.324 625.575,444.324 
				625.575,532.718 			"/>
			<polygon style="fill:#444444;" points="672.879,14.962 761.274,14.962 761.274,103.357 			"/>
			<circle style="fill:#AECEA3;" cx="654.214" cy="184.653" r="75.967"/>
			<circle style="fill:#444444;" cx="654.214" cy="184.653" r="13.694"/>
			<circle style="fill:#AECEA3;" cx="359.619" cy="203.123" r="37.478"/>
			<circle style="fill:#AAE2E5;" cx="100.204" cy="388.596" r="46.017"/>
			<g>
				
					<circle style="fill:none;stroke:#549E9E;stroke-width:2;stroke-linecap:round;stroke-linejoin:round;stroke-miterlimit:10;stroke-dasharray:0.5,5;" cx="654.214" cy="184.653" r="104.98"/>
				
					<circle style="fill:none;stroke:#549E9E;stroke-width:2;stroke-linecap:round;stroke-linejoin:round;stroke-miterlimit:10;stroke-dasharray:0.5,5;" cx="654.214" cy="184.653" r="57.969"/>
				
					<circle style="fill:none;stroke:#549E9E;stroke-width:2;stroke-linecap:round;stroke-linejoin:round;stroke-miterlimit:10;stroke-dasharray:0.5,5;" cx="654.214" cy="184.653" r="46.011"/>
				
					<circle style="fill:none;stroke:#549E9E;stroke-width:2;stroke-linecap:round;stroke-linejoin:round;stroke-miterlimit:10;stroke-dasharray:0.5,5;" cx="654.214" cy="184.653" r="34.196"/>
				
					<path style="fill:none;stroke:#549E9E;stroke-width:2;stroke-linecap:round;stroke-linejoin:round;stroke-miterlimit:10;stroke-dasharray:0.5,5;" d="
					M747.971,184.653c0,51.698-42.059,93.757-93.758,93.757c-51.698,0-93.757-42.059-93.757-93.757s42.059-93.757,93.757-93.757"/>
				
					<path style="fill:none;stroke:#549E9E;stroke-width:2;stroke-linecap:round;stroke-linejoin:round;stroke-miterlimit:10;stroke-dasharray:0.5,5;" d="
					M735.51,184.653c0,44.827-36.469,81.296-81.297,81.296c-44.827,0-81.296-36.469-81.296-81.296s36.469-81.296,81.296-81.296"/>
				
					<path style="fill:none;stroke:#549E9E;stroke-width:2;stroke-linecap:round;stroke-linejoin:round;stroke-miterlimit:10;stroke-dasharray:0.5,5;" d="
					M723.92,184.653c0,38.436-31.27,69.706-69.707,69.706c-38.436,0-69.706-31.27-69.706-69.706s31.27-69.706,69.706-69.706"/>
			</g>
			
				<rect x="352.992" y="-58.17" transform="matrix(0.7071 -0.7071 0.7071 0.7071 120.4265 290.7352)" style="fill:#AAE2E5;" width="116.34" height="116.34"/>
			<path style="fill:#418484;" d="M107.54,386.255L-62.009,555.803c-2.879,2.879-7.546,2.879-10.425,0h0
				c-2.879-2.879-2.879-7.546,0-10.424L97.115,375.83c2.879-2.879,7.546-2.879,10.425,0l0,0
				C110.419,378.709,110.419,383.376,107.54,386.255z"/>
			<path style="fill:#418484;" d="M671.364-51.575L501.815,117.973c-2.879,2.879-7.546,2.879-10.425,0v0
				c-2.879-2.879-2.879-7.546,0-10.425L660.939-62c2.879-2.879,7.546-2.879,10.425,0v0
				C674.242-59.121,674.242-54.454,671.364-51.575z"/>
			<path style="fill:#418484;" d="M596.703,353.695l-88.36,88.36c-2.879,2.879-7.546,2.879-10.425,0l0,0
				c-2.879-2.879-2.879-7.546,0-10.425l88.36-88.36c2.879-2.879,7.546-2.879,10.424,0h0
				C599.581,346.149,599.581,350.816,596.703,353.695z"/>
			<path style="fill:#418484;" d="M491.386,73.278l-57.367,57.367c-2.879,2.879-7.546,2.879-10.425,0l0,0
				c-2.879-2.879-2.879-7.546,0-10.425l57.367-57.367c2.879-2.879,7.546-2.879,10.425,0v0
				C494.265,65.733,494.265,70.4,491.386,73.278z"/>
			<path style="fill:#418484;" d="M764.588,121.75l-57.367,57.367c-2.879,2.879-7.546,2.879-10.425,0v0
				c-2.879-2.879-2.879-7.546,0-10.425l57.367-57.367c2.879-2.879,7.546-2.879,10.425,0v0
				C767.466,114.204,767.466,118.871,764.588,121.75z"/>
			<path style="fill:#418484;" d="M189.561,3.255l-57.367,57.367c-2.879,2.879-7.546,2.879-10.425,0l0,0
				c-2.879-2.879-2.879-7.546,0-10.425L179.137-7.17c2.879-2.879,7.546-2.879,10.425,0v0C192.44-4.291,192.44,0.376,189.561,3.255z"
				/>
			<path style="fill:#AAE2E5;" d="M377.205,284.02l-57.367,57.367c-2.879,2.879-7.546,2.879-10.425,0v0
				c-2.879-2.879-2.879-7.546,0-10.424l57.367-57.367c2.879-2.879,7.546-2.879,10.425,0h0
				C380.084,276.474,380.084,281.142,377.205,284.02z"/>
			<path style="fill:#AAE2E5;" d="M136.496,81.382L119.417,98.46c-2.879,2.879-7.546,2.879-10.425,0l0,0
				c-2.879-2.879-2.879-7.546,0-10.425l17.079-17.079c2.879-2.879,7.546-2.879,10.425,0l0,0
				C139.374,73.836,139.374,78.503,136.496,81.382z"/>
			<path style="fill:#444444;" d="M39.682,234.984l-17.079,17.079c-2.879,2.879-7.546,2.879-10.425,0l0,0
				c-2.879-2.879-2.879-7.546,0-10.425l17.079-17.079c2.879-2.879,7.546-2.879,10.425,0h0
				C42.561,227.438,42.561,232.105,39.682,234.984z"/>
			<path style="fill:#444444;" d="M717.293,132.296l-17.079,17.079c-2.879,2.879-7.546,2.879-10.425,0l0,0
				c-2.879-2.879-2.879-7.546,0-10.425l17.079-17.079c2.879-2.879,7.546-2.879,10.424,0l0,0
				C720.172,124.75,720.172,129.418,717.293,132.296z"/>
			<path style="fill:#444444;" d="M625.859,359.23l-17.079,17.079c-2.879,2.879-7.546,2.879-10.424,0h0
				c-2.879-2.879-2.879-7.546,0-10.425l17.079-17.079c2.879-2.879,7.546-2.879,10.425,0v0
				C628.737,351.684,628.737,356.351,625.859,359.23z"/>
			<path style="fill:#AAE2E5;" d="M568.462,92.763l-57.367,57.367c-2.879,2.879-7.546,2.879-10.424,0l0,0
				c-2.879-2.879-2.879-7.546,0-10.425l57.367-57.367c2.879-2.879,7.546-2.879,10.424,0v0
				C571.341,85.217,571.341,89.885,568.462,92.763z"/>
			<path style="fill:#AAE2E5;" d="M567.594,90.158l-57.367,57.367c-2.879,2.879-7.546,2.879-10.425,0v0
				c-2.879-2.879-2.879-7.546,0-10.425l57.367-57.367c2.879-2.879,7.546-2.879,10.424,0v0
				C570.472,82.612,570.472,87.28,567.594,90.158z"/>
			<path style="fill:#AAE2E5;" d="M33.896,409.712l-57.367,57.367c-2.879,2.879-7.546,2.879-10.425,0l0,0
				c-2.879-2.879-2.879-7.546,0-10.424l57.367-57.367c2.879-2.879,7.546-2.879,10.425,0h0
				C36.774,402.166,36.774,406.833,33.896,409.712z"/>
			<path style="fill:#418484;" d="M310.351,315.72l-57.367,57.367c-2.879,2.879-7.546,2.879-10.425,0h0
				c-2.879-2.879-2.879-7.546,0-10.425l57.367-57.367c2.879-2.879,7.546-2.879,10.424,0h0
				C313.229,308.174,313.229,312.841,310.351,315.72z"/>
			<path style="fill:#444444;" d="M319.486,387.06l-57.367,57.367c-2.879,2.879-7.546,2.879-10.425,0v0
				c-2.879-2.879-2.879-7.546,0-10.424l57.367-57.367c2.879-2.879,7.546-2.879,10.425,0h0
				C322.365,379.514,322.365,384.181,319.486,387.06z"/>
			<path style="fill:#444444;" d="M240.543-7.653l-57.367,57.367c-2.879,2.879-7.546,2.879-10.425,0l0,0
				c-2.879-2.879-2.879-7.546,0-10.425l57.367-57.367c2.879-2.879,7.546-2.879,10.425,0v0
				C243.422-15.199,243.422-10.532,240.543-7.653z"/>
			<polyline style="fill:none;stroke:#444444;stroke-width:2;stroke-miterlimit:10;" points="481.681,129.497 352.184,0 
				481.681,-129.497 611.178,0 550.765,60.412 			"/>
			
				<rect x="271.87" y="164.195" transform="matrix(0.7071 -0.7071 0.7071 0.7071 -51.5201 276.6564)" style="fill:none;stroke:#444444;stroke-width:2;stroke-miterlimit:10;" width="72.647" height="72.647"/>
			
				<rect x="388.515" y="-22.647" transform="matrix(0.7071 -0.7071 0.7071 0.7071 119.4395 293.118)" style="fill:#444444;" width="50.059" height="50.059"/>
			
				<rect x="279.404" y="38.438" transform="matrix(0.7071 -0.7071 0.7071 0.7071 47.6611 225.7144)" style="fill:#AECEA3;" width="33.775" height="33.775"/>
			
				<rect x="285.843" y="57.131" transform="matrix(0.7071 -0.7071 0.7071 0.7071 36.329 235.7424)" style="fill:#AAE2E5;" width="33.775" height="33.775"/>
			
				<rect x="276.203" y="484.511" transform="matrix(0.7071 -0.7071 0.7071 0.7071 -268.6982 354.1024)" style="fill:#AECEA3;" width="33.775" height="33.775"/>
			<polyline style="fill:#444444;" points="162.6,395.325 181.589,376.335 200.579,395.325 181.589,414.315 			"/>
			
				<rect x="319.593" y="-105.219" transform="matrix(0.7071 -0.7071 0.7071 0.7071 130.079 286.737)" style="fill:none;stroke:#444444;stroke-width:2;stroke-linecap:round;stroke-linejoin:round;stroke-miterlimit:10;stroke-dasharray:0.5,5;" width="183.137" height="183.137"/>
			
				<rect x="220.07" y="176.797" transform="matrix(0.7071 -0.7071 0.7071 0.7071 -71.2153 233.1257)" style="fill:none;stroke:#444444;stroke-width:2;stroke-linecap:round;stroke-linejoin:round;stroke-miterlimit:10;stroke-dasharray:0.5,5;" width="51.46" height="51.46"/>
			<g>
				<path style="fill:none;stroke:#AAE2E5;stroke-width:2;stroke-miterlimit:10;" d="M360.362-69.479
					c4.81,4.81,1.158,8.462,5.968,13.272c4.809,4.809,8.461,1.157,13.27,5.967c4.81,4.81,1.158,8.461,5.968,13.271
					c4.81,4.81,8.462,1.158,13.271,5.968c4.81,4.81,1.159,8.462,5.969,13.272c4.81,4.81,8.462,1.159,13.273,5.969
					c4.81,4.81,1.159,8.462,5.969,13.272c4.811,4.811,8.462,1.159,13.273,5.969c4.811,4.811,1.16,8.463,5.971,13.274
					c4.811,4.811,8.463,1.159,13.274,5.971"/>
				<path style="fill:none;stroke:#AAE2E5;stroke-width:2;stroke-miterlimit:10;" d="M354.678-63.795
					c4.81,4.81,1.158,8.462,5.968,13.272c4.809,4.809,8.461,1.157,13.27,5.967c4.81,4.81,1.158,8.461,5.968,13.271
					c4.81,4.81,8.462,1.158,13.271,5.968c4.81,4.81,1.159,8.462,5.969,13.272c4.81,4.81,8.462,1.159,13.273,5.969
					c4.81,4.81,1.159,8.462,5.969,13.272c4.811,4.811,8.462,1.159,13.273,5.969c4.811,4.811,1.16,8.463,5.971,13.274
					c4.811,4.811,8.463,1.159,13.274,5.971"/>
				<path style="fill:none;stroke:#AAE2E5;stroke-width:2;stroke-miterlimit:10;" d="M348.993-58.111
					c4.81,4.81,1.158,8.462,5.968,13.272c4.809,4.809,8.461,1.157,13.27,5.967c4.81,4.81,1.158,8.461,5.968,13.271
					c4.81,4.81,8.462,1.158,13.271,5.968c4.81,4.81,1.159,8.462,5.969,13.272c4.81,4.81,8.462,1.159,13.273,5.969
					c4.81,4.81,1.159,8.462,5.969,13.272c4.811,4.811,8.462,1.159,13.273,5.969c4.811,4.811,1.16,8.463,5.971,13.274
					c4.811,4.811,8.463,1.159,13.274,5.971"/>
				<path style="fill:none;stroke:#AAE2E5;stroke-width:2;stroke-miterlimit:10;" d="M343.309-52.427
					c4.81,4.81,1.158,8.462,5.968,13.272c4.809,4.809,8.461,1.157,13.27,5.967c4.81,4.81,1.158,8.461,5.968,13.271
					c4.81,4.81,8.461,1.158,13.271,5.968c4.81,4.81,1.159,8.462,5.969,13.272c4.81,4.81,8.462,1.159,13.273,5.969
					c4.81,4.81,1.159,8.462,5.969,13.272c4.811,4.811,8.462,1.159,13.273,5.969c4.811,4.811,1.16,8.463,5.971,13.274
					c4.811,4.811,8.463,1.159,13.274,5.971"/>
				<path style="fill:none;stroke:#AAE2E5;stroke-width:2;stroke-miterlimit:10;" d="M337.625-46.743
					c4.81,4.81,1.158,8.462,5.968,13.272c4.809,4.809,8.461,1.157,13.27,5.967c4.81,4.81,1.158,8.461,5.968,13.271
					c4.81,4.81,8.461,1.158,13.271,5.968c4.81,4.81,1.159,8.462,5.969,13.272c4.81,4.81,8.462,1.159,13.273,5.969
					c4.81,4.81,1.159,8.462,5.969,13.272c4.811,4.811,8.462,1.159,13.273,5.969c4.811,4.811,1.159,8.463,5.971,13.274
					s8.463,1.159,13.274,5.971"/>
				<path style="fill:none;stroke:#AAE2E5;stroke-width:2;stroke-miterlimit:10;" d="M331.941-41.059
					c4.81,4.81,1.158,8.462,5.968,13.272c4.809,4.809,8.461,1.157,13.27,5.967c4.81,4.81,1.158,8.461,5.968,13.271
					c4.81,4.81,8.461,1.158,13.271,5.968c4.81,4.81,1.159,8.462,5.969,13.272c4.81,4.81,8.462,1.159,13.273,5.969
					c4.81,4.81,1.159,8.462,5.969,13.272c4.811,4.811,8.462,1.159,13.273,5.969c4.811,4.811,1.159,8.463,5.971,13.274
					s8.463,1.159,13.274,5.971"/>
			</g>
			<polygon style="fill:#AAE2E5;" points="489.406,170.959 448.403,170.959 448.403,129.956 			"/>
			<polygon style="fill:#AAE2E5;" points="127.124,321.076 86.121,321.076 86.121,280.073 			"/>
			<polygon style="fill:#444444;" points="569.735,505.324 528.732,505.324 528.732,464.32 			"/>
			<polygon style="fill:#AAE2E5;" points="210.196,34.361 240.4,34.361 240.4,64.565 			"/>
			<polygon style="fill:#AECEA3;" points="85.674,457.791 115.878,457.791 115.878,487.995 			"/>
			<polygon style="fill:#AECEA3;" points="204.797,355.032 204.797,314.029 245.8,314.029 			"/>
			<polygon style="fill:#AECEA3;" points="468.002,431.432 468.002,390.429 509.005,390.429 			"/>
			<polygon style="fill:#AECEA3;" points="728.298,49.463 728.298,71.573 706.188,71.573 			"/>
			<g>
				<g>
					
						<rect x="510.591" y="210.346" transform="matrix(-0.7071 0.7071 -0.7071 -0.7071 1056.8149 49.7104)" style="fill:#418484;" width="15.043" height="66.766"/>
					
						<rect x="514.198" y="287.294" transform="matrix(-0.7071 0.7071 -0.7071 -0.7071 1117.3839 178.5182)" style="fill:#418484;" width="15.043" height="66.766"/>
					
						<rect x="497.99" y="187.468" transform="matrix(-0.7071 0.7071 -0.7071 -0.7071 1047.0538 86.9855)" style="fill:#418484;" width="15.043" height="145.753"/>
				</g>
				
					<line style="fill:none;stroke:#444444;stroke-width:2;stroke-miterlimit:10;" x1="486.052" y1="211.669" x2="524.971" y2="250.588"/>
				
					<line style="fill:none;stroke:#444444;stroke-width:2;stroke-miterlimit:10;" x1="555.086" y1="268.572" x2="594.006" y2="307.492"/>
				
					<line style="fill:none;stroke:#444444;stroke-width:2;stroke-miterlimit:10;" x1="538.193" y1="240.885" x2="577.112" y2="279.804"/>
				
					<line style="fill:none;stroke:#444444;stroke-width:2;stroke-miterlimit:10;" x1="482.8" y1="261.809" x2="521.72" y2="300.728"/>
				
					<line style="fill:none;stroke:#444444;stroke-width:2;stroke-miterlimit:10;" x1="463.618" y1="240.885" x2="478.087" y2="255.354"/>
				
					<line style="fill:none;stroke:#444444;stroke-width:2;stroke-miterlimit:10;" x1="345.723" y1="109" x2="360.192" y2="123.469"/>
				
					<line style="fill:none;stroke:#444444;stroke-width:2;stroke-miterlimit:10;" x1="367.948" y1="131.225" x2="382.417" y2="145.694"/>
				
					<line style="fill:none;stroke:#444444;stroke-width:2;stroke-miterlimit:10;" x1="255.146" y1="289.145" x2="269.614" y2="303.613"/>
				
					<line style="fill:none;stroke:#444444;stroke-width:2;stroke-miterlimit:10;" x1="277.371" y1="311.37" x2="291.84" y2="325.839"/>
			</g>
			<g>
				<g>
					
						<rect x="380.748" y="439.814" transform="matrix(-0.7071 0.7071 -0.7071 -0.7071 997.4179 533.2502)" style="fill:#418484;" width="15.043" height="66.766"/>
					
						<rect x="384.355" y="516.762" transform="matrix(-0.7071 0.7071 -0.7071 -0.7071 1057.9869 662.058)" style="fill:#418484;" width="15.043" height="66.766"/>
					
						<rect x="368.147" y="416.937" transform="matrix(-0.7071 0.7071 -0.7071 -0.7071 987.6568 570.5253)" style="fill:#418484;" width="15.043" height="145.753"/>
				</g>
				
					<line style="fill:none;stroke:#444444;stroke-width:2;stroke-miterlimit:10;" x1="356.209" y1="441.137" x2="395.128" y2="480.056"/>
				
					<line style="fill:none;stroke:#444444;stroke-width:2;stroke-miterlimit:10;" x1="425.243" y1="498.041" x2="464.163" y2="536.96"/>
				
					<line style="fill:none;stroke:#444444;stroke-width:2;stroke-miterlimit:10;" x1="408.35" y1="470.353" x2="447.269" y2="509.273"/>
				
					<line style="fill:none;stroke:#444444;stroke-width:2;stroke-miterlimit:10;" x1="352.957" y1="491.277" x2="391.877" y2="530.197"/>
				
					<line style="fill:none;stroke:#444444;stroke-width:2;stroke-miterlimit:10;" x1="333.775" y1="470.353" x2="348.244" y2="484.822"/>
			</g>
			<g>
				<g>
					
						<rect x="91.27" y="128.98" transform="matrix(-0.7071 0.7071 -0.7071 -0.7071 290.3939 217.1504)" style="fill:#AECEA3;" width="17.906" height="79.475"/>
					
						<rect x="95.565" y="220.576" transform="matrix(-0.7071 0.7071 -0.7071 -0.7071 362.4924 370.4772)" style="fill:#AECEA3;" width="17.906" height="79.475"/>
					
						<rect x="76.271" y="101.748" transform="matrix(-0.7071 0.7071 -0.7071 -0.7071 278.7747 261.5209)" style="fill:#AECEA3;" width="17.906" height="173.497"/>
				</g>
				
					<line style="fill:none;stroke:#444444;stroke-width:2;stroke-miterlimit:10;" x1="62.061" y1="130.555" x2="108.389" y2="176.883"/>
				
					<line style="fill:none;stroke:#444444;stroke-width:2;stroke-miterlimit:10;" x1="144.236" y1="198.29" x2="190.564" y2="244.618"/>
				
					<line style="fill:none;stroke:#444444;stroke-width:2;stroke-miterlimit:10;" x1="124.127" y1="165.333" x2="170.454" y2="211.66"/>
				
					<line style="fill:none;stroke:#444444;stroke-width:2;stroke-miterlimit:10;" x1="58.19" y1="190.239" x2="170.454" y2="302.504"/>
				
					<line style="fill:none;stroke:#444444;stroke-width:2;stroke-miterlimit:10;" x1="35.356" y1="165.333" x2="52.579" y2="182.556"/>
				
					<line style="fill:none;stroke:#444444;stroke-width:2;stroke-miterlimit:10;" x1="195.203" y1="250.139" x2="206.246" y2="261.182"/>
			</g>
			<g>
				<g>
					
						<rect x="742.185" y="383.132" transform="matrix(-0.7071 0.7071 -0.7071 -0.7071 1581.2867 190.7494)" style="fill:#AECEA3;" width="17.906" height="79.475"/>
					
						<rect x="746.479" y="474.728" transform="matrix(-0.7071 0.7071 -0.7071 -0.7071 1653.3853 344.0762)" style="fill:#AECEA3;" width="17.906" height="79.475"/>
					
						<rect x="727.186" y="355.9" transform="matrix(-0.7071 0.7071 -0.7071 -0.7071 1569.6676 235.1199)" style="fill:#AECEA3;" width="17.906" height="173.497"/>
				</g>
				
					<line style="fill:none;stroke:#444444;stroke-width:2;stroke-miterlimit:10;" x1="712.975" y1="384.707" x2="759.303" y2="431.035"/>
				
					<line style="fill:none;stroke:#444444;stroke-width:2;stroke-miterlimit:10;" x1="795.15" y1="452.442" x2="841.478" y2="498.77"/>
				
					<line style="fill:none;stroke:#444444;stroke-width:2;stroke-miterlimit:10;" x1="775.041" y1="419.485" x2="821.369" y2="465.813"/>
				
					<line style="fill:none;stroke:#444444;stroke-width:2;stroke-miterlimit:10;" x1="709.104" y1="444.392" x2="821.369" y2="556.656"/>
				
					<line style="fill:none;stroke:#444444;stroke-width:2;stroke-miterlimit:10;" x1="686.271" y1="419.485" x2="703.493" y2="436.708"/>
				
					<line style="fill:none;stroke:#444444;stroke-width:2;stroke-miterlimit:10;" x1="846.118" y1="504.291" x2="857.16" y2="515.334"/>
			</g>
			<g>
				<defs>
					<path id="SVGID_00000104688125616050097480000003880763685016555953_" d="M181.482,395.389l-64.165-149.357L-15.359,395.389
						l196.841,181.049c0,0,192.98-131.916,191.613-135.031c-1.368-3.116-63.602-174.412-63.602-174.412L181.482,395.389z"/>
				</defs>
				<clipPath id="SVGID_00000125590891473706179320000013294047415138620858_">
					<use xlink:href="#SVGID_00000104688125616050097480000003880763685016555953_"  style="overflow:visible;"/>
				</clipPath>
				<g style="clip-path:url(#SVGID_00000125590891473706179320000013294047415138620858_);">
					
						<circle style="fill:none;stroke:#549E9E;stroke-width:2;stroke-linecap:round;stroke-linejoin:round;stroke-miterlimit:10;stroke-dasharray:0.5,5;" cx="181.482" cy="395.389" r="104.98"/>
					
						<circle style="fill:none;stroke:#549E9E;stroke-width:2;stroke-linecap:round;stroke-linejoin:round;stroke-miterlimit:10;stroke-dasharray:0.5,5;" cx="181.482" cy="395.389" r="57.969"/>
					
						<circle style="fill:none;stroke:#549E9E;stroke-width:2;stroke-linecap:round;stroke-linejoin:round;stroke-miterlimit:10;stroke-dasharray:0.5,5;" cx="181.482" cy="395.389" r="46.011"/>
					
						<circle style="fill:none;stroke:#549E9E;stroke-width:2;stroke-linecap:round;stroke-linejoin:round;stroke-miterlimit:10;stroke-dasharray:0.5,5;" cx="181.482" cy="395.389" r="34.196"/>
					
						<path style="fill:none;stroke:#549E9E;stroke-width:2;stroke-linecap:round;stroke-linejoin:round;stroke-miterlimit:10;stroke-dasharray:0.5,5;" d="
						M101.332,444.035c-26.823-44.194-12.691-101.972,31.504-128.796c44.194-26.823,101.972-12.691,128.795,31.503
						s12.691,101.972-31.503,128.795"/>
					
						<path style="fill:none;stroke:#549E9E;stroke-width:2;stroke-linecap:round;stroke-linejoin:round;stroke-miterlimit:10;stroke-dasharray:0.5,5;" d="
						M111.984,437.57c-23.259-38.321-11.005-88.42,27.317-111.678c38.321-23.259,88.42-11.005,111.678,27.316
						s11.005,88.42-27.316,111.678"/>
					
						<path style="fill:none;stroke:#549E9E;stroke-width:2;stroke-linecap:round;stroke-linejoin:round;stroke-miterlimit:10;stroke-dasharray:0.5,5;" d="
						M121.892,431.557c-19.943-32.858-9.436-75.814,23.423-95.757c32.858-19.943,75.814-9.436,95.757,23.422
						s9.436,75.814-23.422,95.757"/>
				</g>
			</g>
			<g>
				<defs>
					<path id="SVGID_00000127039998399173902580000009900319637337770661_" d="M89.562,52.084v80.699c0,0-81.705-29.36-84.772-31.7
						C1.724,98.743,16.767-25.613,16.767-25.613L90.02-51.02l89.882,66.947l10.029,36.174L89.562,52.084z"/>
				</defs>
				<clipPath id="SVGID_00000086654009958538553680000000716500268611514291_">
					<use xlink:href="#SVGID_00000127039998399173902580000009900319637337770661_"  style="overflow:visible;"/>
				</clipPath>
				<g style="clip-path:url(#SVGID_00000086654009958538553680000000716500268611514291_);">
					
						<circle style="fill:none;stroke:#549E9E;stroke-width:2;stroke-linecap:round;stroke-linejoin:round;stroke-miterlimit:10;" cx="89.562" cy="52.084" r="65.478"/>
					
						<circle style="fill:none;stroke:#549E9E;stroke-width:2;stroke-linecap:round;stroke-linejoin:round;stroke-miterlimit:10;" cx="89.562" cy="52.084" r="36.156"/>
					
						<circle style="fill:none;stroke:#549E9E;stroke-width:2;stroke-linecap:round;stroke-linejoin:round;stroke-miterlimit:10;" cx="89.562" cy="52.084" r="28.698"/>
					
						<circle style="fill:none;stroke:#549E9E;stroke-width:2;stroke-linecap:round;stroke-linejoin:round;stroke-miterlimit:10;" cx="89.562" cy="52.084" r="21.329"/>
					<path style="fill:none;stroke:#549E9E;stroke-width:2;stroke-linecap:round;stroke-linejoin:round;stroke-miterlimit:10;" d="
						M91.567-6.36c32.226,1.106,57.544,28.222,56.438,60.449c-1.106,32.226-28.222,57.544-60.448,56.438
						c-32.226-1.106-57.544-28.222-56.438-60.448"/>
					<path style="fill:none;stroke:#549E9E;stroke-width:2;stroke-linecap:round;stroke-linejoin:round;stroke-miterlimit:10;" d="
						M91.301,1.408c27.943,0.959,49.896,24.472,48.937,52.415c-0.959,27.943-24.472,49.896-52.415,48.937
						c-27.943-0.959-49.896-24.472-48.937-52.415"/>
					<path style="fill:none;stroke:#549E9E;stroke-width:2;stroke-linecap:round;stroke-linejoin:round;stroke-miterlimit:10;" d="
						M91.053,8.632c23.959,0.822,42.783,20.983,41.961,44.942c-0.822,23.959-20.983,42.783-44.942,41.961
						S45.289,74.552,46.111,50.593"/>
				</g>
			</g>
			
				<line style="fill:none;stroke:#444444;stroke-width:2;stroke-miterlimit:10;" x1="285.03" y1="87.397" x2="331.358" y2="133.725"/>
			
				<line style="fill:none;stroke:#444444;stroke-width:2;stroke-miterlimit:10;" x1="371.965" y1="333.929" x2="418.292" y2="380.257"/>
			
				<line style="fill:none;stroke:#444444;stroke-width:2;stroke-miterlimit:10;" x1="680.329" y1="213.316" x2="726.657" y2="259.644"/>
			<g>
				
					<polyline style="fill:none;stroke:#418484;stroke-width:3;stroke-linecap:round;stroke-linejoin:round;stroke-miterlimit:10;" points="
					697.589,323.094 704.028,316.655 730.12,342.747 				"/>
				
					<polyline style="fill:none;stroke:#418484;stroke-width:3;stroke-linecap:round;stroke-linejoin:round;stroke-miterlimit:10;" points="
					684.712,335.971 691.15,329.533 717.242,355.625 				"/>
				
					<polyline style="fill:none;stroke:#418484;stroke-width:3;stroke-linecap:round;stroke-linejoin:round;stroke-miterlimit:10;" points="
					704.365,368.502 710.804,362.064 684.712,335.971 				"/>
				
					<polyline style="fill:none;stroke:#418484;stroke-width:3;stroke-linecap:round;stroke-linejoin:round;stroke-miterlimit:10;" points="
					717.242,355.625 723.681,349.186 697.589,323.094 				"/>
				
					<line style="fill:none;stroke:#418484;stroke-width:3;stroke-linecap:round;stroke-linejoin:round;stroke-miterlimit:10;" x1="678.273" y1="342.41" x2="704.365" y2="368.502"/>
			</g>
			<g>
				
					<polyline style="fill:none;stroke:#418484;stroke-width:3;stroke-linecap:round;stroke-linejoin:round;stroke-miterlimit:10;" points="
					571.639,15.109 578.078,8.67 604.17,34.762 				"/>
				
					<polyline style="fill:none;stroke:#418484;stroke-width:3;stroke-linecap:round;stroke-linejoin:round;stroke-miterlimit:10;" points="
					558.761,27.987 565.2,21.548 591.292,47.64 				"/>
				
					<polyline style="fill:none;stroke:#418484;stroke-width:3;stroke-linecap:round;stroke-linejoin:round;stroke-miterlimit:10;" points="
					578.415,60.518 584.854,54.079 558.761,27.987 				"/>
				
					<polyline style="fill:none;stroke:#418484;stroke-width:3;stroke-linecap:round;stroke-linejoin:round;stroke-miterlimit:10;" points="
					591.292,47.64 597.731,41.201 571.639,15.109 				"/>
				
					<line style="fill:none;stroke:#418484;stroke-width:3;stroke-linecap:round;stroke-linejoin:round;stroke-miterlimit:10;" x1="552.323" y1="34.426" x2="578.415" y2="60.518"/>
			</g>
			<g>
				
					<polyline style="fill:none;stroke:#418484;stroke-width:3;stroke-linecap:round;stroke-linejoin:round;stroke-miterlimit:10;" points="
					-8.539,329.533 -2.1,323.094 23.992,349.186 				"/>
				
					<polyline style="fill:none;stroke:#418484;stroke-width:3;stroke-linecap:round;stroke-linejoin:round;stroke-miterlimit:10;" points="
					-21.416,342.41 -14.978,335.971 11.114,362.064 				"/>
				
					<polyline style="fill:none;stroke:#418484;stroke-width:3;stroke-linecap:round;stroke-linejoin:round;stroke-miterlimit:10;" points="
					-1.763,374.941 4.676,368.502 -21.416,342.41 				"/>
				
					<polyline style="fill:none;stroke:#418484;stroke-width:3;stroke-linecap:round;stroke-linejoin:round;stroke-miterlimit:10;" points="
					11.114,362.064 17.553,355.625 -8.539,329.533 				"/>
				
					<line style="fill:none;stroke:#418484;stroke-width:3;stroke-linecap:round;stroke-linejoin:round;stroke-miterlimit:10;" x1="-27.855" y1="348.849" x2="-1.763" y2="374.941"/>
			</g>
			<g>
				
					<polyline style="fill:none;stroke:#418484;stroke-width:3;stroke-linecap:round;stroke-linejoin:round;stroke-miterlimit:10;" points="
					174.982,472.256 181.421,465.817 207.513,491.909 				"/>
				
					<polyline style="fill:none;stroke:#418484;stroke-width:3;stroke-linecap:round;stroke-linejoin:round;stroke-miterlimit:10;" points="
					162.104,485.133 168.543,478.694 194.635,504.786 				"/>
				
					<polyline style="fill:none;stroke:#418484;stroke-width:3;stroke-linecap:round;stroke-linejoin:round;stroke-miterlimit:10;" points="
					181.757,517.664 188.196,511.225 162.104,485.133 				"/>
				
					<polyline style="fill:none;stroke:#418484;stroke-width:3;stroke-linecap:round;stroke-linejoin:round;stroke-miterlimit:10;" points="
					194.635,504.786 201.074,498.348 174.982,472.256 				"/>
				
					<line style="fill:none;stroke:#418484;stroke-width:3;stroke-linecap:round;stroke-linejoin:round;stroke-miterlimit:10;" x1="155.665" y1="491.572" x2="181.757" y2="517.664"/>
			</g>
			<g>
				
					<polyline style="fill:none;stroke:#418484;stroke-width:3;stroke-linecap:round;stroke-linejoin:round;stroke-miterlimit:10;" points="
					220.747,83.872 227.186,77.433 253.278,103.525 				"/>
				
					<polyline style="fill:none;stroke:#418484;stroke-width:3;stroke-linecap:round;stroke-linejoin:round;stroke-miterlimit:10;" points="
					207.869,96.75 214.308,90.311 240.4,116.403 				"/>
				
					<polyline style="fill:none;stroke:#418484;stroke-width:3;stroke-linecap:round;stroke-linejoin:round;stroke-miterlimit:10;" points="
					227.523,129.281 233.961,122.842 207.869,96.75 				"/>
				
					<polyline style="fill:none;stroke:#418484;stroke-width:3;stroke-linecap:round;stroke-linejoin:round;stroke-miterlimit:10;" points="
					240.4,116.403 246.839,109.964 220.747,83.872 				"/>
				
					<line style="fill:none;stroke:#418484;stroke-width:3;stroke-linecap:round;stroke-linejoin:round;stroke-miterlimit:10;" x1="201.43" y1="103.189" x2="227.523" y2="129.281"/>
			</g>
			<g>
				
					<polyline style="fill:none;stroke:#418484;stroke-width:3;stroke-linecap:round;stroke-linejoin:round;stroke-miterlimit:10;" points="
					444.276,332.752 450.715,326.313 476.807,352.405 				"/>
				
					<polyline style="fill:none;stroke:#418484;stroke-width:3;stroke-linecap:round;stroke-linejoin:round;stroke-miterlimit:10;" points="
					431.398,345.63 437.837,339.191 463.929,365.283 				"/>
				
					<polyline style="fill:none;stroke:#418484;stroke-width:3;stroke-linecap:round;stroke-linejoin:round;stroke-miterlimit:10;" points="
					451.051,378.161 457.49,371.722 431.398,345.63 				"/>
				
					<polyline style="fill:none;stroke:#418484;stroke-width:3;stroke-linecap:round;stroke-linejoin:round;stroke-miterlimit:10;" points="
					463.929,365.283 470.368,358.844 444.276,332.752 				"/>
				
					<line style="fill:none;stroke:#418484;stroke-width:3;stroke-linecap:round;stroke-linejoin:round;stroke-miterlimit:10;" x1="424.959" y1="352.069" x2="451.051" y2="378.161"/>
			</g>
			
				<circle style="fill:none;stroke:#444444;stroke-width:2;stroke-linecap:round;stroke-linejoin:round;stroke-miterlimit:10;stroke-dasharray:0.5,5;" cx="42.257" cy="283.34" r="11.929"/>
			
				<circle style="fill:none;stroke:#444444;stroke-width:2;stroke-linecap:round;stroke-linejoin:round;stroke-miterlimit:10;stroke-dasharray:0.5,5;" cx="633.665" cy="395.325" r="11.929"/>
			
				<circle style="fill:none;stroke:#444444;stroke-width:2;stroke-linecap:round;stroke-linejoin:round;stroke-miterlimit:10;stroke-dasharray:0.5,5;" cx="174.982" cy="122.49" r="11.929"/>
			
				<circle style="fill:none;stroke:#444444;stroke-width:2;stroke-linecap:round;stroke-linejoin:round;stroke-miterlimit:10;stroke-dasharray:0.5,5;" cx="418.288" cy="257.614" r="11.929"/>
			
				<circle style="fill:none;stroke:#444444;stroke-width:2;stroke-linecap:round;stroke-linejoin:round;stroke-miterlimit:10;stroke-dasharray:0.5,5;" cx="141.556" cy="110.561" r="8.435"/>
			
				<circle style="fill:none;stroke:#444444;stroke-width:2;stroke-linecap:round;stroke-linejoin:round;stroke-miterlimit:10;stroke-dasharray:0.5,5;" cx="578.415" cy="411.235" r="8.435"/>
			
				<circle style="fill:none;stroke:#444444;stroke-width:2;stroke-linecap:round;stroke-linejoin:round;stroke-miterlimit:10;stroke-dasharray:0.5,5;" cx="521.72" cy="170.959" r="8.435"/>
			
				<circle style="fill:none;stroke:#444444;stroke-width:2;stroke-linecap:round;stroke-linejoin:round;stroke-miterlimit:10;stroke-dasharray:0.5,5;" cx="373.302" cy="368.502" r="8.435"/>
			
				<circle style="fill:none;stroke:#444444;stroke-width:2;stroke-linecap:round;stroke-linejoin:round;stroke-miterlimit:10;stroke-dasharray:0.5,5;" cx="395.128" cy="392.663" r="8.435"/>
			
				<circle style="fill:none;stroke:#444444;stroke-width:2;stroke-linecap:round;stroke-linejoin:round;stroke-miterlimit:10;stroke-dasharray:0.5,5;" cx="416.955" cy="416.823" r="8.435"/>
			
				<circle style="fill:none;stroke:#444444;stroke-width:2;stroke-linecap:round;stroke-linejoin:round;stroke-miterlimit:10;stroke-dasharray:0.5,5;" cx="438.781" cy="440.984" r="8.435"/>
			
				<circle style="fill:none;stroke:#444444;stroke-width:2;stroke-linecap:round;stroke-linejoin:round;stroke-miterlimit:10;stroke-dasharray:0.5,5;" cx="645.594" cy="49.463" r="8.435"/>
		</g>
	</g>
</g>
</svg>
